<svg width="593" height="367" viewBox="0 0 593 367" fill="none" xmlns="http://www.w3.org/2000/svg">
<g clip-path="url(#clip0_1_80)">
<mask id="mask0_1_80" style="mask-type:alpha" maskUnits="userSpaceOnUse" x="12" y="12" width="569" height="355">
<rect width="568" height="354" transform="translate(12.5 12.2197)" fill="url(#paint0_radial_1_80)"/>
</mask>
<g mask="url(#mask0_1_80)">
<g opacity="0.25" filter="url(#filter0_f_1_80)">
<path d="M12.5 156.22C12.5 112.037 48.3172 76.2197 92.5 76.2197H500.5C544.683 76.2197 580.5 112.037 580.5 156.22C580.5 200.403 544.683 236.22 500.5 236.22H92.5C48.3172 236.22 12.5 200.403 12.5 156.22Z" fill="url(#paint1_linear_1_80)"/>
</g>
</g>
<mask id="mask1_1_80" style="mask-type:alpha" maskUnits="userSpaceOnUse" x="59" y="39" width="475" height="301">
<rect width="473.6" height="300" transform="translate(59.7031 39.2197)" fill="url(#paint2_linear_1_80)"/>
</mask>
<g mask="url(#mask1_1_80)">
<path d="M59.7031 47.2197C59.7031 42.8014 63.2848 39.2197 67.7031 39.2197H525.303C529.721 39.2197 533.303 42.8014 533.303 47.2197V331.22C533.303 335.638 529.721 339.22 525.303 339.22H67.7031C63.2848 339.22 59.7031 335.638 59.7031 331.22V47.2197Z" fill="#18181B"/>
<path d="M60.2031 47.2197C60.2031 43.0776 63.561 39.7197 67.7031 39.7197H525.303C529.445 39.7197 532.803 43.0776 532.803 47.2197V331.22C532.803 335.362 529.445 338.72 525.303 338.72H67.7031C63.561 338.72 60.2031 335.362 60.2031 331.22V47.2197Z" stroke="#F4F4F5" stroke-opacity="0.05"/>
<g clip-path="url(#clip1_1_80)">
<path d="M481.775 169.801V338.226V169.801ZM391.946 169.801V338.226V169.801ZM302.117 169.801V338.226V169.801ZM212.289 169.801V338.226V169.801ZM122.46 169.801V338.226V169.801Z" fill="black"/>
<path d="M481.775 169.801V338.226M391.946 169.801V338.226M302.117 169.801V338.226M212.289 169.801V338.226M122.46 169.801V338.226" stroke="white" stroke-opacity="0.08" stroke-dasharray="2 2"/>
<g filter="url(#filter1_f_1_80)">
<path d="M387.782 275.179C387.838 275.245 387.969 275.245 388.081 275.245C388.746 275.245 389.232 274.815 389.354 274.272C389.433 273.936 389.376 273.582 389.196 273.288C389.015 272.993 388.726 272.782 388.39 272.7L384.086 271.605C384.021 271.549 383.899 271.549 383.777 271.549C383.483 271.523 383.19 271.607 382.955 271.785C382.72 271.963 382.559 272.223 382.505 272.513C382.383 272.812 382.449 273.177 382.626 273.486C382.813 273.785 383.113 274.029 383.478 274.094L387.782 275.179ZM395.118 272.148C395.361 272.634 395.773 272.934 396.334 272.934C396.475 272.934 396.615 272.896 396.793 272.85L396.933 272.822L400.994 270.997C401.294 270.875 401.537 270.576 401.659 270.267C401.762 269.928 401.743 269.563 401.603 269.238C401.498 269.003 401.327 268.804 401.111 268.665C400.895 268.525 400.643 268.451 400.386 268.452C400.199 268.452 400.031 268.508 399.843 268.573L395.782 270.389C395.118 270.697 394.809 271.483 395.118 272.148ZM374.869 271.97C374.935 272.026 375.056 272.026 375.178 272.026C375.777 272.026 376.329 271.605 376.451 270.997C376.572 270.697 376.507 270.333 376.329 270.033C376.142 269.724 375.842 269.481 375.477 269.425L371.173 268.33C371.117 268.274 370.986 268.274 370.874 268.274C370.266 268.274 369.723 268.695 369.601 269.303C369.522 269.639 369.579 269.993 369.76 270.288C369.94 270.582 370.23 270.793 370.565 270.875L374.869 271.97ZM361.956 268.751C362.022 268.817 362.143 268.817 362.265 268.817C362.873 268.817 363.416 268.396 363.538 267.787C363.578 267.62 363.585 267.446 363.558 267.275C363.531 267.105 363.47 266.942 363.38 266.795C363.289 266.648 363.171 266.52 363.031 266.419C362.891 266.318 362.733 266.246 362.565 266.206L358.26 265.121C358.204 265.055 358.073 265.055 357.961 265.055C357.663 265.057 357.375 265.16 357.144 265.347C356.913 265.534 356.752 265.794 356.688 266.084C356.648 266.252 356.641 266.426 356.668 266.597C356.695 266.767 356.756 266.93 356.846 267.077C356.937 267.224 357.055 267.352 357.195 267.453C357.335 267.554 357.493 267.626 357.661 267.666L361.966 268.751H361.956ZM407.179 266.637C407.423 267.123 407.844 267.423 408.396 267.423C408.489 267.423 408.583 267.404 408.677 267.385L408.873 267.357L412.934 265.486C413.598 265.177 413.907 264.391 413.598 263.727C413.527 263.567 413.424 263.424 413.297 263.304C413.17 263.185 413.02 263.091 412.857 263.03C412.693 262.968 412.519 262.939 412.345 262.945C412.17 262.95 411.998 262.99 411.839 263.062L407.788 264.877C407.476 265.023 407.234 265.285 407.114 265.607C406.992 265.972 407.058 266.328 407.179 266.637ZM349.053 265.542C349.109 265.607 349.24 265.607 349.352 265.607C349.642 265.609 349.924 265.514 350.155 265.338C350.385 265.162 350.55 264.914 350.625 264.634C350.812 263.97 350.382 263.24 349.661 263.062L345.357 261.967C345.291 261.911 345.17 261.911 345.048 261.911C344.754 261.885 344.461 261.97 344.226 262.148C343.991 262.326 343.83 262.585 343.775 262.875C343.654 263.174 343.719 263.539 343.897 263.848C344.084 264.148 344.384 264.391 344.739 264.456L349.043 265.542H349.053ZM336.14 262.332C336.196 262.388 336.327 262.388 336.439 262.388C337.048 262.388 337.534 261.967 337.712 261.425C337.767 261.264 337.784 261.093 337.763 260.924C337.742 260.756 337.683 260.594 337.59 260.452C337.502 260.296 337.381 260.161 337.235 260.056C337.09 259.951 336.924 259.879 336.748 259.843L332.444 258.758C332.378 258.693 332.257 258.692 332.135 258.692C331.536 258.636 331.05 259.057 330.863 259.666C330.784 260.003 330.842 260.358 331.025 260.653C331.207 260.947 331.499 261.158 331.836 261.238L336.14 262.332ZM419.297 261.06C419.54 261.546 419.961 261.846 420.513 261.846C420.691 261.846 420.869 261.79 421.056 261.724L425.117 259.909C425.781 259.6 426.09 258.814 425.781 258.15C425.676 257.915 425.506 257.716 425.29 257.577C425.074 257.437 424.822 257.363 424.565 257.364C424.387 257.364 424.209 257.42 424.032 257.485L419.961 259.301C419.641 259.447 419.393 259.715 419.27 260.045C419.147 260.375 419.16 260.74 419.306 261.06H419.297ZM323.171 259.123C323.227 259.179 323.358 259.179 323.47 259.179C324.135 259.179 324.621 258.758 324.743 258.206C324.822 257.87 324.765 257.516 324.585 257.222C324.404 256.927 324.115 256.716 323.779 256.634L319.475 255.539C319.409 255.483 319.288 255.483 319.166 255.483C318.872 255.457 318.579 255.541 318.344 255.719C318.109 255.898 317.948 256.157 317.894 256.447C317.772 256.756 317.837 257.121 318.015 257.42C318.202 257.729 318.502 257.963 318.857 258.028L323.162 259.123H323.171ZM431.358 255.539C431.602 256.026 432.023 256.325 432.575 256.325C432.762 256.325 432.94 256.269 433.061 256.204L437.122 254.388C437.442 254.242 437.691 253.974 437.814 253.644C437.936 253.314 437.923 252.949 437.777 252.629C437.706 252.471 437.603 252.329 437.477 252.21C437.35 252.092 437.201 251.999 437.038 251.939C436.876 251.878 436.703 251.85 436.529 251.856C436.356 251.862 436.185 251.902 436.027 251.974L431.966 253.78C431.658 253.927 431.42 254.189 431.302 254.51C431.18 254.875 431.237 255.24 431.358 255.539ZM310.258 255.904C310.314 255.97 310.445 255.97 310.558 255.97C311.166 255.97 311.718 255.595 311.84 255.062C311.896 254.688 311.839 254.332 311.652 254.033C311.465 253.724 311.231 253.481 310.866 253.425L306.562 252.33C306.506 252.274 306.375 252.274 306.263 252.274C305.654 252.274 305.168 252.629 304.981 253.237C304.868 253.546 304.925 253.902 305.102 254.211C305.289 254.51 305.589 254.753 305.954 254.819L310.258 255.904ZM443.485 250.028C443.728 250.515 444.15 250.814 444.702 250.814C444.842 250.814 444.982 250.777 445.16 250.73L445.3 250.692L449.361 248.877C449.661 248.755 449.904 248.447 450.026 248.147C450.13 247.808 450.11 247.444 449.97 247.118C449.865 246.883 449.694 246.684 449.478 246.545C449.262 246.405 449.01 246.331 448.753 246.332C448.575 246.332 448.398 246.388 448.211 246.454L444.15 248.269C443.99 248.341 443.847 248.443 443.727 248.57C443.608 248.698 443.514 248.847 443.453 249.011C443.391 249.174 443.362 249.348 443.368 249.523C443.373 249.697 443.413 249.869 443.485 250.028ZM455.425 243.965C455.425 244.694 456.033 245.237 456.754 245.237C456.941 245.237 457.128 245.237 457.306 245.181L461.367 243.356C462.022 243.057 462.33 242.271 462.022 241.597C461.917 241.364 461.748 241.166 461.534 241.027C461.32 240.887 461.07 240.812 460.815 240.811C460.637 240.811 460.45 240.877 460.272 240.933L456.211 242.748C455.724 242.992 455.425 243.422 455.425 243.965ZM467.664 238.931C467.907 239.417 468.338 239.717 468.88 239.717C469.068 239.717 469.245 239.66 469.423 239.595L473.484 237.78C474.158 237.48 474.457 236.694 474.158 236.021C473.849 235.366 473.063 235.057 472.399 235.366L468.338 237.171C468.178 237.242 468.033 237.344 467.913 237.471C467.792 237.598 467.698 237.748 467.635 237.911C467.573 238.074 467.543 238.249 467.548 238.424C467.553 238.599 467.592 238.771 467.664 238.931ZM480.09 234.327C480.212 234.935 480.764 235.356 481.363 235.356C481.428 235.356 481.55 235.356 481.606 235.422L485.976 234.57C486.284 234.507 486.56 234.34 486.758 234.096C486.956 233.852 487.063 233.546 487.061 233.232C487.064 233.057 487.031 232.883 486.965 232.721C486.899 232.558 486.802 232.411 486.678 232.287C486.554 232.163 486.406 232.065 486.244 232C486.082 231.934 485.908 231.901 485.733 231.904H485.489L481.12 232.811C480.764 232.867 480.465 233.054 480.277 233.354C480.09 233.597 480.034 233.962 480.09 234.327ZM493.125 231.716C493.246 232.325 493.789 232.746 494.397 232.746H494.641L499.001 231.838C499.375 231.782 499.665 231.595 499.843 231.295C500.03 231.052 500.096 230.687 500.03 230.322C499.968 230.031 499.808 229.77 499.576 229.582C499.345 229.395 499.056 229.293 498.758 229.293H498.515L494.154 230.201C493.789 230.266 493.49 230.444 493.312 230.753C493.125 230.996 493.069 231.351 493.125 231.716ZM506.103 229.05C506.281 229.658 506.824 230.079 507.432 230.079C507.554 230.079 507.619 230.079 507.731 230.144L512.092 229.237C512.7 229.115 513.121 228.572 513.121 227.964C513.121 227.234 512.522 226.626 511.792 226.626H511.549L507.123 227.534C506.758 227.599 506.459 227.777 506.281 228.086C506.094 228.329 506.038 228.685 506.094 229.05H506.103ZM519.184 226.14C519.184 226.869 519.793 227.478 520.523 227.478C520.579 227.478 520.71 227.478 520.822 227.412L525.192 226.505C525.547 226.448 525.847 226.261 526.034 225.962C526.221 225.662 526.277 225.354 526.221 224.989C526.034 224.381 525.491 223.959 524.883 223.959H524.64L520.279 224.802C519.974 224.87 519.7 225.04 519.501 225.282C519.303 225.525 519.191 225.826 519.184 226.14Z" fill="#0081F1"/>
</g>
<g filter="url(#filter2_f_1_80)">
<path d="M66.3174 212.778L123.003 170.597L210.829 199.51L299.685 253.097L299.619 249.579L213.795 197.872C213.647 197.765 213.483 197.683 213.309 197.629L123.546 168.117C123.174 167.999 122.785 167.939 122.395 167.939C121.787 167.939 121.178 168.061 120.636 168.426L66.3174 208.783V212.778Z" fill="#0081F1"/>
</g>
<path d="M387.782 275.18C387.838 275.245 387.969 275.245 388.081 275.245C388.746 275.245 389.232 274.815 389.354 274.272C389.433 273.936 389.376 273.582 389.196 273.288C389.015 272.993 388.726 272.782 388.39 272.7L384.086 271.605C384.021 271.549 383.899 271.549 383.777 271.549C383.483 271.523 383.19 271.607 382.955 271.785C382.72 271.964 382.559 272.223 382.505 272.513C382.383 272.812 382.448 273.177 382.626 273.486C382.813 273.785 383.113 274.029 383.478 274.094L387.782 275.18ZM395.118 272.148C395.361 272.634 395.773 272.934 396.335 272.934C396.475 272.934 396.615 272.896 396.793 272.85L396.933 272.822L400.994 270.997C401.294 270.875 401.537 270.576 401.659 270.267C401.762 269.928 401.743 269.563 401.603 269.238C401.498 269.003 401.327 268.804 401.111 268.665C400.895 268.525 400.643 268.451 400.386 268.452C400.199 268.452 400.031 268.508 399.843 268.574L395.782 270.389C395.118 270.698 394.809 271.484 395.118 272.148ZM374.869 271.97C374.935 272.026 375.056 272.026 375.178 272.026C375.777 272.026 376.329 271.605 376.451 270.997C376.572 270.698 376.507 270.333 376.329 270.033C376.142 269.724 375.842 269.481 375.477 269.425L371.173 268.33C371.117 268.274 370.986 268.274 370.874 268.274C370.266 268.274 369.723 268.695 369.601 269.303C369.522 269.64 369.579 269.993 369.76 270.288C369.94 270.582 370.23 270.793 370.565 270.875L374.869 271.97ZM361.956 268.751C362.022 268.817 362.143 268.817 362.265 268.817C362.873 268.817 363.416 268.396 363.538 267.788C363.578 267.62 363.585 267.446 363.558 267.275C363.531 267.105 363.47 266.942 363.38 266.795C363.289 266.648 363.171 266.52 363.031 266.419C362.891 266.318 362.732 266.246 362.565 266.206L358.26 265.121C358.204 265.055 358.073 265.055 357.961 265.055C357.663 265.057 357.375 265.16 357.144 265.347C356.913 265.534 356.752 265.794 356.688 266.085C356.648 266.252 356.641 266.426 356.668 266.597C356.695 266.767 356.756 266.93 356.846 267.077C356.937 267.224 357.055 267.352 357.195 267.453C357.335 267.554 357.493 267.626 357.661 267.666L361.966 268.751H361.956ZM407.179 266.637C407.423 267.123 407.844 267.423 408.396 267.423C408.489 267.423 408.583 267.404 408.677 267.385L408.873 267.357L412.934 265.486C413.598 265.177 413.907 264.391 413.598 263.727C413.527 263.567 413.424 263.424 413.297 263.304C413.17 263.185 413.02 263.091 412.857 263.03C412.693 262.968 412.519 262.939 412.345 262.945C412.17 262.95 411.998 262.99 411.839 263.062L407.788 264.878C407.476 265.023 407.234 265.285 407.114 265.607C406.992 265.972 407.058 266.328 407.179 266.637ZM349.053 265.542C349.109 265.607 349.24 265.607 349.352 265.607C349.642 265.609 349.924 265.514 350.155 265.338C350.385 265.162 350.55 264.914 350.625 264.634C350.812 263.97 350.382 263.24 349.661 263.062L345.357 261.968C345.291 261.911 345.17 261.911 345.048 261.911C344.754 261.885 344.461 261.97 344.226 262.148C343.991 262.326 343.83 262.585 343.775 262.875C343.654 263.175 343.719 263.539 343.897 263.848C344.084 264.148 344.384 264.391 344.739 264.456L349.043 265.542H349.053ZM336.14 262.332C336.196 262.389 336.327 262.389 336.439 262.389C337.048 262.389 337.534 261.968 337.712 261.425C337.767 261.264 337.784 261.093 337.763 260.924C337.742 260.756 337.683 260.594 337.59 260.452C337.502 260.296 337.38 260.161 337.235 260.056C337.09 259.951 336.924 259.879 336.748 259.843L332.444 258.758C332.378 258.693 332.257 258.693 332.135 258.693C331.536 258.636 331.05 259.057 330.863 259.666C330.784 260.003 330.842 260.358 331.025 260.653C331.207 260.947 331.499 261.158 331.836 261.238L336.14 262.332ZM419.297 261.06C419.54 261.546 419.961 261.846 420.513 261.846C420.691 261.846 420.869 261.79 421.056 261.724L425.117 259.909C425.781 259.6 426.09 258.814 425.781 258.15C425.676 257.915 425.506 257.716 425.29 257.577C425.074 257.437 424.822 257.363 424.565 257.364C424.387 257.364 424.209 257.42 424.032 257.486L419.961 259.301C419.641 259.447 419.393 259.715 419.27 260.045C419.147 260.375 419.16 260.74 419.306 261.06H419.297ZM323.171 259.123C323.227 259.179 323.358 259.179 323.47 259.179C324.135 259.179 324.621 258.758 324.743 258.206C324.822 257.87 324.765 257.516 324.585 257.222C324.404 256.927 324.115 256.716 323.779 256.634L319.475 255.539C319.409 255.483 319.288 255.483 319.166 255.483C318.872 255.457 318.579 255.541 318.344 255.72C318.109 255.898 317.948 256.157 317.894 256.447C317.772 256.756 317.837 257.121 318.015 257.42C318.202 257.729 318.502 257.963 318.857 258.028L323.162 259.123H323.171ZM431.358 255.539C431.602 256.026 432.023 256.325 432.575 256.325C432.762 256.325 432.94 256.269 433.061 256.204L437.122 254.388C437.442 254.242 437.691 253.974 437.814 253.644C437.936 253.314 437.923 252.949 437.777 252.629C437.706 252.471 437.603 252.329 437.477 252.21C437.35 252.092 437.201 252 437.038 251.939C436.876 251.878 436.703 251.85 436.529 251.856C436.356 251.862 436.185 251.902 436.027 251.974L431.966 253.78C431.658 253.928 431.42 254.189 431.302 254.51C431.18 254.875 431.237 255.24 431.358 255.539ZM310.258 255.904C310.314 255.97 310.445 255.97 310.558 255.97C311.166 255.97 311.718 255.595 311.84 255.062C311.896 254.688 311.839 254.332 311.652 254.033C311.465 253.724 311.231 253.481 310.866 253.425L306.562 252.33C306.506 252.274 306.375 252.274 306.263 252.274C305.654 252.274 305.168 252.629 304.981 253.237C304.868 253.546 304.925 253.902 305.102 254.211C305.289 254.51 305.589 254.753 305.954 254.819L310.258 255.904ZM443.485 250.028C443.728 250.515 444.15 250.814 444.702 250.814C444.842 250.814 444.982 250.777 445.16 250.73L445.3 250.692L449.361 248.877C449.661 248.755 449.904 248.447 450.026 248.147C450.129 247.808 450.11 247.444 449.97 247.118C449.865 246.883 449.694 246.684 449.478 246.545C449.262 246.405 449.01 246.331 448.753 246.332C448.575 246.332 448.398 246.388 448.211 246.454L444.15 248.269C443.99 248.341 443.847 248.443 443.727 248.57C443.608 248.698 443.514 248.847 443.453 249.011C443.391 249.174 443.362 249.348 443.368 249.523C443.373 249.697 443.413 249.869 443.485 250.028ZM455.425 243.965C455.425 244.695 456.033 245.237 456.754 245.237C456.941 245.237 457.128 245.237 457.306 245.181L461.367 243.357C462.022 243.057 462.33 242.271 462.022 241.597C461.917 241.364 461.748 241.166 461.534 241.027C461.32 240.887 461.07 240.813 460.815 240.811C460.637 240.811 460.45 240.877 460.272 240.933L456.211 242.748C455.724 242.992 455.425 243.422 455.425 243.965ZM467.664 238.931C467.907 239.417 468.338 239.717 468.88 239.717C469.068 239.717 469.245 239.661 469.423 239.595L473.484 237.78C474.158 237.48 474.457 236.694 474.158 236.021C473.849 235.366 473.063 235.057 472.399 235.366L468.338 237.172C468.178 237.243 468.033 237.344 467.913 237.471C467.792 237.598 467.698 237.748 467.635 237.911C467.573 238.075 467.543 238.249 467.548 238.424C467.553 238.599 467.592 238.771 467.664 238.931ZM480.09 234.327C480.212 234.935 480.764 235.356 481.363 235.356C481.428 235.356 481.55 235.356 481.606 235.422L485.976 234.57C486.284 234.508 486.56 234.34 486.758 234.096C486.956 233.852 487.063 233.547 487.061 233.232C487.064 233.057 487.031 232.883 486.965 232.721C486.899 232.559 486.802 232.411 486.678 232.287C486.554 232.163 486.406 232.065 486.244 232C486.082 231.934 485.908 231.901 485.733 231.904H485.489L481.12 232.811C480.764 232.867 480.465 233.055 480.277 233.354C480.09 233.597 480.034 233.962 480.09 234.327ZM493.125 231.716C493.246 232.325 493.789 232.746 494.397 232.746H494.641L499.001 231.838C499.375 231.782 499.665 231.595 499.843 231.295C500.03 231.052 500.096 230.687 500.03 230.322C499.968 230.031 499.808 229.77 499.576 229.582C499.345 229.395 499.056 229.293 498.758 229.293H498.514L494.154 230.201C493.789 230.266 493.49 230.444 493.312 230.753C493.125 230.996 493.069 231.352 493.125 231.716ZM506.103 229.05C506.281 229.658 506.824 230.079 507.432 230.079C507.553 230.079 507.619 230.079 507.731 230.145L512.092 229.237C512.7 229.115 513.121 228.573 513.121 227.964C513.121 227.234 512.522 226.626 511.792 226.626H511.549L507.123 227.534C506.758 227.599 506.459 227.777 506.281 228.086C506.094 228.329 506.038 228.685 506.094 229.05H506.103ZM519.184 226.14C519.184 226.87 519.793 227.478 520.522 227.478C520.579 227.478 520.71 227.478 520.822 227.412L525.192 226.505C525.547 226.449 525.847 226.261 526.034 225.962C526.221 225.663 526.277 225.354 526.221 224.989C526.034 224.381 525.491 223.96 524.883 223.96H524.64L520.279 224.802C519.974 224.871 519.7 225.04 519.501 225.282C519.303 225.525 519.191 225.827 519.184 226.14ZM66.3174 212.778L123.003 170.597L210.829 199.51L299.685 253.097L299.619 249.579L213.795 197.872C213.647 197.765 213.483 197.683 213.309 197.629L123.546 168.117C123.174 167.999 122.785 167.939 122.395 167.939C121.787 167.939 121.178 168.061 120.636 168.426L66.3174 208.783V212.778Z" fill="#0081F1"/>
</g>
<g filter="url(#filter3_dd_1_80)">
<path d="M176.5 110.22C176.5 106.906 179.186 104.22 182.5 104.22H410.5C413.814 104.22 416.5 106.906 416.5 110.22V162.22C416.5 165.533 413.814 168.22 410.5 168.22H182.5C179.186 168.22 176.5 165.533 176.5 162.22V110.22Z" fill="#27272A"/>
<path d="M225.323 116.889H223.894C223.839 116.583 223.736 116.315 223.587 116.083C223.437 115.85 223.254 115.653 223.037 115.492C222.82 115.33 222.577 115.208 222.309 115.125C222.043 115.043 221.76 115.001 221.461 115.001C220.921 115.001 220.437 115.137 220.009 115.409C219.585 115.681 219.249 116.08 219.001 116.605C218.757 117.13 218.635 117.771 218.635 118.529C218.635 119.292 218.757 119.937 219.001 120.462C219.249 120.987 219.586 121.384 220.014 121.653C220.441 121.922 220.922 122.056 221.457 122.056C221.753 122.056 222.034 122.016 222.3 121.937C222.568 121.855 222.811 121.734 223.028 121.575C223.245 121.416 223.428 121.222 223.578 120.993C223.73 120.761 223.836 120.496 223.894 120.196L225.323 120.201C225.247 120.662 225.098 121.087 224.879 121.474C224.662 121.859 224.382 122.192 224.04 122.473C223.701 122.751 223.313 122.966 222.877 123.119C222.44 123.272 221.964 123.348 221.447 123.348C220.635 123.348 219.911 123.156 219.276 122.771C218.641 122.383 218.14 121.829 217.774 121.108C217.41 120.387 217.228 119.527 217.228 118.529C217.228 117.527 217.412 116.667 217.778 115.95C218.145 115.229 218.645 114.676 219.281 114.291C219.916 113.904 220.638 113.71 221.447 113.71C221.945 113.71 222.409 113.781 222.84 113.925C223.274 114.065 223.663 114.273 224.008 114.548C224.353 114.82 224.639 115.153 224.865 115.547C225.091 115.938 225.244 116.385 225.323 116.889ZM226.907 123.22V116.183H228.231V117.301H228.304C228.432 116.922 228.658 116.625 228.982 116.408C229.309 116.188 229.678 116.078 230.091 116.078C230.176 116.078 230.277 116.081 230.393 116.087C230.512 116.093 230.605 116.101 230.672 116.11V117.42C230.617 117.405 230.52 117.388 230.379 117.37C230.239 117.348 230.098 117.338 229.958 117.338C229.634 117.338 229.345 117.406 229.092 117.544C228.842 117.678 228.643 117.866 228.496 118.107C228.35 118.346 228.277 118.617 228.277 118.923V123.22H226.907ZM231.858 123.22V116.183H233.227V123.22H231.858ZM232.549 115.098C232.311 115.098 232.107 115.018 231.936 114.859C231.768 114.698 231.684 114.505 231.684 114.282C231.684 114.056 231.768 113.864 231.936 113.705C232.107 113.543 232.311 113.462 232.549 113.462C232.788 113.462 232.991 113.543 233.159 113.705C233.33 113.864 233.415 114.056 233.415 114.282C233.415 114.505 233.33 114.698 233.159 114.859C232.991 115.018 232.788 115.098 232.549 115.098ZM238.355 116.183V117.283H234.511V116.183H238.355ZM235.542 114.498H236.912V121.154C236.912 121.419 236.951 121.619 237.031 121.754C237.11 121.885 237.212 121.975 237.338 122.024C237.466 122.07 237.605 122.093 237.755 122.093C237.864 122.093 237.961 122.085 238.043 122.07C238.126 122.055 238.19 122.042 238.236 122.033L238.483 123.165C238.404 123.195 238.291 123.226 238.144 123.256C237.997 123.29 237.814 123.308 237.594 123.311C237.234 123.317 236.898 123.253 236.586 123.119C236.275 122.985 236.023 122.777 235.831 122.496C235.638 122.215 235.542 121.862 235.542 121.438V114.498ZM239.87 123.22V116.183H241.24V123.22H239.87ZM240.562 115.098C240.323 115.098 240.119 115.018 239.948 114.859C239.78 114.698 239.696 114.505 239.696 114.282C239.696 114.056 239.78 113.864 239.948 113.705C240.119 113.543 240.323 113.462 240.562 113.462C240.8 113.462 241.003 113.543 241.171 113.705C241.342 113.864 241.427 114.056 241.427 114.282C241.427 114.505 241.342 114.698 241.171 114.859C241.003 115.018 240.8 115.098 240.562 115.098ZM246.046 123.362C245.365 123.362 244.779 123.208 244.287 122.899C243.798 122.588 243.423 122.158 243.16 121.612C242.897 121.065 242.766 120.439 242.766 119.734C242.766 119.019 242.9 118.388 243.169 117.842C243.438 117.292 243.817 116.863 244.305 116.554C244.794 116.246 245.37 116.092 246.032 116.092C246.567 116.092 247.043 116.191 247.462 116.39C247.88 116.585 248.217 116.86 248.474 117.214C248.734 117.568 248.888 117.982 248.937 118.456H247.604C247.53 118.126 247.362 117.842 247.1 117.603C246.84 117.365 246.492 117.246 246.055 117.246C245.674 117.246 245.339 117.347 245.052 117.548C244.768 117.747 244.547 118.031 244.388 118.401C244.229 118.767 244.15 119.201 244.15 119.702C244.15 120.215 244.227 120.657 244.383 121.03C244.539 121.403 244.759 121.691 245.043 121.896C245.33 122.1 245.667 122.203 246.055 122.203C246.315 122.203 246.55 122.155 246.761 122.061C246.974 121.963 247.153 121.824 247.297 121.644C247.443 121.464 247.546 121.247 247.604 120.993H248.937C248.888 121.448 248.74 121.855 248.492 122.212C248.245 122.569 247.914 122.85 247.498 123.055C247.086 123.259 246.602 123.362 246.046 123.362ZM252.449 123.375C252.003 123.375 251.6 123.293 251.24 123.128C250.879 122.96 250.594 122.717 250.383 122.4C250.175 122.082 250.072 121.693 250.072 121.232C250.072 120.835 250.148 120.508 250.301 120.251C250.453 119.995 250.659 119.792 250.919 119.642C251.179 119.492 251.469 119.379 251.789 119.303C252.11 119.227 252.437 119.169 252.77 119.129C253.191 119.08 253.533 119.04 253.796 119.01C254.059 118.976 254.249 118.923 254.369 118.849C254.488 118.776 254.547 118.657 254.547 118.492V118.46C254.547 118.06 254.434 117.75 254.208 117.53C253.985 117.31 253.652 117.2 253.21 117.2C252.748 117.2 252.385 117.303 252.119 117.507C251.857 117.709 251.675 117.933 251.574 118.181L250.287 117.887C250.44 117.46 250.663 117.115 250.956 116.852C251.252 116.586 251.592 116.394 251.977 116.275C252.362 116.153 252.767 116.092 253.191 116.092C253.472 116.092 253.77 116.125 254.085 116.193C254.402 116.257 254.698 116.376 254.973 116.55C255.251 116.724 255.479 116.973 255.656 117.297C255.833 117.617 255.922 118.034 255.922 118.547V123.22H254.584V122.258H254.529C254.44 122.435 254.307 122.609 254.13 122.78C253.953 122.951 253.726 123.093 253.448 123.206C253.17 123.319 252.837 123.375 252.449 123.375ZM252.747 122.276C253.126 122.276 253.449 122.201 253.718 122.052C253.99 121.902 254.196 121.706 254.336 121.465C254.48 121.221 254.552 120.96 254.552 120.682V119.775C254.503 119.824 254.408 119.87 254.268 119.912C254.13 119.952 253.973 119.987 253.796 120.018C253.619 120.045 253.446 120.071 253.278 120.096C253.11 120.117 252.97 120.135 252.857 120.15C252.591 120.184 252.348 120.241 252.128 120.32C251.912 120.399 251.738 120.514 251.606 120.664C251.478 120.81 251.414 121.006 251.414 121.25C251.414 121.589 251.539 121.845 251.789 122.02C252.04 122.191 252.359 122.276 252.747 122.276ZM259.116 113.838V123.22H257.746V113.838H259.116ZM264.482 123.22V113.838H265.852V117.324H265.934C266.014 117.177 266.128 117.008 266.278 116.816C266.428 116.623 266.635 116.455 266.901 116.312C267.167 116.165 267.518 116.092 267.955 116.092C268.523 116.092 269.03 116.235 269.475 116.522C269.921 116.809 270.271 117.223 270.524 117.764C270.781 118.304 270.909 118.955 270.909 119.715C270.909 120.476 270.783 121.128 270.529 121.671C270.276 122.212 269.927 122.629 269.485 122.922C269.042 123.212 268.536 123.357 267.968 123.357C267.541 123.357 267.191 123.285 266.919 123.142C266.651 122.998 266.44 122.83 266.287 122.638C266.134 122.446 266.017 122.275 265.934 122.125H265.82V123.22H264.482ZM265.824 119.702C265.824 120.196 265.896 120.63 266.04 121.003C266.183 121.375 266.391 121.667 266.663 121.878C266.935 122.085 267.267 122.189 267.661 122.189C268.071 122.189 268.413 122.081 268.688 121.864C268.962 121.644 269.17 121.346 269.311 120.97C269.454 120.595 269.526 120.172 269.526 119.702C269.526 119.237 269.456 118.82 269.315 118.451C269.178 118.081 268.97 117.79 268.692 117.576C268.417 117.362 268.074 117.255 267.661 117.255C267.264 117.255 266.928 117.358 266.654 117.562C266.382 117.767 266.176 118.052 266.035 118.419C265.895 118.785 265.824 119.213 265.824 119.702ZM274.495 123.375C274.049 123.375 273.646 123.293 273.286 123.128C272.925 122.96 272.64 122.717 272.429 122.4C272.221 122.082 272.118 121.693 272.118 121.232C272.118 120.835 272.194 120.508 272.347 120.251C272.499 119.995 272.705 119.792 272.965 119.642C273.225 119.492 273.515 119.379 273.835 119.303C274.156 119.227 274.483 119.169 274.816 119.129C275.237 119.08 275.579 119.04 275.842 119.01C276.104 118.976 276.295 118.923 276.414 118.849C276.534 118.776 276.593 118.657 276.593 118.492V118.46C276.593 118.06 276.48 117.75 276.254 117.53C276.031 117.31 275.698 117.2 275.255 117.2C274.794 117.2 274.431 117.303 274.165 117.507C273.903 117.709 273.721 117.933 273.62 118.181L272.333 117.887C272.486 117.46 272.708 117.115 273.002 116.852C273.298 116.586 273.638 116.394 274.023 116.275C274.408 116.153 274.813 116.092 275.237 116.092C275.518 116.092 275.816 116.125 276.13 116.193C276.448 116.257 276.744 116.376 277.019 116.55C277.297 116.724 277.525 116.973 277.702 117.297C277.879 117.617 277.967 118.034 277.967 118.547V123.22H276.63V122.258H276.575C276.486 122.435 276.353 122.609 276.176 122.78C275.999 122.951 275.772 123.093 275.494 123.206C275.216 123.319 274.883 123.375 274.495 123.375ZM274.793 122.276C275.171 122.276 275.495 122.201 275.764 122.052C276.036 121.902 276.242 121.706 276.382 121.465C276.526 121.221 276.598 120.96 276.598 120.682V119.775C276.549 119.824 276.454 119.87 276.314 119.912C276.176 119.952 276.019 119.987 275.842 120.018C275.665 120.045 275.492 120.071 275.324 120.096C275.156 120.117 275.016 120.135 274.903 120.15C274.637 120.184 274.394 120.241 274.174 120.32C273.958 120.399 273.783 120.514 273.652 120.664C273.524 120.81 273.46 121.006 273.46 121.25C273.46 121.589 273.585 121.845 273.835 122.02C274.086 122.191 274.405 122.276 274.793 122.276ZM281.161 113.838V123.22H279.792V113.838H281.161ZM285.052 123.375C284.606 123.375 284.203 123.293 283.842 123.128C283.482 122.96 283.197 122.717 282.986 122.4C282.778 122.082 282.674 121.693 282.674 121.232C282.674 120.835 282.751 120.508 282.903 120.251C283.056 119.995 283.262 119.792 283.522 119.642C283.781 119.492 284.072 119.379 284.392 119.303C284.713 119.227 285.04 119.169 285.373 119.129C285.794 119.08 286.136 119.04 286.399 119.01C286.661 118.976 286.852 118.923 286.971 118.849C287.09 118.776 287.15 118.657 287.15 118.492V118.46C287.15 118.06 287.037 117.75 286.811 117.53C286.588 117.31 286.255 117.2 285.812 117.2C285.351 117.2 284.988 117.303 284.722 117.507C284.459 117.709 284.278 117.933 284.177 118.181L282.89 117.887C283.042 117.46 283.265 117.115 283.558 116.852C283.855 116.586 284.195 116.394 284.58 116.275C284.965 116.153 285.369 116.092 285.794 116.092C286.075 116.092 286.373 116.125 286.687 116.193C287.005 116.257 287.301 116.376 287.576 116.55C287.854 116.724 288.081 116.973 288.259 117.297C288.436 117.617 288.524 118.034 288.524 118.547V123.22H287.187V122.258H287.132C287.043 122.435 286.91 122.609 286.733 122.78C286.556 122.951 286.328 123.093 286.051 123.206C285.773 123.319 285.44 123.375 285.052 123.375ZM285.35 122.276C285.728 122.276 286.052 122.201 286.321 122.052C286.593 121.902 286.799 121.706 286.939 121.465C287.083 121.221 287.155 120.96 287.155 120.682V119.775C287.106 119.824 287.011 119.87 286.871 119.912C286.733 119.952 286.576 119.987 286.399 120.018C286.222 120.045 286.049 120.071 285.881 120.096C285.713 120.117 285.573 120.135 285.46 120.15C285.194 120.184 284.951 120.241 284.731 120.32C284.514 120.399 284.34 120.514 284.209 120.664C284.081 120.81 284.017 121.006 284.017 121.25C284.017 121.589 284.142 121.845 284.392 122.02C284.643 122.191 284.962 122.276 285.35 122.276ZM291.718 119.042V123.22H290.349V116.183H291.663V117.329H291.75C291.912 116.956 292.166 116.657 292.511 116.431C292.859 116.205 293.297 116.092 293.826 116.092C294.305 116.092 294.725 116.193 295.085 116.394C295.446 116.593 295.725 116.889 295.924 117.283C296.122 117.677 296.221 118.164 296.221 118.744V123.22H294.852V118.909C294.852 118.399 294.719 118 294.453 117.713C294.187 117.423 293.823 117.278 293.358 117.278C293.041 117.278 292.758 117.347 292.511 117.484C292.267 117.622 292.073 117.823 291.929 118.089C291.789 118.352 291.718 118.669 291.718 119.042ZM301.022 123.362C300.341 123.362 299.755 123.208 299.263 122.899C298.775 122.588 298.399 122.158 298.136 121.612C297.874 121.065 297.742 120.439 297.742 119.734C297.742 119.019 297.877 118.388 298.145 117.842C298.414 117.292 298.793 116.863 299.281 116.554C299.77 116.246 300.346 116.092 301.009 116.092C301.543 116.092 302.019 116.191 302.438 116.39C302.856 116.585 303.194 116.86 303.45 117.214C303.71 117.568 303.864 117.982 303.913 118.456H302.58C302.506 118.126 302.339 117.842 302.076 117.603C301.816 117.365 301.468 117.246 301.031 117.246C300.65 117.246 300.315 117.347 300.028 117.548C299.744 117.747 299.523 118.031 299.364 118.401C299.205 118.767 299.126 119.201 299.126 119.702C299.126 120.215 299.204 120.657 299.359 121.03C299.515 121.403 299.735 121.691 300.019 121.896C300.306 122.1 300.644 122.203 301.031 122.203C301.291 122.203 301.526 122.155 301.737 122.061C301.951 121.963 302.129 121.824 302.273 121.644C302.419 121.464 302.522 121.247 302.58 120.993H303.913C303.864 121.448 303.716 121.855 303.468 122.212C303.221 122.569 302.89 122.85 302.474 123.055C302.062 123.259 301.578 123.362 301.022 123.362ZM308.41 123.362C307.717 123.362 307.12 123.214 306.619 122.917C306.121 122.618 305.736 122.198 305.465 121.658C305.196 121.114 305.062 120.477 305.062 119.747C305.062 119.027 305.196 118.391 305.465 117.842C305.736 117.292 306.115 116.863 306.601 116.554C307.089 116.246 307.66 116.092 308.314 116.092C308.711 116.092 309.096 116.157 309.468 116.289C309.841 116.42 310.175 116.626 310.472 116.907C310.768 117.188 311.002 117.553 311.173 118.002C311.344 118.448 311.429 118.99 311.429 119.628V120.114H305.836V119.088H310.087C310.087 118.727 310.014 118.408 309.867 118.13C309.72 117.849 309.514 117.628 309.249 117.466C308.986 117.304 308.677 117.223 308.323 117.223C307.938 117.223 307.602 117.318 307.315 117.507C307.031 117.694 306.811 117.938 306.656 118.24C306.503 118.54 306.427 118.865 306.427 119.216V120.018C306.427 120.488 306.509 120.888 306.674 121.218C306.842 121.548 307.076 121.8 307.375 121.974C307.674 122.145 308.024 122.23 308.424 122.23C308.684 122.23 308.92 122.194 309.134 122.12C309.348 122.044 309.533 121.931 309.688 121.781C309.844 121.632 309.963 121.447 310.046 121.227L311.342 121.461C311.238 121.842 311.052 122.177 310.783 122.464C310.517 122.748 310.183 122.969 309.78 123.128C309.38 123.284 308.923 123.362 308.41 123.362ZM318.41 123.375C317.965 123.375 317.561 123.293 317.201 123.128C316.841 122.96 316.555 122.717 316.344 122.4C316.137 122.082 316.033 121.693 316.033 121.232C316.033 120.835 316.109 120.508 316.262 120.251C316.415 119.995 316.621 119.792 316.88 119.642C317.14 119.492 317.43 119.379 317.751 119.303C318.071 119.227 318.398 119.169 318.731 119.129C319.153 119.08 319.495 119.04 319.757 119.01C320.02 118.976 320.211 118.923 320.33 118.849C320.449 118.776 320.509 118.657 320.509 118.492V118.46C320.509 118.06 320.396 117.75 320.17 117.53C319.947 117.31 319.614 117.2 319.171 117.2C318.71 117.2 318.346 117.303 318.081 117.507C317.818 117.709 317.636 117.933 317.535 118.181L316.248 117.887C316.401 117.46 316.624 117.115 316.917 116.852C317.213 116.586 317.554 116.394 317.939 116.275C318.323 116.153 318.728 116.092 319.153 116.092C319.434 116.092 319.731 116.125 320.046 116.193C320.363 116.257 320.66 116.376 320.935 116.55C321.212 116.724 321.44 116.973 321.617 117.297C321.794 117.617 321.883 118.034 321.883 118.547V123.22H320.545V122.258H320.49C320.402 122.435 320.269 122.609 320.092 122.78C319.915 122.951 319.687 123.093 319.409 123.206C319.131 123.319 318.798 123.375 318.41 123.375ZM318.708 122.276C319.087 122.276 319.411 122.201 319.679 122.052C319.951 121.902 320.157 121.706 320.298 121.465C320.441 121.221 320.513 120.96 320.513 120.682V119.775C320.464 119.824 320.37 119.87 320.229 119.912C320.092 119.952 319.934 119.987 319.757 120.018C319.58 120.045 319.408 120.071 319.24 120.096C319.072 120.117 318.931 120.135 318.818 120.15C318.552 120.184 318.31 120.241 318.09 120.32C317.873 120.399 317.699 120.514 317.568 120.664C317.439 120.81 317.375 121.006 317.375 121.25C317.375 121.589 317.5 121.845 317.751 122.02C318.001 122.191 318.32 122.276 318.708 122.276ZM325.077 113.838V123.22H323.707V113.838H325.077ZM329.952 123.362C329.259 123.362 328.662 123.214 328.161 122.917C327.663 122.618 327.278 122.198 327.007 121.658C326.738 121.114 326.604 120.477 326.604 119.747C326.604 119.027 326.738 118.391 327.007 117.842C327.278 117.292 327.657 116.863 328.143 116.554C328.631 116.246 329.202 116.092 329.856 116.092C330.253 116.092 330.638 116.157 331.01 116.289C331.383 116.42 331.717 116.626 332.014 116.907C332.31 117.188 332.543 117.553 332.715 118.002C332.886 118.448 332.971 118.99 332.971 119.628V120.114H327.378V119.088H331.629C331.629 118.727 331.556 118.408 331.409 118.13C331.262 117.849 331.056 117.628 330.791 117.466C330.528 117.304 330.219 117.223 329.865 117.223C329.48 117.223 329.144 117.318 328.857 117.507C328.573 117.694 328.353 117.938 328.198 118.24C328.045 118.54 327.969 118.865 327.969 119.216V120.018C327.969 120.488 328.051 120.888 328.216 121.218C328.384 121.548 328.618 121.8 328.917 121.974C329.216 122.145 329.566 122.23 329.966 122.23C330.226 122.23 330.462 122.194 330.676 122.12C330.89 122.044 331.075 121.931 331.23 121.781C331.386 121.632 331.505 121.447 331.588 121.227L332.884 121.461C332.78 121.842 332.594 122.177 332.325 122.464C332.059 122.748 331.725 122.969 331.322 123.128C330.922 123.284 330.465 123.362 329.952 123.362ZM334.491 123.22V116.183H335.815V117.301H335.888C336.016 116.922 336.242 116.625 336.566 116.408C336.893 116.188 337.262 116.078 337.675 116.078C337.76 116.078 337.861 116.081 337.977 116.087C338.096 116.093 338.189 116.101 338.256 116.11V117.42C338.201 117.405 338.104 117.388 337.963 117.37C337.823 117.348 337.682 117.338 337.542 117.338C337.218 117.338 336.929 117.406 336.676 117.544C336.425 117.678 336.227 117.866 336.08 118.107C335.934 118.346 335.86 118.617 335.86 118.923V123.22H334.491ZM343.142 116.183V117.283H339.299V116.183H343.142ZM340.329 114.498H341.699V121.154C341.699 121.419 341.739 121.619 341.818 121.754C341.897 121.885 342 121.975 342.125 122.024C342.253 122.07 342.392 122.093 342.542 122.093C342.652 122.093 342.748 122.085 342.83 122.07C342.913 122.055 342.977 122.042 343.023 122.033L343.27 123.165C343.191 123.195 343.078 123.226 342.931 123.256C342.785 123.29 342.601 123.308 342.382 123.311C342.021 123.317 341.685 123.253 341.374 123.119C341.062 122.985 340.81 122.777 340.618 122.496C340.425 122.215 340.329 121.862 340.329 121.438V114.498Z" fill="#D4D4D8"/>
<path d="M216.835 133.692H218.156L220.798 138.14H220.91L223.552 133.692H224.874L221.431 139.293V143.22H220.277V139.293L216.835 133.692ZM228.109 143.369C227.464 143.369 226.898 143.215 226.411 142.908C225.927 142.601 225.549 142.171 225.276 141.619C225.006 141.067 224.871 140.422 224.871 139.684C224.871 138.94 225.006 138.29 225.276 137.735C225.549 137.18 225.927 136.749 226.411 136.442C226.898 136.135 227.464 135.981 228.109 135.981C228.754 135.981 229.319 136.135 229.802 136.442C230.289 136.749 230.668 137.18 230.937 137.735C231.21 138.29 231.347 138.94 231.347 139.684C231.347 140.422 231.21 141.067 230.937 141.619C230.668 142.171 230.289 142.601 229.802 142.908C229.319 143.215 228.754 143.369 228.109 143.369ZM228.109 142.382C228.599 142.382 229.002 142.257 229.319 142.006C229.635 141.754 229.869 141.424 230.021 141.015C230.173 140.605 230.249 140.162 230.249 139.684C230.249 139.207 230.173 138.762 230.021 138.349C229.869 137.937 229.635 137.603 229.319 137.349C229.002 137.095 228.599 136.967 228.109 136.967C227.619 136.967 227.216 137.095 226.9 137.349C226.583 137.603 226.349 137.937 226.197 138.349C226.045 138.762 225.969 139.207 225.969 139.684C225.969 140.162 226.045 140.605 226.197 141.015C226.349 141.424 226.583 141.754 226.9 142.006C227.216 142.257 227.619 142.382 228.109 142.382ZM237.526 140.298V136.074H238.624V143.22H237.526V142.01H237.451C237.284 142.373 237.023 142.682 236.67 142.936C236.316 143.187 235.87 143.313 235.33 143.313C234.883 143.313 234.487 143.215 234.139 143.02C233.792 142.821 233.519 142.523 233.32 142.127C233.122 141.726 233.023 141.222 233.023 140.615V136.074H234.121V140.54C234.121 141.061 234.266 141.477 234.558 141.787C234.852 142.097 235.228 142.252 235.684 142.252C235.957 142.252 236.234 142.182 236.516 142.043C236.802 141.903 237.04 141.689 237.233 141.401C237.428 141.112 237.526 140.745 237.526 140.298ZM245.938 143.22L243.761 136.074H244.914L246.459 141.545H246.533L248.059 136.074H249.231L250.739 141.526H250.813L252.358 136.074H253.511L251.334 143.22H250.255L248.692 137.73H248.58L247.017 143.22H245.938ZM254.963 143.22V136.074H256.061V143.22H254.963ZM255.521 134.883C255.307 134.883 255.122 134.81 254.967 134.665C254.815 134.519 254.739 134.344 254.739 134.139C254.739 133.934 254.815 133.759 254.967 133.613C255.122 133.468 255.307 133.395 255.521 133.395C255.735 133.395 255.918 133.468 256.07 133.613C256.225 133.759 256.302 133.934 256.302 134.139C256.302 134.344 256.225 134.519 256.07 134.665C255.918 134.81 255.735 134.883 255.521 134.883ZM259.169 133.692V143.22H258.071V133.692H259.169ZM262.278 133.692V143.22H261.18V133.692H262.278ZM269.071 138.921V143.22H267.973V133.692H269.071V137.191H269.164C269.331 136.822 269.583 136.529 269.918 136.312C270.256 136.091 270.705 135.981 271.267 135.981C271.754 135.981 272.18 136.079 272.546 136.274C272.912 136.467 273.196 136.763 273.397 137.163C273.602 137.56 273.704 138.065 273.704 138.679V143.22H272.606V138.754C272.606 138.186 272.459 137.747 272.165 137.437C271.873 137.124 271.468 136.967 270.95 136.967C270.591 136.967 270.268 137.043 269.983 137.195C269.701 137.347 269.477 137.569 269.313 137.861C269.152 138.152 269.071 138.506 269.071 138.921ZM277.816 143.387C277.363 143.387 276.952 143.302 276.583 143.131C276.214 142.958 275.921 142.708 275.704 142.382C275.486 142.054 275.378 141.657 275.378 141.191C275.378 140.782 275.459 140.45 275.62 140.196C275.781 139.939 275.997 139.737 276.266 139.591C276.536 139.445 276.834 139.337 277.16 139.266C277.488 139.191 277.819 139.132 278.15 139.089C278.585 139.033 278.937 138.991 279.206 138.963C279.479 138.932 279.678 138.881 279.802 138.81C279.929 138.738 279.993 138.614 279.993 138.437V138.4C279.993 137.941 279.867 137.585 279.616 137.33C279.368 137.076 278.991 136.949 278.485 136.949C277.961 136.949 277.55 137.064 277.253 137.293C276.955 137.523 276.746 137.768 276.625 138.028L275.583 137.656C275.769 137.222 276.017 136.884 276.327 136.642C276.64 136.397 276.981 136.226 277.35 136.13C277.722 136.031 278.088 135.981 278.448 135.981C278.678 135.981 278.941 136.009 279.239 136.065C279.54 136.118 279.83 136.228 280.109 136.395C280.391 136.563 280.625 136.815 280.811 137.154C280.997 137.492 281.091 137.944 281.091 138.512V143.22H279.993V142.252H279.937C279.862 142.407 279.738 142.573 279.565 142.75C279.391 142.927 279.16 143.077 278.872 143.201C278.583 143.325 278.231 143.387 277.816 143.387ZM277.983 142.401C278.417 142.401 278.783 142.316 279.081 142.145C279.382 141.975 279.608 141.754 279.76 141.485C279.915 141.215 279.993 140.931 279.993 140.633V139.628C279.946 139.684 279.844 139.735 279.686 139.782C279.531 139.825 279.351 139.864 279.146 139.898C278.944 139.929 278.747 139.957 278.555 139.982C278.366 140.004 278.213 140.022 278.095 140.038C277.809 140.075 277.543 140.135 277.295 140.219C277.05 140.3 276.851 140.422 276.699 140.587C276.55 140.748 276.476 140.968 276.476 141.247C276.476 141.629 276.617 141.917 276.899 142.113C277.184 142.305 277.546 142.401 277.983 142.401ZM288.681 136.074L286.039 143.22H284.923L282.28 136.074H283.471L285.444 141.768H285.518L287.491 136.074H288.681ZM292.871 143.369C292.182 143.369 291.588 143.217 291.089 142.913C290.593 142.606 290.21 142.178 289.94 141.629C289.673 141.077 289.54 140.435 289.54 139.703C289.54 138.971 289.673 138.326 289.94 137.768C290.21 137.206 290.585 136.769 291.066 136.456C291.549 136.139 292.114 135.981 292.759 135.981C293.131 135.981 293.499 136.043 293.861 136.167C294.224 136.291 294.555 136.493 294.852 136.772C295.15 137.048 295.387 137.414 295.564 137.87C295.741 138.326 295.829 138.887 295.829 139.554V140.019H290.321V139.07H294.713C294.713 138.667 294.632 138.307 294.471 137.991C294.313 137.675 294.086 137.425 293.792 137.242C293.5 137.059 293.156 136.967 292.759 136.967C292.322 136.967 291.943 137.076 291.624 137.293C291.307 137.507 291.064 137.786 290.893 138.13C290.723 138.475 290.638 138.844 290.638 139.238V139.87C290.638 140.41 290.731 140.867 290.917 141.243C291.106 141.615 291.368 141.899 291.703 142.094C292.038 142.286 292.427 142.382 292.871 142.382C293.159 142.382 293.419 142.342 293.652 142.261C293.888 142.178 294.091 142.054 294.261 141.889C294.432 141.722 294.564 141.514 294.657 141.266L295.718 141.564C295.606 141.923 295.418 142.24 295.155 142.513C294.891 142.782 294.565 142.993 294.178 143.145C293.79 143.294 293.354 143.369 292.871 143.369ZM302.282 133.692V143.22H301.184V133.692H302.282ZM307.288 143.369C306.6 143.369 306.006 143.217 305.506 142.913C305.01 142.606 304.627 142.178 304.357 141.629C304.091 141.077 303.957 140.435 303.957 139.703C303.957 138.971 304.091 138.326 304.357 137.768C304.627 137.206 305.003 136.769 305.483 136.456C305.967 136.139 306.531 135.981 307.177 135.981C307.549 135.981 307.916 136.043 308.279 136.167C308.642 136.291 308.972 136.493 309.27 136.772C309.568 137.048 309.805 137.414 309.982 137.87C310.158 138.326 310.247 138.887 310.247 139.554V140.019H304.739V139.07H309.13C309.13 138.667 309.05 138.307 308.888 137.991C308.73 137.675 308.504 137.425 308.209 137.242C307.918 137.059 307.574 136.967 307.177 136.967C306.739 136.967 306.361 137.076 306.041 137.293C305.725 137.507 305.482 137.786 305.311 138.13C305.141 138.475 305.055 138.844 305.055 139.238V139.87C305.055 140.41 305.148 140.867 305.334 141.243C305.524 141.615 305.786 141.899 306.121 142.094C306.456 142.286 306.845 142.382 307.288 142.382C307.577 142.382 307.837 142.342 308.07 142.261C308.305 142.178 308.509 142.054 308.679 141.889C308.85 141.722 308.982 141.514 309.075 141.266L310.135 141.564C310.024 141.923 309.836 142.24 309.572 142.513C309.309 142.782 308.983 142.993 308.595 143.145C308.208 143.294 307.772 143.369 307.288 143.369ZM316.978 137.675L315.992 137.954C315.93 137.789 315.839 137.63 315.718 137.475C315.6 137.316 315.438 137.186 315.234 137.084C315.029 136.981 314.767 136.93 314.448 136.93C314.01 136.93 313.646 137.031 313.354 137.233C313.066 137.431 312.922 137.684 312.922 137.991C312.922 138.264 313.021 138.479 313.219 138.638C313.418 138.796 313.728 138.927 314.15 139.033L315.211 139.293C315.849 139.449 316.325 139.686 316.639 140.005C316.952 140.322 317.109 140.729 317.109 141.229C317.109 141.638 316.991 142.004 316.755 142.327C316.522 142.649 316.197 142.903 315.778 143.089C315.359 143.276 314.873 143.369 314.317 143.369C313.589 143.369 312.985 143.21 312.508 142.894C312.03 142.578 311.728 142.116 311.601 141.508L312.643 141.247C312.742 141.632 312.93 141.92 313.206 142.113C313.485 142.305 313.849 142.401 314.299 142.401C314.81 142.401 315.217 142.292 315.518 142.075C315.822 141.855 315.973 141.592 315.973 141.284C315.973 141.036 315.887 140.829 315.713 140.661C315.539 140.491 315.273 140.363 314.913 140.28L313.722 140.001C313.068 139.845 312.587 139.605 312.28 139.279C311.976 138.951 311.824 138.54 311.824 138.047C311.824 137.644 311.937 137.287 312.163 136.977C312.393 136.667 312.705 136.423 313.099 136.246C313.496 136.07 313.945 135.981 314.448 135.981C315.155 135.981 315.71 136.136 316.113 136.446C316.519 136.757 316.808 137.166 316.978 137.675ZM323.823 137.675L322.836 137.954C322.774 137.789 322.683 137.63 322.562 137.475C322.444 137.316 322.283 137.186 322.078 137.084C321.873 136.981 321.611 136.93 321.292 136.93C320.855 136.93 320.49 137.031 320.199 137.233C319.91 137.431 319.766 137.684 319.766 137.991C319.766 138.264 319.865 138.479 320.064 138.638C320.262 138.796 320.572 138.927 320.994 139.033L322.055 139.293C322.694 139.449 323.17 139.686 323.483 140.005C323.796 140.322 323.953 140.729 323.953 141.229C323.953 141.638 323.835 142.004 323.599 142.327C323.367 142.649 323.041 142.903 322.622 143.089C322.204 143.276 321.717 143.369 321.162 143.369C320.433 143.369 319.83 143.21 319.352 142.894C318.874 142.578 318.572 142.116 318.445 141.508L319.487 141.247C319.586 141.632 319.774 141.92 320.05 142.113C320.329 142.305 320.693 142.401 321.143 142.401C321.655 142.401 322.061 142.292 322.362 142.075C322.666 141.855 322.818 141.592 322.818 141.284C322.818 141.036 322.731 140.829 322.557 140.661C322.384 140.491 322.117 140.363 321.757 140.28L320.566 140.001C319.912 139.845 319.431 139.605 319.124 139.279C318.82 138.951 318.668 138.54 318.668 138.047C318.668 137.644 318.781 137.287 319.008 136.977C319.237 136.667 319.549 136.423 319.943 136.246C320.34 136.07 320.789 135.981 321.292 135.981C321.999 135.981 322.554 136.136 322.957 136.446C323.364 136.757 323.652 137.166 323.823 137.675ZM332.397 136.074V137.005H328.694V136.074H332.397ZM329.774 134.362H330.871V141.173C330.871 141.483 330.916 141.716 331.006 141.871C331.099 142.023 331.217 142.125 331.36 142.178C331.506 142.227 331.659 142.252 331.82 142.252C331.941 142.252 332.041 142.246 332.118 142.234C332.196 142.218 332.258 142.206 332.304 142.196L332.528 143.183C332.453 143.21 332.349 143.238 332.216 143.266C332.083 143.297 331.914 143.313 331.709 143.313C331.399 143.313 331.095 143.246 330.797 143.113C330.502 142.979 330.257 142.776 330.062 142.503C329.87 142.23 329.774 141.886 329.774 141.471V134.362ZM335.3 138.921V143.22H334.202V133.692H335.3V137.191H335.393C335.561 136.822 335.812 136.529 336.147 136.312C336.485 136.091 336.935 135.981 337.496 135.981C337.983 135.981 338.409 136.079 338.775 136.274C339.141 136.467 339.425 136.763 339.627 137.163C339.831 137.56 339.934 138.065 339.934 138.679V143.22H338.836V138.754C338.836 138.186 338.688 137.747 338.394 137.437C338.102 137.124 337.697 136.967 337.18 136.967C336.82 136.967 336.497 137.043 336.212 137.195C335.93 137.347 335.706 137.569 335.542 137.861C335.381 138.152 335.3 138.506 335.3 138.921ZM344.045 143.387C343.592 143.387 343.181 143.302 342.812 143.131C342.443 142.958 342.15 142.708 341.933 142.382C341.716 142.054 341.607 141.657 341.607 141.191C341.607 140.782 341.688 140.45 341.849 140.196C342.01 139.939 342.226 139.737 342.496 139.591C342.765 139.445 343.063 139.337 343.389 139.266C343.718 139.191 344.048 139.132 344.38 139.089C344.814 139.033 345.166 138.991 345.436 138.963C345.709 138.932 345.907 138.881 346.031 138.81C346.158 138.738 346.222 138.614 346.222 138.437V138.4C346.222 137.941 346.096 137.585 345.845 137.33C345.597 137.076 345.22 136.949 344.715 136.949C344.191 136.949 343.78 137.064 343.482 137.293C343.184 137.523 342.975 137.768 342.854 138.028L341.812 137.656C341.998 137.222 342.246 136.884 342.556 136.642C342.869 136.397 343.21 136.226 343.58 136.13C343.952 136.031 344.318 135.981 344.677 135.981C344.907 135.981 345.171 136.009 345.468 136.065C345.769 136.118 346.059 136.228 346.338 136.395C346.62 136.563 346.855 136.815 347.041 137.154C347.227 137.492 347.32 137.944 347.32 138.512V143.22H346.222V142.252H346.166C346.092 142.407 345.968 142.573 345.794 142.75C345.62 142.927 345.389 143.077 345.101 143.201C344.812 143.325 344.46 143.387 344.045 143.387ZM344.212 142.401C344.646 142.401 345.012 142.316 345.31 142.145C345.611 141.975 345.837 141.754 345.989 141.485C346.144 141.215 346.222 140.931 346.222 140.633V139.628C346.175 139.684 346.073 139.735 345.915 139.782C345.76 139.825 345.58 139.864 345.375 139.898C345.174 139.929 344.977 139.957 344.784 139.982C344.595 140.004 344.442 140.022 344.324 140.038C344.039 140.075 343.772 140.135 343.524 140.219C343.279 140.3 343.08 140.422 342.928 140.587C342.779 140.748 342.705 140.968 342.705 141.247C342.705 141.629 342.846 141.917 343.128 142.113C343.414 142.305 343.775 142.401 344.212 142.401ZM350.421 138.921V143.22H349.324V136.074H350.384V137.191H350.477C350.645 136.828 350.899 136.536 351.24 136.316C351.581 136.093 352.022 135.981 352.561 135.981C353.045 135.981 353.469 136.08 353.831 136.279C354.194 136.474 354.476 136.772 354.678 137.172C354.88 137.569 354.98 138.072 354.98 138.679V143.22H353.883V138.754C353.883 138.192 353.737 137.755 353.445 137.442C353.154 137.126 352.754 136.967 352.245 136.967C351.895 136.967 351.581 137.043 351.305 137.195C351.032 137.347 350.817 137.569 350.659 137.861C350.501 138.152 350.421 138.506 350.421 138.921ZM363.462 144.411V132.502H364.225V144.411H363.462ZM366.03 136.074C365.974 135.603 365.748 135.237 365.351 134.976C364.954 134.716 364.467 134.586 363.89 134.586C363.468 134.586 363.099 134.654 362.783 134.79C362.47 134.927 362.225 135.114 362.048 135.353C361.874 135.592 361.787 135.863 361.787 136.167C361.787 136.422 361.848 136.64 361.969 136.823C362.093 137.003 362.251 137.154 362.443 137.274C362.636 137.392 362.837 137.49 363.048 137.568C363.259 137.642 363.453 137.702 363.63 137.749L364.597 138.009C364.845 138.075 365.121 138.165 365.425 138.279C365.732 138.394 366.025 138.551 366.305 138.749C366.587 138.945 366.819 139.196 367.002 139.503C367.185 139.81 367.277 140.187 367.277 140.633C367.277 141.148 367.142 141.613 366.872 142.029C366.605 142.444 366.215 142.775 365.7 143.02C365.188 143.265 364.566 143.387 363.834 143.387C363.152 143.387 362.561 143.277 362.062 143.057C361.566 142.837 361.175 142.53 360.89 142.136C360.607 141.742 360.448 141.284 360.41 140.763H361.601C361.632 141.123 361.753 141.421 361.964 141.657C362.178 141.889 362.448 142.063 362.774 142.178C363.102 142.289 363.456 142.345 363.834 142.345C364.275 142.345 364.67 142.274 365.021 142.131C365.371 141.985 365.649 141.784 365.853 141.526C366.058 141.266 366.16 140.962 366.16 140.615C366.16 140.298 366.072 140.041 365.895 139.842C365.718 139.644 365.486 139.483 365.197 139.359C364.909 139.235 364.597 139.126 364.262 139.033L363.09 138.698C362.346 138.484 361.756 138.179 361.322 137.782C360.888 137.385 360.671 136.865 360.671 136.223C360.671 135.69 360.815 135.225 361.104 134.828C361.395 134.427 361.786 134.117 362.276 133.897C362.769 133.674 363.319 133.562 363.927 133.562C364.541 133.562 365.087 133.672 365.565 133.892C366.042 134.11 366.421 134.407 366.7 134.786C366.982 135.164 367.131 135.594 367.147 136.074H366.03ZM369.006 143.22V142.382L372.151 138.94C372.52 138.537 372.824 138.186 373.063 137.889C373.301 137.588 373.478 137.305 373.593 137.042C373.711 136.775 373.77 136.496 373.77 136.205C373.77 135.87 373.689 135.58 373.528 135.335C373.37 135.09 373.153 134.9 372.877 134.767C372.601 134.634 372.29 134.567 371.946 134.567C371.58 134.567 371.261 134.643 370.988 134.795C370.718 134.944 370.509 135.153 370.36 135.423C370.214 135.693 370.141 136.009 370.141 136.372H369.043C369.043 135.814 369.172 135.324 369.429 134.902C369.687 134.48 370.037 134.151 370.481 133.916C370.927 133.68 371.428 133.562 371.983 133.562C372.542 133.562 373.036 133.68 373.467 133.916C373.898 134.151 374.237 134.469 374.482 134.869C374.727 135.269 374.849 135.715 374.849 136.205C374.849 136.555 374.785 136.898 374.658 137.233C374.534 137.564 374.317 137.935 374.007 138.344C373.7 138.751 373.274 139.247 372.728 139.833L370.588 142.122V142.196H375.017V143.22H369.006ZM378.594 141.917L378.519 142.42C378.467 142.773 378.386 143.151 378.278 143.555C378.172 143.958 378.062 144.338 377.947 144.694C377.833 145.051 377.738 145.335 377.664 145.546H376.826C376.866 145.347 376.919 145.085 376.984 144.76C377.049 144.434 377.115 144.069 377.18 143.666C377.248 143.266 377.304 142.857 377.347 142.438L377.403 141.917H378.594ZM383.395 143.35C382.849 143.35 382.357 143.241 381.92 143.024C381.483 142.807 381.132 142.51 380.869 142.131C380.605 141.753 380.461 141.322 380.436 140.838H381.553C381.596 141.269 381.791 141.626 382.139 141.908C382.489 142.187 382.908 142.327 383.395 142.327C383.786 142.327 384.133 142.235 384.437 142.052C384.744 141.869 384.984 141.618 385.158 141.298C385.335 140.976 385.423 140.612 385.423 140.205C385.423 139.79 385.332 139.419 385.149 139.093C384.969 138.765 384.721 138.506 384.404 138.317C384.088 138.127 383.727 138.031 383.32 138.028C383.029 138.025 382.73 138.07 382.422 138.163C382.115 138.253 381.863 138.369 381.664 138.512L380.585 138.382L381.162 133.692H386.112V134.716H382.129L381.794 137.526H381.85C382.046 137.371 382.291 137.242 382.585 137.14C382.88 137.037 383.187 136.986 383.506 136.986C384.089 136.986 384.609 137.126 385.065 137.405C385.524 137.681 385.884 138.059 386.144 138.54C386.408 139.021 386.539 139.569 386.539 140.187C386.539 140.794 386.403 141.337 386.13 141.815C385.86 142.289 385.488 142.665 385.014 142.941C384.539 143.214 384 143.35 383.395 143.35ZM391.495 143.35C390.794 143.35 390.197 143.159 389.704 142.778C389.211 142.393 388.834 141.837 388.574 141.108C388.313 140.376 388.183 139.492 388.183 138.456C388.183 137.426 388.313 136.547 388.574 135.818C388.837 135.086 389.216 134.528 389.709 134.144C390.205 133.756 390.8 133.562 391.495 133.562C392.19 133.562 392.784 133.756 393.277 134.144C393.773 134.528 394.151 135.086 394.412 135.818C394.675 136.547 394.807 137.426 394.807 138.456C394.807 139.492 394.677 140.376 394.416 141.108C394.156 141.837 393.779 142.393 393.286 142.778C392.793 143.159 392.196 143.35 391.495 143.35ZM391.495 142.327C392.19 142.327 392.729 141.992 393.114 141.322C393.498 140.652 393.691 139.697 393.691 138.456C393.691 137.631 393.602 136.929 393.426 136.349C393.252 135.769 393.001 135.327 392.672 135.023C392.346 134.719 391.954 134.567 391.495 134.567C390.807 134.567 390.268 134.907 389.881 135.586C389.493 136.262 389.299 137.219 389.299 138.456C389.299 139.281 389.386 139.982 389.56 140.559C389.733 141.136 389.983 141.574 390.309 141.875C390.638 142.176 391.033 142.327 391.495 142.327ZM399.683 143.35C398.982 143.35 398.385 143.159 397.892 142.778C397.398 142.393 397.022 141.837 396.761 141.108C396.501 140.376 396.37 139.492 396.37 138.456C396.37 137.426 396.501 136.547 396.761 135.818C397.025 135.086 397.403 134.528 397.896 134.144C398.392 133.756 398.988 133.562 399.683 133.562C400.377 133.562 400.971 133.756 401.464 134.144C401.96 134.528 402.339 135.086 402.599 135.818C402.863 136.547 402.995 137.426 402.995 138.456C402.995 139.492 402.864 140.376 402.604 141.108C402.343 141.837 401.967 142.393 401.474 142.778C400.98 143.159 400.383 143.35 399.683 143.35ZM399.683 142.327C400.377 142.327 400.917 141.992 401.301 141.322C401.686 140.652 401.878 139.697 401.878 138.456C401.878 137.631 401.79 136.929 401.613 136.349C401.439 135.769 401.188 135.327 400.859 135.023C400.534 134.719 400.142 134.567 399.683 134.567C398.994 134.567 398.456 134.907 398.068 135.586C397.681 136.262 397.487 137.219 397.487 138.456C397.487 139.281 397.574 139.982 397.747 140.559C397.921 141.136 398.171 141.574 398.496 141.875C398.825 142.176 399.22 142.327 399.683 142.327Z" fill="#A1A1AA"/>
<path d="M217.505 159.22V152.074H218.603V159.22H217.505ZM218.063 150.883C217.849 150.883 217.665 150.81 217.509 150.665C217.358 150.519 217.282 150.344 217.282 150.139C217.282 149.934 217.358 149.759 217.509 149.613C217.665 149.468 217.849 149.395 218.063 149.395C218.277 149.395 218.46 149.468 218.612 149.613C218.767 149.759 218.845 149.934 218.845 150.139C218.845 150.344 218.767 150.519 218.612 150.665C218.46 150.81 218.277 150.883 218.063 150.883ZM221.711 154.921V159.22H220.614V152.074H221.674V153.191H221.767C221.935 152.828 222.189 152.536 222.53 152.316C222.871 152.093 223.312 151.981 223.851 151.981C224.335 151.981 224.758 152.08 225.121 152.279C225.484 152.474 225.766 152.772 225.968 153.172C226.17 153.569 226.27 154.072 226.27 154.679V159.22H225.172V154.754C225.172 154.192 225.027 153.755 224.735 153.442C224.444 153.126 224.044 152.967 223.535 152.967C223.185 152.967 222.871 153.043 222.595 153.195C222.322 153.347 222.107 153.569 221.949 153.861C221.79 154.152 221.711 154.506 221.711 154.921ZM234.064 159.387C233.611 159.387 233.2 159.302 232.831 159.131C232.462 158.958 232.169 158.708 231.952 158.382C231.734 158.054 231.626 157.657 231.626 157.191C231.626 156.782 231.707 156.45 231.868 156.196C232.029 155.939 232.245 155.737 232.514 155.591C232.784 155.445 233.082 155.337 233.408 155.266C233.736 155.191 234.067 155.132 234.399 155.089C234.833 155.033 235.185 154.991 235.455 154.963C235.727 154.932 235.926 154.881 236.05 154.81C236.177 154.738 236.241 154.614 236.241 154.437V154.4C236.241 153.941 236.115 153.585 235.864 153.33C235.616 153.076 235.239 152.949 234.733 152.949C234.209 152.949 233.798 153.064 233.501 153.293C233.203 153.523 232.994 153.768 232.873 154.028L231.831 153.656C232.017 153.222 232.265 152.884 232.575 152.642C232.888 152.397 233.229 152.226 233.598 152.13C233.971 152.031 234.336 151.981 234.696 151.981C234.926 151.981 235.189 152.009 235.487 152.065C235.788 152.118 236.078 152.228 236.357 152.395C236.639 152.563 236.873 152.815 237.059 153.154C237.246 153.492 237.339 153.944 237.339 154.512V159.22H236.241V158.252H236.185C236.11 158.407 235.986 158.573 235.813 158.75C235.639 158.927 235.408 159.077 235.12 159.201C234.831 159.325 234.479 159.387 234.064 159.387ZM234.231 158.401C234.665 158.401 235.031 158.316 235.329 158.145C235.63 157.975 235.856 157.754 236.008 157.485C236.163 157.215 236.241 156.931 236.241 156.633V155.628C236.194 155.684 236.092 155.735 235.934 155.782C235.779 155.825 235.599 155.864 235.394 155.898C235.192 155.929 234.996 155.957 234.803 155.982C234.614 156.004 234.461 156.022 234.343 156.038C234.057 156.075 233.791 156.135 233.543 156.219C233.298 156.3 233.099 156.422 232.947 156.587C232.798 156.748 232.724 156.968 232.724 157.247C232.724 157.629 232.865 157.917 233.147 158.113C233.432 158.305 233.794 158.401 234.231 158.401ZM244.929 152.074L242.287 159.22H241.171L238.528 152.074H239.719L241.692 157.768H241.766L243.739 152.074H244.929ZM248.264 159.387C247.811 159.387 247.4 159.302 247.031 159.131C246.662 158.958 246.369 158.708 246.152 158.382C245.935 158.054 245.826 157.657 245.826 157.191C245.826 156.782 245.907 156.45 246.068 156.196C246.229 155.939 246.445 155.737 246.715 155.591C246.984 155.445 247.282 155.337 247.608 155.266C247.937 155.191 248.267 155.132 248.599 155.089C249.033 155.033 249.385 154.991 249.655 154.963C249.928 154.932 250.126 154.881 250.25 154.81C250.377 154.738 250.441 154.614 250.441 154.437V154.4C250.441 153.941 250.315 153.585 250.064 153.33C249.816 153.076 249.439 152.949 248.934 152.949C248.41 152.949 247.999 153.064 247.701 153.293C247.403 153.523 247.194 153.768 247.073 154.028L246.031 153.656C246.217 153.222 246.465 152.884 246.775 152.642C247.088 152.397 247.43 152.226 247.799 152.13C248.171 152.031 248.537 151.981 248.896 151.981C249.126 151.981 249.39 152.009 249.687 152.065C249.988 152.118 250.278 152.228 250.557 152.395C250.839 152.563 251.074 152.815 251.26 153.154C251.446 153.492 251.539 153.944 251.539 154.512V159.22H250.441V158.252H250.385C250.311 158.407 250.187 158.573 250.013 158.75C249.839 158.927 249.608 159.077 249.32 159.201C249.031 159.325 248.679 159.387 248.264 159.387ZM248.431 158.401C248.865 158.401 249.231 158.316 249.529 158.145C249.83 157.975 250.056 157.754 250.208 157.485C250.363 157.215 250.441 156.931 250.441 156.633V155.628C250.394 155.684 250.292 155.735 250.134 155.782C249.979 155.825 249.799 155.864 249.594 155.898C249.393 155.929 249.196 155.957 249.003 155.982C248.814 156.004 248.661 156.022 248.543 156.038C248.258 156.075 247.991 156.135 247.743 156.219C247.498 156.3 247.299 156.422 247.147 156.587C246.998 156.748 246.924 156.968 246.924 157.247C246.924 157.629 247.065 157.917 247.347 158.113C247.633 158.305 247.994 158.401 248.431 158.401ZM253.543 159.22V152.074H254.64V159.22H253.543ZM254.101 150.883C253.887 150.883 253.702 150.81 253.547 150.665C253.395 150.519 253.319 150.344 253.319 150.139C253.319 149.934 253.395 149.759 253.547 149.613C253.702 149.468 253.887 149.395 254.101 149.395C254.315 149.395 254.498 149.468 254.65 149.613C254.805 149.759 254.882 149.934 254.882 150.139C254.882 150.344 254.805 150.519 254.65 150.665C254.498 150.81 254.315 150.883 254.101 150.883ZM257.749 149.692V159.22H256.651V149.692H257.749ZM261.863 159.387C261.41 159.387 260.999 159.302 260.63 159.131C260.261 158.958 259.968 158.708 259.751 158.382C259.534 158.054 259.425 157.657 259.425 157.191C259.425 156.782 259.506 156.45 259.667 156.196C259.828 155.939 260.044 155.737 260.314 155.591C260.583 155.445 260.881 155.337 261.207 155.266C261.536 155.191 261.866 155.132 262.198 155.089C262.632 155.033 262.984 154.991 263.254 154.963C263.527 154.932 263.725 154.881 263.849 154.81C263.976 154.738 264.04 154.614 264.04 154.437V154.4C264.04 153.941 263.914 153.585 263.663 153.33C263.415 153.076 263.038 152.949 262.533 152.949C262.008 152.949 261.598 153.064 261.3 153.293C261.002 153.523 260.793 153.768 260.672 154.028L259.63 153.656C259.816 153.222 260.064 152.884 260.374 152.642C260.687 152.397 261.028 152.226 261.398 152.13C261.77 152.031 262.136 151.981 262.495 151.981C262.725 151.981 262.988 152.009 263.286 152.065C263.587 152.118 263.877 152.228 264.156 152.395C264.438 152.563 264.673 152.815 264.859 153.154C265.045 153.492 265.138 153.944 265.138 154.512V159.22H264.04V158.252H263.984C263.91 158.407 263.786 158.573 263.612 158.75C263.438 158.927 263.207 159.077 262.919 159.201C262.63 159.325 262.278 159.387 261.863 159.387ZM262.03 158.401C262.464 158.401 262.83 158.316 263.128 158.145C263.429 157.975 263.655 157.754 263.807 157.485C263.962 157.215 264.04 156.931 264.04 156.633V155.628C263.993 155.684 263.891 155.735 263.733 155.782C263.578 155.825 263.398 155.864 263.193 155.898C262.992 155.929 262.795 155.957 262.602 155.982C262.413 156.004 262.26 156.022 262.142 156.038C261.857 156.075 261.59 156.135 261.342 156.219C261.097 156.3 260.898 156.422 260.746 156.587C260.597 156.748 260.523 156.968 260.523 157.247C260.523 157.629 260.664 157.917 260.946 158.113C261.232 158.305 261.593 158.401 262.03 158.401ZM267.29 159.22V149.692H268.388V153.209H268.481C268.562 153.085 268.674 152.927 268.816 152.735C268.962 152.539 269.17 152.366 269.44 152.214C269.713 152.059 270.082 151.981 270.547 151.981C271.148 151.981 271.679 152.132 272.138 152.432C272.597 152.733 272.955 153.16 273.212 153.712C273.47 154.264 273.599 154.915 273.599 155.666C273.599 156.422 273.47 157.078 273.212 157.633C272.955 158.185 272.598 158.613 272.142 158.917C271.687 159.218 271.161 159.369 270.565 159.369C270.106 159.369 269.739 159.293 269.463 159.141C269.187 158.986 268.974 158.81 268.826 158.615C268.677 158.416 268.562 158.252 268.481 158.122H268.351V159.22H267.29ZM268.37 155.647C268.37 156.187 268.449 156.663 268.607 157.075C268.765 157.485 268.996 157.806 269.3 158.038C269.604 158.268 269.976 158.382 270.417 158.382C270.876 158.382 271.259 158.261 271.566 158.02C271.876 157.775 272.108 157.446 272.263 157.033C272.422 156.618 272.501 156.156 272.501 155.647C272.501 155.145 272.423 154.692 272.268 154.289C272.116 153.882 271.885 153.561 271.575 153.326C271.268 153.087 270.882 152.967 270.417 152.967C269.97 152.967 269.595 153.081 269.291 153.307C268.987 153.53 268.757 153.844 268.602 154.247C268.447 154.647 268.37 155.114 268.37 155.647ZM276.376 149.692V159.22H275.278V149.692H276.376ZM281.382 159.369C280.694 159.369 280.1 159.217 279.601 158.913C279.105 158.606 278.722 158.178 278.452 157.629C278.185 157.077 278.052 156.435 278.052 155.703C278.052 154.971 278.185 154.326 278.452 153.768C278.722 153.206 279.097 152.769 279.577 152.456C280.061 152.139 280.626 151.981 281.271 151.981C281.643 151.981 282.01 152.043 282.373 152.167C282.736 152.291 283.066 152.493 283.364 152.772C283.662 153.048 283.899 153.414 284.076 153.87C284.253 154.326 284.341 154.887 284.341 155.554V156.019H278.833V155.07H283.225C283.225 154.667 283.144 154.307 282.983 153.991C282.825 153.675 282.598 153.425 282.304 153.242C282.012 153.059 281.668 152.967 281.271 152.967C280.834 152.967 280.455 153.076 280.136 153.293C279.819 153.507 279.576 153.786 279.405 154.13C279.235 154.475 279.149 154.844 279.149 155.238V155.87C279.149 156.41 279.243 156.867 279.429 157.243C279.618 157.615 279.88 157.899 280.215 158.094C280.55 158.286 280.939 158.382 281.382 158.382C281.671 158.382 281.931 158.342 282.164 158.261C282.4 158.178 282.603 158.054 282.773 157.889C282.944 157.722 283.076 157.514 283.169 157.266L284.229 157.564C284.118 157.923 283.93 158.24 283.667 158.513C283.403 158.782 283.077 158.993 282.69 159.145C282.302 159.294 281.866 159.369 281.382 159.369ZM292.878 152.074V153.005H289.026V152.074H292.878ZM290.179 159.22V151.088C290.179 150.679 290.276 150.338 290.468 150.065C290.66 149.792 290.91 149.587 291.217 149.451C291.524 149.314 291.848 149.246 292.189 149.246C292.459 149.246 292.679 149.268 292.85 149.311C293.02 149.354 293.147 149.395 293.231 149.432L292.915 150.381C292.859 150.362 292.781 150.339 292.682 150.311C292.586 150.283 292.459 150.269 292.301 150.269C291.938 150.269 291.676 150.361 291.514 150.544C291.356 150.727 291.277 150.995 291.277 151.349V159.22H290.179ZM298.919 156.298V152.074H300.017V159.22H298.919V158.01H298.845C298.677 158.373 298.417 158.682 298.063 158.936C297.71 159.187 297.263 159.313 296.724 159.313C296.277 159.313 295.88 159.215 295.533 159.02C295.185 158.821 294.912 158.523 294.714 158.127C294.515 157.726 294.416 157.222 294.416 156.615V152.074H295.514V156.54C295.514 157.061 295.66 157.477 295.951 157.787C296.246 158.097 296.621 158.252 297.077 158.252C297.35 158.252 297.628 158.182 297.91 158.043C298.195 157.903 298.434 157.689 298.626 157.401C298.822 157.112 298.919 156.745 298.919 156.298ZM303.126 154.921V159.22H302.028V152.074H303.089V153.191H303.182C303.349 152.828 303.603 152.536 303.945 152.316C304.286 152.093 304.726 151.981 305.266 151.981C305.75 151.981 306.173 152.08 306.536 152.279C306.899 152.474 307.181 152.772 307.382 153.172C307.584 153.569 307.685 154.072 307.685 154.679V159.22H306.587V154.754C306.587 154.192 306.441 153.755 306.15 153.442C305.858 153.126 305.458 152.967 304.949 152.967C304.599 152.967 304.286 153.043 304.01 153.195C303.737 153.347 303.521 153.569 303.363 153.861C303.205 154.152 303.126 154.506 303.126 154.921ZM312.389 159.369C311.794 159.369 311.268 159.218 310.812 158.917C310.356 158.613 310 158.185 309.742 157.633C309.485 157.078 309.356 156.422 309.356 155.666C309.356 154.915 309.485 154.264 309.742 153.712C310 153.16 310.358 152.733 310.817 152.432C311.276 152.132 311.806 151.981 312.408 151.981C312.873 151.981 313.24 152.059 313.51 152.214C313.783 152.366 313.991 152.539 314.134 152.735C314.279 152.927 314.393 153.085 314.473 153.209H314.566V149.692H315.664V159.22H314.603V158.122H314.473C314.393 158.252 314.278 158.416 314.129 158.615C313.98 158.81 313.768 158.986 313.492 159.141C313.216 159.293 312.848 159.369 312.389 159.369ZM312.538 158.382C312.978 158.382 313.351 158.268 313.654 158.038C313.958 157.806 314.189 157.485 314.348 157.075C314.506 156.663 314.585 156.187 314.585 155.647C314.585 155.114 314.507 154.647 314.352 154.247C314.197 153.844 313.968 153.53 313.664 153.307C313.36 153.081 312.985 152.967 312.538 152.967C312.073 152.967 311.685 153.087 311.375 153.326C311.068 153.561 310.837 153.882 310.682 154.289C310.53 154.692 310.454 155.145 310.454 155.647C310.454 156.156 310.531 156.618 310.686 157.033C310.845 157.446 311.077 157.775 311.384 158.02C311.694 158.261 312.079 158.382 312.538 158.382ZM322.889 153.675L321.902 153.954C321.84 153.789 321.749 153.63 321.628 153.475C321.51 153.316 321.349 153.186 321.144 153.084C320.939 152.981 320.677 152.93 320.358 152.93C319.921 152.93 319.556 153.031 319.265 153.233C318.976 153.431 318.832 153.684 318.832 153.991C318.832 154.264 318.931 154.479 319.13 154.638C319.328 154.796 319.638 154.927 320.06 155.033L321.121 155.293C321.76 155.449 322.236 155.686 322.549 156.005C322.862 156.322 323.019 156.729 323.019 157.229C323.019 157.638 322.901 158.004 322.665 158.327C322.433 158.649 322.107 158.903 321.688 159.089C321.27 159.276 320.783 159.369 320.228 159.369C319.499 159.369 318.896 159.21 318.418 158.894C317.94 158.578 317.638 158.116 317.511 157.508L318.553 157.247C318.652 157.632 318.84 157.92 319.116 158.113C319.395 158.305 319.759 158.401 320.209 158.401C320.721 158.401 321.127 158.292 321.428 158.075C321.732 157.855 321.884 157.592 321.884 157.284C321.884 157.036 321.797 156.829 321.623 156.661C321.45 156.491 321.183 156.363 320.823 156.28L319.632 156.001C318.978 155.845 318.497 155.605 318.19 155.279C317.886 154.951 317.734 154.54 317.734 154.047C317.734 153.644 317.847 153.287 318.074 152.977C318.303 152.667 318.615 152.423 319.009 152.246C319.406 152.07 319.856 151.981 320.358 151.981C321.065 151.981 321.62 152.136 322.023 152.446C322.43 152.757 322.718 153.166 322.889 153.675ZM328.356 159.22V152.074H329.454V159.22H328.356ZM328.914 150.883C328.7 150.883 328.516 150.81 328.361 150.665C328.209 150.519 328.133 150.344 328.133 150.139C328.133 149.934 328.209 149.759 328.361 149.613C328.516 149.468 328.7 149.395 328.914 149.395C329.128 149.395 329.311 149.468 329.463 149.613C329.618 149.759 329.696 149.934 329.696 150.139C329.696 150.344 329.618 150.519 329.463 150.665C329.311 150.81 329.128 150.883 328.914 150.883ZM332.562 154.921V159.22H331.465V152.074H332.525V153.191H332.618C332.786 152.828 333.04 152.536 333.381 152.316C333.722 152.093 334.163 151.981 334.702 151.981C335.186 151.981 335.61 152.08 335.972 152.279C336.335 152.474 336.617 152.772 336.819 153.172C337.021 153.569 337.121 154.072 337.121 154.679V159.22H336.024V154.754C336.024 154.192 335.878 153.755 335.586 153.442C335.295 153.126 334.895 152.967 334.386 152.967C334.036 152.967 333.722 153.043 333.446 153.195C333.173 153.347 332.958 153.569 332.8 153.861C332.642 154.152 332.562 154.506 332.562 154.921ZM342.961 149.692H344.338L347.576 157.601H347.687L350.925 149.692H352.302V159.22H351.223V151.981H351.13L348.152 159.22H347.11L344.133 151.981H344.04V159.22H342.961V149.692ZM356.569 159.387C356.116 159.387 355.705 159.302 355.336 159.131C354.967 158.958 354.674 158.708 354.457 158.382C354.24 158.054 354.131 157.657 354.131 157.191C354.131 156.782 354.212 156.45 354.373 156.196C354.535 155.939 354.75 155.737 355.02 155.591C355.29 155.445 355.587 155.337 355.913 155.266C356.242 155.191 356.572 155.132 356.904 155.089C357.338 155.033 357.69 154.991 357.96 154.963C358.233 154.932 358.431 154.881 358.555 154.81C358.683 154.738 358.746 154.614 358.746 154.437V154.4C358.746 153.941 358.621 153.585 358.369 153.33C358.121 153.076 357.744 152.949 357.239 152.949C356.715 152.949 356.304 153.064 356.006 153.293C355.708 153.523 355.499 153.768 355.378 154.028L354.336 153.656C354.522 153.222 354.77 152.884 355.08 152.642C355.394 152.397 355.735 152.226 356.104 152.13C356.476 152.031 356.842 151.981 357.202 151.981C357.431 151.981 357.695 152.009 357.993 152.065C358.293 152.118 358.583 152.228 358.862 152.395C359.145 152.563 359.379 152.815 359.565 153.154C359.751 153.492 359.844 153.944 359.844 154.512V159.22H358.746V158.252H358.69C358.616 158.407 358.492 158.573 358.318 158.75C358.145 158.927 357.913 159.077 357.625 159.201C357.337 159.325 356.985 159.387 356.569 159.387ZM356.737 158.401C357.171 158.401 357.537 158.316 357.834 158.145C358.135 157.975 358.362 157.754 358.514 157.485C358.669 157.215 358.746 156.931 358.746 156.633V155.628C358.7 155.684 358.597 155.735 358.439 155.782C358.284 155.825 358.104 155.864 357.9 155.898C357.698 155.929 357.501 155.957 357.309 155.982C357.12 156.004 356.966 156.022 356.848 156.038C356.563 156.075 356.296 156.135 356.048 156.219C355.803 156.3 355.605 156.422 355.453 156.587C355.304 156.748 355.229 156.968 355.229 157.247C355.229 157.629 355.37 157.917 355.653 158.113C355.938 158.305 356.299 158.401 356.737 158.401ZM362.299 161.899C362.113 161.899 361.947 161.884 361.801 161.853C361.656 161.825 361.555 161.797 361.499 161.769L361.778 160.801C362.045 160.87 362.281 160.894 362.485 160.876C362.69 160.857 362.871 160.766 363.029 160.601C363.191 160.44 363.338 160.178 363.471 159.815L363.676 159.257L361.034 152.074H362.225L364.197 157.768H364.272L366.244 152.074H367.435L364.402 160.262C364.265 160.631 364.096 160.936 363.895 161.178C363.693 161.423 363.459 161.605 363.192 161.722C362.929 161.84 362.631 161.899 362.299 161.899Z" fill="#A1A1AA"/>
<path d="M206.23 142.22L198.23 128.22C198.056 127.912 197.803 127.656 197.497 127.478C197.191 127.3 196.844 127.206 196.49 127.206C196.136 127.206 195.789 127.3 195.483 127.478C195.177 127.656 194.924 127.912 194.75 128.22L186.75 142.22C186.574 142.525 186.481 142.872 186.482 143.224C186.483 143.577 186.577 143.923 186.754 144.228C186.932 144.532 187.187 144.784 187.494 144.959C187.8 145.133 188.147 145.223 188.5 145.22H204.5C204.851 145.219 205.196 145.127 205.499 144.951C205.803 144.775 206.055 144.523 206.231 144.219C206.406 143.915 206.498 143.57 206.498 143.219C206.498 142.868 206.405 142.524 206.23 142.22Z" stroke="#FB923C" stroke-width="1.5" stroke-linecap="round" stroke-linejoin="round"/>
<path d="M196.5 133.22V137.22" stroke="#FB923C" stroke-width="1.5" stroke-linecap="round" stroke-linejoin="round"/>
<path d="M196.5 141.22H196.51" stroke="#FB923C" stroke-width="1.5" stroke-linecap="round" stroke-linejoin="round"/>
</g>
</g>
</g>
<defs>
<filter id="filter0_f_1_80" x="-83.5" y="-19.7803" width="760" height="352" filterUnits="userSpaceOnUse" color-interpolation-filters="sRGB">
<feFlood flood-opacity="0" result="BackgroundImageFix"/>
<feBlend mode="normal" in="SourceGraphic" in2="BackgroundImageFix" result="shape"/>
<feGaussianBlur stdDeviation="48" result="effect1_foregroundBlur_1_80"/>
</filter>
<filter id="filter1_f_1_80" x="298.923" y="217.959" width="233.319" height="63.2856" filterUnits="userSpaceOnUse" color-interpolation-filters="sRGB">
<feFlood flood-opacity="0" result="BackgroundImageFix"/>
<feBlend mode="normal" in="SourceGraphic" in2="BackgroundImageFix" result="shape"/>
<feGaussianBlur stdDeviation="3" result="effect1_foregroundBlur_1_80"/>
</filter>
<filter id="filter2_f_1_80" x="60.3174" y="161.939" width="245.367" height="97.1577" filterUnits="userSpaceOnUse" color-interpolation-filters="sRGB">
<feFlood flood-opacity="0" result="BackgroundImageFix"/>
<feBlend mode="normal" in="SourceGraphic" in2="BackgroundImageFix" result="shape"/>
<feGaussianBlur stdDeviation="3" result="effect1_foregroundBlur_1_80"/>
</filter>
<filter id="filter3_dd_1_80" x="175.5" y="103.22" width="242" height="66" filterUnits="userSpaceOnUse" color-interpolation-filters="sRGB">
<feFlood flood-opacity="0" result="BackgroundImageFix"/>
<feColorMatrix in="SourceAlpha" type="matrix" values="0 0 0 0 0 0 0 0 0 0 0 0 0 0 0 0 0 0 127 0" result="hardAlpha"/>
<feOffset/>
<feComposite in2="hardAlpha" operator="out"/>
<feColorMatrix type="matrix" values="0 0 0 0 1 0 0 0 0 1 0 0 0 0 1 0 0 0 1 0"/>
<feBlend mode="normal" in2="BackgroundImageFix" result="effect1_dropShadow_1_80"/>
<feColorMatrix in="SourceAlpha" type="matrix" values="0 0 0 0 0 0 0 0 0 0 0 0 0 0 0 0 0 0 127 0" result="hardAlpha"/>
<feMorphology radius="1" operator="dilate" in="SourceAlpha" result="effect2_dropShadow_1_80"/>
<feOffset/>
<feComposite in2="hardAlpha" operator="out"/>
<feColorMatrix type="matrix" values="0 0 0 0 0.631373 0 0 0 0 0.631373 0 0 0 0 0.666667 0 0 0 0.2 0"/>
<feBlend mode="normal" in2="effect1_dropShadow_1_80" result="effect2_dropShadow_1_80"/>
<feBlend mode="normal" in="SourceGraphic" in2="effect2_dropShadow_1_80" result="shape"/>
</filter>
<radialGradient id="paint0_radial_1_80" cx="0" cy="0" r="1" gradientUnits="userSpaceOnUse" gradientTransform="translate(284 177) rotate(31.9328) scale(334.642 300.429)">
<stop offset="0.35" stop-opacity="0.9"/>
<stop offset="1" stop-opacity="0"/>
</radialGradient>
<linearGradient id="paint1_linear_1_80" x1="12.5" y1="156.22" x2="580.5" y2="156.22" gradientUnits="userSpaceOnUse">
<stop stop-color="#0891B2"/>
<stop offset="0.5" stop-color="#0EA5E9"/>
<stop offset="1" stop-color="#7C3AED"/>
</linearGradient>
<linearGradient id="paint2_linear_1_80" x1="236.8" y1="0" x2="236.8" y2="300" gradientUnits="userSpaceOnUse">
<stop/>
<stop offset="0.75"/>
<stop offset="1" stop-opacity="0"/>
</linearGradient>
<clipPath id="clip0_1_80">
<rect width="592" height="366" fill="white" transform="translate(0.5 0.219727)"/>
</clipPath>
<clipPath id="clip1_1_80">
<rect width="471.6" height="215.21" fill="white" transform="translate(60.7031 123.017)"/>
</clipPath>
</defs>
</svg>
