<svg width="593" height="367" viewBox="0 0 593 367" fill="none" xmlns="http://www.w3.org/2000/svg">
<g clip-path="url(#clip0_1_117)">
<g filter="url(#filter0_dddd_1_117)">
<g clip-path="url(#clip1_1_117)">
<path d="M32.5 256.22C32.5 252.906 35.1863 250.22 38.5 250.22H554.5C557.814 250.22 560.5 252.906 560.5 256.22V296.22C560.5 299.533 557.814 302.22 554.5 302.22H38.5C35.1863 302.22 32.5 299.533 32.5 296.22V256.22Z" fill="#18181B"/>
<g opacity="0.76383" filter="url(#filter1_f_1_117)">
<rect width="99.13" height="36" transform="translate(449.375 258.22)" fill="url(#paint0_linear_1_117)"/>
</g>
<g filter="url(#filter2_dd_1_117)">
<path d="M449.375 264.22C449.375 260.906 452.061 258.22 455.375 258.22H542.505C545.819 258.22 548.505 260.906 548.505 264.22V288.22C548.505 291.533 545.819 294.22 542.505 294.22H455.375C452.061 294.22 449.375 291.533 449.375 288.22V264.22Z" fill="#09090B"/>
<path d="M463.34 280.72H461.721L465.358 270.611H467.121L470.758 280.72H469.139L466.281 272.447H466.202L463.34 280.72ZM463.611 276.761H468.863V278.044H463.611V276.761ZM477.727 274.989L476.389 275.226C476.333 275.055 476.245 274.892 476.123 274.737C476.004 274.583 475.843 274.456 475.639 274.357C475.435 274.258 475.18 274.209 474.874 274.209C474.456 274.209 474.107 274.303 473.827 274.49C473.548 274.675 473.408 274.913 473.408 275.206C473.408 275.46 473.502 275.664 473.689 275.818C473.877 275.973 474.18 276.1 474.598 276.198L475.802 276.475C476.5 276.636 477.019 276.884 477.362 277.22C477.704 277.556 477.875 277.992 477.875 278.528C477.875 278.982 477.743 279.387 477.48 279.742C477.22 280.094 476.857 280.371 476.389 280.572C475.925 280.772 475.387 280.873 474.775 280.873C473.926 280.873 473.234 280.692 472.697 280.33C472.161 279.965 471.832 279.446 471.71 278.775L473.136 278.558C473.225 278.93 473.408 279.211 473.684 279.402C473.961 279.589 474.321 279.683 474.765 279.683C475.249 279.683 475.636 279.583 475.925 279.382C476.215 279.178 476.36 278.93 476.36 278.637C476.36 278.4 476.271 278.201 476.093 278.039C475.919 277.878 475.651 277.756 475.289 277.674L474.005 277.393C473.298 277.232 472.774 276.975 472.436 276.623C472.1 276.271 471.932 275.825 471.932 275.285C471.932 274.838 472.057 274.446 472.307 274.11C472.557 273.775 472.903 273.513 473.344 273.325C473.785 273.135 474.29 273.039 474.859 273.039C475.679 273.039 476.324 273.217 476.794 273.572C477.265 273.924 477.576 274.397 477.727 274.989ZM480.855 278.148L480.845 276.346H481.102L484.123 273.138H485.89L482.445 276.791H482.213L480.855 278.148ZM479.498 280.72V270.611H480.974V280.72H479.498ZM484.286 280.72L481.571 277.116L482.588 276.085L486.097 280.72H484.286ZM497.874 273.804C497.778 273.505 497.65 273.237 497.489 273C497.331 272.759 497.141 272.555 496.921 272.388C496.7 272.217 496.449 272.087 496.166 271.998C495.886 271.909 495.578 271.864 495.243 271.864C494.673 271.864 494.16 272.011 493.703 272.304C493.245 272.597 492.883 273.026 492.617 273.592C492.353 274.155 492.222 274.844 492.222 275.66C492.222 276.48 492.355 277.172 492.622 277.738C492.888 278.304 493.253 278.734 493.717 279.027C494.181 279.32 494.71 279.466 495.302 279.466C495.851 279.466 496.33 279.354 496.738 279.13C497.15 278.907 497.467 278.591 497.691 278.183C497.918 277.771 498.032 277.288 498.032 276.731L498.426 276.805H495.534V275.547H499.507V276.697C499.507 277.546 499.326 278.283 498.964 278.908C498.606 279.53 498.109 280.011 497.474 280.35C496.842 280.688 496.118 280.858 495.302 280.858C494.387 280.858 493.584 280.647 492.893 280.226C492.205 279.805 491.669 279.208 491.284 278.434C490.899 277.658 490.706 276.736 490.706 275.67C490.706 274.864 490.818 274.14 491.042 273.498C491.266 272.857 491.58 272.312 491.985 271.864C492.393 271.414 492.872 271.07 493.421 270.833C493.974 270.593 494.578 270.472 495.233 270.472C495.779 270.472 496.287 270.553 496.758 270.714C497.232 270.876 497.653 271.104 498.022 271.4C498.394 271.697 498.701 272.049 498.945 272.457C499.188 272.861 499.353 273.311 499.438 273.804H497.874ZM504.593 280.873C503.846 280.873 503.203 280.713 502.663 280.394C502.126 280.071 501.712 279.619 501.419 279.037C501.129 278.451 500.985 277.765 500.985 276.978C500.985 276.202 501.129 275.517 501.419 274.925C501.712 274.332 502.12 273.87 502.643 273.538C503.17 273.205 503.785 273.039 504.489 273.039C504.917 273.039 505.332 273.11 505.733 273.251C506.135 273.393 506.495 273.615 506.814 273.918C507.133 274.221 507.385 274.614 507.569 275.098C507.754 275.578 507.846 276.162 507.846 276.85V277.373H501.819V276.267H506.399C506.399 275.879 506.32 275.535 506.163 275.236C506.005 274.933 505.782 274.694 505.496 274.52C505.213 274.346 504.881 274.258 504.499 274.258C504.084 274.258 503.722 274.36 503.413 274.564C503.107 274.765 502.87 275.028 502.702 275.354C502.538 275.677 502.456 276.027 502.456 276.406V277.269C502.456 277.776 502.544 278.207 502.722 278.563C502.903 278.918 503.155 279.19 503.477 279.377C503.8 279.561 504.177 279.654 504.608 279.654C504.887 279.654 505.142 279.614 505.373 279.535C505.603 279.453 505.802 279.331 505.97 279.17C506.138 279.009 506.266 278.809 506.355 278.573L507.752 278.824C507.64 279.236 507.439 279.596 507.15 279.905C506.863 280.211 506.503 280.45 506.069 280.621C505.638 280.789 505.146 280.873 504.593 280.873ZM510.959 276.218V280.72H509.483V273.138H510.9V274.372H510.994C511.168 273.97 511.441 273.648 511.813 273.404C512.188 273.161 512.66 273.039 513.23 273.039C513.746 273.039 514.199 273.148 514.587 273.365C514.975 273.579 515.277 273.898 515.49 274.323C515.704 274.747 515.811 275.272 515.811 275.897V280.72H514.335V276.075C514.335 275.525 514.192 275.096 513.906 274.787C513.62 274.474 513.226 274.318 512.726 274.318C512.384 274.318 512.08 274.392 511.813 274.54C511.55 274.688 511.341 274.905 511.186 275.191C511.035 275.474 510.959 275.817 510.959 276.218ZM517.791 280.72V273.138H519.267V280.72H517.791ZM518.536 271.968C518.279 271.968 518.059 271.882 517.875 271.711C517.694 271.537 517.603 271.33 517.603 271.089C517.603 270.846 517.694 270.639 517.875 270.467C518.059 270.293 518.279 270.206 518.536 270.206C518.793 270.206 519.012 270.293 519.193 270.467C519.377 270.639 519.469 270.846 519.469 271.089C519.469 271.33 519.377 271.537 519.193 271.711C519.012 271.882 518.793 271.968 518.536 271.968ZM526.055 277.575V273.138H527.536V280.72H526.085V279.407H526.006C525.831 279.811 525.551 280.149 525.166 280.419C524.785 280.685 524.309 280.818 523.74 280.818C523.253 280.818 522.822 280.711 522.447 280.498C522.075 280.28 521.782 279.96 521.568 279.535C521.357 279.111 521.252 278.586 521.252 277.96V273.138H522.728V277.783C522.728 278.299 522.871 278.711 523.157 279.017C523.444 279.323 523.816 279.476 524.273 279.476C524.549 279.476 524.824 279.407 525.097 279.269C525.374 279.13 525.602 278.921 525.783 278.642C525.968 278.362 526.058 278.007 526.055 277.575ZM535.2 274.989L533.863 275.226C533.807 275.055 533.718 274.892 533.596 274.737C533.478 274.583 533.316 274.456 533.112 274.357C532.908 274.258 532.653 274.209 532.347 274.209C531.929 274.209 531.58 274.303 531.301 274.49C531.021 274.675 530.881 274.913 530.881 275.206C530.881 275.46 530.975 275.664 531.163 275.818C531.35 275.973 531.653 276.1 532.071 276.198L533.275 276.475C533.973 276.636 534.493 276.884 534.835 277.22C535.177 277.556 535.348 277.992 535.348 278.528C535.348 278.982 535.217 279.387 534.953 279.742C534.693 280.094 534.33 280.371 533.863 280.572C533.399 280.772 532.861 280.873 532.248 280.873C531.399 280.873 530.707 280.692 530.17 280.33C529.634 279.965 529.305 279.446 529.183 278.775L530.61 278.558C530.699 278.93 530.881 279.211 531.158 279.402C531.434 279.589 531.794 279.683 532.239 279.683C532.722 279.683 533.109 279.583 533.399 279.382C533.688 279.178 533.833 278.93 533.833 278.637C533.833 278.4 533.744 278.201 533.566 278.039C533.392 277.878 533.124 277.756 532.762 277.674L531.478 277.393C530.771 277.232 530.248 276.975 529.909 276.623C529.573 276.271 529.405 275.825 529.405 275.285C529.405 274.838 529.53 274.446 529.78 274.11C530.031 273.775 530.376 273.513 530.817 273.325C531.258 273.135 531.763 273.039 532.332 273.039C533.152 273.039 533.797 273.217 534.267 273.572C534.738 273.924 535.049 274.397 535.2 274.989Z" fill="#E4E4E7"/>
</g>
<g clip-path="url(#clip2_1_117)">
<path d="M44.5 283.193H58.4V269.293H44.5V283.193ZM65.3697 282.22L62.6055 272.111H63.8494L65.9621 280.344H66.0608L68.2129 272.111H69.595L71.7472 280.344H71.8459L73.9585 272.111H75.2024L72.4382 282.22H71.1746L68.9435 274.164H68.8645L66.6334 282.22H65.3697ZM77.7346 277.659V282.22H76.5697V272.111H77.7346V275.823H77.8333C78.011 275.431 78.2776 275.12 78.633 274.89C78.9917 274.656 79.4688 274.539 80.0645 274.539C80.5811 274.539 81.0336 274.643 81.4219 274.85C81.8102 275.054 82.1113 275.368 82.3252 275.793C82.5424 276.214 82.651 276.751 82.651 277.402V282.22H81.486V277.481C81.486 276.879 81.3297 276.413 81.0171 276.084C80.7078 275.752 80.2783 275.586 79.7288 275.586C79.3471 275.586 79.0048 275.666 78.7021 275.828C78.4026 275.989 78.1657 276.224 77.9913 276.533C77.8202 276.843 77.7346 277.218 77.7346 277.659ZM87.8622 282.378C87.1778 282.378 86.5772 282.215 86.0606 281.889C85.5472 281.563 85.1457 281.107 84.8562 280.522C84.5699 279.936 84.4267 279.251 84.4267 278.468C84.4267 277.679 84.5699 276.989 84.8562 276.4C85.1457 275.811 85.5472 275.354 86.0606 275.028C86.5772 274.702 87.1778 274.539 87.8622 274.539C88.5467 274.539 89.1456 274.702 89.659 275.028C90.1756 275.354 90.5771 275.811 90.8634 276.4C91.1529 276.989 91.2977 277.679 91.2977 278.468C91.2977 279.251 91.1529 279.936 90.8634 280.522C90.5771 281.107 90.1756 281.563 89.659 281.889C89.1456 282.215 88.5467 282.378 87.8622 282.378ZM87.8622 281.331C88.3822 281.331 88.8099 281.198 89.1456 280.931C89.4813 280.665 89.7297 280.314 89.891 279.88C90.0522 279.446 90.1328 278.975 90.1328 278.468C90.1328 277.962 90.0522 277.489 89.891 277.052C89.7297 276.614 89.4813 276.26 89.1456 275.99C88.8099 275.721 88.3822 275.586 87.8622 275.586C87.3423 275.586 86.9145 275.721 86.5788 275.99C86.2432 276.26 85.9947 276.614 85.8335 277.052C85.6722 277.489 85.5916 277.962 85.5916 278.468C85.5916 278.975 85.6722 279.446 85.8335 279.88C85.9947 280.314 86.2432 280.665 86.5788 280.931C86.9145 281.198 87.3423 281.331 87.8622 281.331ZM94.0829 272.111V275.586H92.997V272.111H94.0829ZM101.528 276.336L100.481 276.632C100.415 276.458 100.318 276.288 100.19 276.124C100.065 275.956 99.8939 275.818 99.6767 275.709C99.4595 275.6 99.1815 275.546 98.8425 275.546C98.3785 275.546 97.9919 275.653 97.6826 275.867C97.3765 276.078 97.2235 276.346 97.2235 276.672C97.2235 276.961 97.3288 277.19 97.5394 277.358C97.75 277.526 98.0791 277.665 98.5266 277.777L99.652 278.054C100.33 278.218 100.835 278.47 101.167 278.809C101.5 279.145 101.666 279.577 101.666 280.107C101.666 280.541 101.541 280.93 101.291 281.272C101.044 281.614 100.698 281.884 100.254 282.082C99.81 282.279 99.2934 282.378 98.7043 282.378C97.931 282.378 97.291 282.21 96.7842 281.874C96.2774 281.539 95.9566 281.048 95.8217 280.403L96.9273 280.127C97.0326 280.535 97.2317 280.841 97.5246 281.045C97.8208 281.249 98.2074 281.351 98.6846 281.351C99.2275 281.351 99.6586 281.236 99.9778 281.005C100.3 280.772 100.462 280.492 100.462 280.166C100.462 279.903 100.369 279.683 100.185 279.505C100.001 279.324 99.7179 279.189 99.3361 279.1L98.0725 278.804C97.3782 278.639 96.8681 278.384 96.5423 278.039C96.2198 277.69 96.0586 277.254 96.0586 276.731C96.0586 276.303 96.1787 275.925 96.4189 275.596C96.6624 275.266 96.9931 275.008 97.4111 274.821C97.8323 274.633 98.3094 274.539 98.8425 274.539C99.5928 274.539 100.182 274.704 100.61 275.033C101.041 275.362 101.347 275.796 101.528 276.336ZM110.409 282.378C109.725 282.378 109.124 282.215 108.607 281.889C108.094 281.563 107.693 281.107 107.403 280.522C107.117 279.936 106.973 279.251 106.973 278.468C106.973 277.679 107.117 276.989 107.403 276.4C107.693 275.811 108.094 275.354 108.607 275.028C109.124 274.702 109.725 274.539 110.409 274.539C111.093 274.539 111.692 274.702 112.206 275.028C112.722 275.354 113.124 275.811 113.41 276.4C113.7 276.989 113.845 277.679 113.845 278.468C113.845 279.251 113.7 279.936 113.41 280.522C113.124 281.107 112.722 281.563 112.206 281.889C111.692 282.215 111.093 282.378 110.409 282.378ZM110.409 281.331C110.929 281.331 111.357 281.198 111.692 280.931C112.028 280.665 112.276 280.314 112.438 279.88C112.599 279.446 112.68 278.975 112.68 278.468C112.68 277.962 112.599 277.489 112.438 277.052C112.276 276.614 112.028 276.26 111.692 275.99C111.357 275.721 110.929 275.586 110.409 275.586C109.889 275.586 109.461 275.721 109.126 275.99C108.79 276.26 108.542 276.614 108.38 277.052C108.219 277.489 108.138 277.962 108.138 278.468C108.138 278.975 108.219 279.446 108.38 279.88C108.542 280.314 108.79 280.665 109.126 280.931C109.461 281.198 109.889 281.331 110.409 281.331ZM120.401 279.12V274.638H121.566V282.22H120.401V280.936H120.322C120.144 281.321 119.868 281.649 119.493 281.919C119.117 282.185 118.644 282.318 118.071 282.318C117.597 282.318 117.176 282.215 116.807 282.007C116.439 281.797 116.149 281.481 115.939 281.06C115.728 280.635 115.623 280.101 115.623 279.456V274.638H116.788V279.377C116.788 279.929 116.942 280.37 117.252 280.699C117.564 281.028 117.962 281.193 118.446 281.193C118.736 281.193 119.03 281.119 119.33 280.971C119.632 280.823 119.886 280.596 120.09 280.29C120.297 279.984 120.401 279.594 120.401 279.12ZM123.699 282.22V274.638H124.825V275.783H124.904C125.042 275.408 125.292 275.104 125.654 274.87C126.016 274.636 126.424 274.519 126.878 274.519C126.964 274.519 127.071 274.521 127.199 274.524C127.327 274.528 127.424 274.533 127.49 274.539V275.724C127.451 275.714 127.36 275.699 127.219 275.679C127.081 275.656 126.934 275.645 126.78 275.645C126.411 275.645 126.082 275.722 125.792 275.877C125.506 276.028 125.279 276.239 125.111 276.509C124.947 276.775 124.864 277.08 124.864 277.422V282.22H123.699ZM132.781 282.22V274.638H133.906V275.823H134.005C134.163 275.418 134.418 275.104 134.77 274.88C135.122 274.653 135.545 274.539 136.038 274.539C136.539 274.539 136.955 274.653 137.287 274.88C137.623 275.104 137.884 275.418 138.072 275.823H138.151C138.345 275.431 138.636 275.12 139.025 274.89C139.413 274.656 139.879 274.539 140.422 274.539C141.099 274.539 141.654 274.751 142.085 275.176C142.516 275.597 142.732 276.254 142.732 277.145V282.22H141.567V277.145C141.567 276.586 141.414 276.186 141.108 275.946C140.802 275.706 140.441 275.586 140.027 275.586C139.494 275.586 139.081 275.747 138.788 276.069C138.495 276.389 138.348 276.793 138.348 277.284V282.22H137.164V277.027C137.164 276.596 137.024 276.249 136.744 275.985C136.465 275.719 136.104 275.586 135.663 275.586C135.36 275.586 135.077 275.666 134.814 275.828C134.554 275.989 134.344 276.213 134.182 276.499C134.024 276.782 133.945 277.109 133.945 277.481V282.22H132.781ZM147.942 282.378C147.257 282.378 146.657 282.215 146.14 281.889C145.627 281.563 145.225 281.107 144.936 280.522C144.649 279.936 144.506 279.251 144.506 278.468C144.506 277.679 144.649 276.989 144.936 276.4C145.225 275.811 145.627 275.354 146.14 275.028C146.657 274.702 147.257 274.539 147.942 274.539C148.626 274.539 149.225 274.702 149.738 275.028C150.255 275.354 150.657 275.811 150.943 276.4C151.232 276.989 151.377 277.679 151.377 278.468C151.377 279.251 151.232 279.936 150.943 280.522C150.657 281.107 150.255 281.563 149.738 281.889C149.225 282.215 148.626 282.378 147.942 282.378ZM147.942 281.331C148.462 281.331 148.889 281.198 149.225 280.931C149.561 280.665 149.809 280.314 149.97 279.88C150.132 279.446 150.212 278.975 150.212 278.468C150.212 277.962 150.132 277.489 149.97 277.052C149.809 276.614 149.561 276.26 149.225 275.99C148.889 275.721 148.462 275.586 147.942 275.586C147.422 275.586 146.994 275.721 146.658 275.99C146.323 276.26 146.074 276.614 145.913 277.052C145.752 277.489 145.671 277.962 145.671 278.468C145.671 278.975 145.752 279.446 145.913 279.88C146.074 280.314 146.323 280.665 146.658 280.931C146.994 281.198 147.422 281.331 147.942 281.331ZM158.526 276.336L157.479 276.632C157.414 276.458 157.317 276.288 157.188 276.124C157.063 275.956 156.892 275.818 156.675 275.709C156.458 275.6 156.18 275.546 155.841 275.546C155.377 275.546 154.99 275.653 154.681 275.867C154.375 276.078 154.222 276.346 154.222 276.672C154.222 276.961 154.327 277.19 154.538 277.358C154.748 277.526 155.077 277.665 155.525 277.777L156.65 278.054C157.328 278.218 157.833 278.47 158.166 278.809C158.498 279.145 158.664 279.577 158.664 280.107C158.664 280.541 158.539 280.93 158.289 281.272C158.042 281.614 157.697 281.884 157.252 282.082C156.808 282.279 156.292 282.378 155.702 282.378C154.929 282.378 154.289 282.21 153.782 281.874C153.276 281.539 152.955 281.048 152.82 280.403L153.925 280.127C154.031 280.535 154.23 280.841 154.523 281.045C154.819 281.249 155.206 281.351 155.683 281.351C156.226 281.351 156.657 281.236 156.976 281.005C157.298 280.772 157.46 280.492 157.46 280.166C157.46 279.903 157.368 279.683 157.183 279.505C156.999 279.324 156.716 279.189 156.334 279.1L155.071 278.804C154.376 278.639 153.866 278.384 153.54 278.039C153.218 277.69 153.057 277.254 153.057 276.731C153.057 276.303 153.177 275.925 153.417 275.596C153.661 275.266 153.991 275.008 154.409 274.821C154.83 274.633 155.308 274.539 155.841 274.539C156.591 274.539 157.18 274.704 157.608 275.033C158.039 275.362 158.345 275.796 158.526 276.336ZM163.715 274.638V275.625H159.786V274.638H163.715ZM160.931 272.821H162.096V280.048C162.096 280.377 162.144 280.624 162.239 280.788C162.338 280.95 162.463 281.058 162.614 281.114C162.769 281.167 162.932 281.193 163.103 281.193C163.231 281.193 163.337 281.186 163.419 281.173C163.501 281.157 163.567 281.144 163.616 281.134L163.853 282.18C163.774 282.21 163.664 282.239 163.522 282.269C163.381 282.302 163.202 282.318 162.984 282.318C162.655 282.318 162.333 282.248 162.017 282.106C161.704 281.965 161.444 281.749 161.237 281.46C161.033 281.17 160.931 280.805 160.931 280.364V272.821ZM169.377 285.063V274.638H170.502V275.842H170.64C170.726 275.711 170.844 275.543 170.996 275.339C171.15 275.132 171.371 274.947 171.657 274.786C171.947 274.621 172.338 274.539 172.832 274.539C173.47 274.539 174.033 274.699 174.52 275.018C175.007 275.337 175.387 275.79 175.66 276.375C175.933 276.961 176.07 277.652 176.07 278.449C176.07 279.251 175.933 279.947 175.66 280.537C175.387 281.122 175.009 281.576 174.525 281.899C174.041 282.218 173.483 282.378 172.852 282.378C172.365 282.378 171.975 282.297 171.682 282.136C171.389 281.971 171.164 281.785 171.006 281.578C170.848 281.367 170.726 281.193 170.64 281.055H170.542V285.063H169.377ZM170.522 278.429C170.522 279.001 170.606 279.507 170.774 279.944C170.941 280.379 171.187 280.719 171.509 280.966C171.832 281.209 172.226 281.331 172.694 281.331C173.181 281.331 173.587 281.203 173.913 280.946C174.242 280.686 174.489 280.337 174.653 279.9C174.821 279.459 174.905 278.968 174.905 278.429C174.905 277.896 174.823 277.415 174.658 276.987C174.497 276.556 174.252 276.216 173.923 275.966C173.597 275.712 173.187 275.586 172.694 275.586C172.22 275.586 171.822 275.706 171.499 275.946C171.177 276.183 170.933 276.515 170.769 276.943C170.604 277.368 170.522 277.863 170.522 278.429ZM177.847 282.22V274.638H178.972V275.783H179.051C179.19 275.408 179.44 275.104 179.802 274.87C180.164 274.636 180.572 274.519 181.026 274.519C181.111 274.519 181.218 274.521 181.347 274.524C181.475 274.528 181.572 274.533 181.638 274.539V275.724C181.598 275.714 181.508 275.699 181.366 275.679C181.228 275.656 181.082 275.645 180.927 275.645C180.559 275.645 180.229 275.722 179.94 275.877C179.654 276.028 179.427 276.239 179.259 276.509C179.094 276.775 179.012 277.08 179.012 277.422V282.22H177.847ZM185.868 282.378C185.184 282.378 184.583 282.215 184.066 281.889C183.553 281.563 183.152 281.107 182.862 280.522C182.576 279.936 182.433 279.251 182.433 278.468C182.433 277.679 182.576 276.989 182.862 276.4C183.152 275.811 183.553 275.354 184.066 275.028C184.583 274.702 185.184 274.539 185.868 274.539C186.553 274.539 187.151 274.702 187.665 275.028C188.181 275.354 188.583 275.811 188.869 276.4C189.159 276.989 189.304 277.679 189.304 278.468C189.304 279.251 189.159 279.936 188.869 280.522C188.583 281.107 188.181 281.563 187.665 281.889C187.151 282.215 186.553 282.378 185.868 282.378ZM185.868 281.331C186.388 281.331 186.816 281.198 187.151 280.931C187.487 280.665 187.736 280.314 187.897 279.88C188.058 279.446 188.139 278.975 188.139 278.468C188.139 277.962 188.058 277.489 187.897 277.052C187.736 276.614 187.487 276.26 187.151 275.99C186.816 275.721 186.388 275.586 185.868 275.586C185.348 275.586 184.92 275.721 184.585 275.99C184.249 276.26 184.001 276.614 183.839 277.052C183.678 277.489 183.597 277.962 183.597 278.468C183.597 278.975 183.678 279.446 183.839 279.88C184.001 280.314 184.249 280.665 184.585 280.931C184.92 281.198 185.348 281.331 185.868 281.331ZM194.458 274.638V275.625H190.371V274.638H194.458ZM191.595 282.22V273.591C191.595 273.157 191.697 272.795 191.901 272.506C192.105 272.216 192.37 271.999 192.696 271.854C193.022 271.709 193.366 271.637 193.728 271.637C194.014 271.637 194.247 271.66 194.428 271.706C194.609 271.752 194.744 271.795 194.833 271.834L194.498 272.841C194.438 272.821 194.356 272.797 194.251 272.767C194.149 272.738 194.014 272.723 193.846 272.723C193.461 272.723 193.183 272.82 193.012 273.014C192.844 273.208 192.76 273.493 192.76 273.868V282.22H191.595ZM196.091 282.22V274.638H197.256V282.22H196.091ZM196.683 273.374C196.456 273.374 196.26 273.297 196.096 273.142C195.934 272.988 195.854 272.802 195.854 272.584C195.854 272.367 195.934 272.181 196.096 272.027C196.26 271.872 196.456 271.795 196.683 271.795C196.91 271.795 197.104 271.872 197.265 272.027C197.43 272.181 197.512 272.367 197.512 272.584C197.512 272.802 197.43 272.988 197.265 273.142C197.104 273.297 196.91 273.374 196.683 273.374ZM202.687 274.638V275.625H198.757V274.638H202.687ZM199.903 272.821H201.068V280.048C201.068 280.377 201.115 280.624 201.211 280.788C201.309 280.95 201.434 281.058 201.586 281.114C201.74 281.167 201.903 281.193 202.074 281.193C202.203 281.193 202.308 281.186 202.39 281.173C202.473 281.157 202.538 281.144 202.588 281.134L202.825 282.18C202.746 282.21 202.636 282.239 202.494 282.269C202.353 282.302 202.173 282.318 201.956 282.318C201.627 282.318 201.304 282.248 200.989 282.106C200.676 281.965 200.416 281.749 200.209 281.46C200.005 281.17 199.903 280.805 199.903 280.364V272.821ZM206.67 282.397C206.19 282.397 205.753 282.307 205.362 282.126C204.97 281.942 204.659 281.677 204.429 281.331C204.199 280.982 204.083 280.561 204.083 280.068C204.083 279.633 204.169 279.281 204.34 279.011C204.511 278.738 204.74 278.524 205.026 278.37C205.313 278.215 205.628 278.1 205.974 278.024C206.323 277.945 206.673 277.883 207.025 277.836C207.486 277.777 207.86 277.733 208.146 277.703C208.435 277.67 208.646 277.616 208.778 277.54C208.913 277.465 208.98 277.333 208.98 277.145V277.106C208.98 276.619 208.847 276.24 208.58 275.971C208.317 275.701 207.917 275.566 207.381 275.566C206.825 275.566 206.389 275.688 206.073 275.931C205.757 276.175 205.535 276.435 205.406 276.711L204.301 276.316C204.498 275.855 204.761 275.497 205.09 275.24C205.423 274.98 205.785 274.799 206.176 274.697C206.571 274.592 206.96 274.539 207.341 274.539C207.585 274.539 207.864 274.569 208.18 274.628C208.5 274.684 208.807 274.801 209.103 274.978C209.403 275.156 209.651 275.424 209.849 275.783C210.046 276.142 210.145 276.622 210.145 277.224V282.22H208.98V281.193H208.921C208.842 281.358 208.71 281.534 208.526 281.721C208.342 281.909 208.096 282.068 207.79 282.2C207.484 282.332 207.111 282.397 206.67 282.397ZM206.848 281.351C207.308 281.351 207.697 281.26 208.013 281.079C208.332 280.899 208.572 280.665 208.733 280.379C208.898 280.092 208.98 279.791 208.98 279.475V278.409C208.931 278.468 208.822 278.523 208.654 278.572C208.49 278.618 208.299 278.659 208.082 278.695C207.868 278.728 207.659 278.758 207.455 278.784C207.254 278.807 207.091 278.827 206.966 278.843C206.663 278.883 206.38 278.947 206.117 279.036C205.857 279.122 205.647 279.251 205.485 279.426C205.327 279.597 205.248 279.831 205.248 280.127C205.248 280.532 205.398 280.838 205.698 281.045C206 281.249 206.384 281.351 206.848 281.351ZM212.429 282.22V272.111H213.594V275.842H213.693C213.778 275.711 213.897 275.543 214.048 275.339C214.203 275.132 214.423 274.947 214.71 274.786C214.999 274.621 215.391 274.539 215.884 274.539C216.523 274.539 217.085 274.699 217.573 275.018C218.06 275.337 218.44 275.79 218.713 276.375C218.986 276.961 219.122 277.652 219.122 278.449C219.122 279.251 218.986 279.947 218.713 280.537C218.44 281.122 218.061 281.576 217.577 281.899C217.094 282.218 216.536 282.378 215.904 282.378C215.417 282.378 215.027 282.297 214.734 282.136C214.441 281.971 214.216 281.785 214.058 281.578C213.9 281.367 213.778 281.193 213.693 281.055H213.555V282.22H212.429ZM213.574 278.429C213.574 279.001 213.658 279.507 213.826 279.944C213.994 280.379 214.239 280.719 214.562 280.966C214.884 281.209 215.279 281.331 215.746 281.331C216.233 281.331 216.64 281.203 216.965 280.946C217.294 280.686 217.541 280.337 217.706 279.9C217.874 279.459 217.958 278.968 217.958 278.429C217.958 277.896 217.875 277.415 217.711 276.987C217.549 276.556 217.304 276.216 216.975 275.966C216.649 275.712 216.24 275.586 215.746 275.586C215.272 275.586 214.874 275.706 214.552 275.946C214.229 276.183 213.986 276.515 213.821 276.943C213.657 277.368 213.574 277.863 213.574 278.429ZM222.069 272.111V282.22H220.904V272.111H222.069ZM227.382 282.378C226.651 282.378 226.021 282.216 225.491 281.894C224.965 281.568 224.558 281.114 224.272 280.532C223.989 279.946 223.848 279.265 223.848 278.488C223.848 277.711 223.989 277.027 224.272 276.435C224.558 275.839 224.956 275.375 225.467 275.043C225.98 274.707 226.579 274.539 227.263 274.539C227.658 274.539 228.048 274.605 228.433 274.737C228.818 274.868 229.169 275.082 229.485 275.378C229.8 275.671 230.052 276.059 230.24 276.543C230.427 277.027 230.521 277.623 230.521 278.33V278.824H224.677V277.817H229.336C229.336 277.389 229.251 277.007 229.08 276.672C228.912 276.336 228.672 276.071 228.359 275.877C228.05 275.683 227.684 275.586 227.263 275.586C226.799 275.586 226.398 275.701 226.059 275.931C225.723 276.158 225.465 276.454 225.284 276.82C225.103 277.185 225.012 277.577 225.012 277.994V278.666C225.012 279.238 225.111 279.724 225.309 280.122C225.509 280.517 225.787 280.818 226.143 281.025C226.498 281.229 226.911 281.331 227.382 281.331C227.688 281.331 227.964 281.288 228.211 281.203C228.461 281.114 228.677 280.982 228.858 280.808C229.039 280.63 229.178 280.41 229.277 280.147L230.403 280.462C230.284 280.844 230.085 281.18 229.805 281.469C229.526 281.756 229.18 281.98 228.769 282.141C228.357 282.299 227.895 282.378 227.382 282.378ZM239.283 282.378C238.572 282.378 237.96 282.21 237.446 281.874C236.933 281.539 236.538 281.076 236.262 280.487C235.985 279.898 235.847 279.225 235.847 278.468C235.847 277.698 235.989 277.019 236.272 276.43C236.558 275.837 236.956 275.375 237.466 275.043C237.98 274.707 238.578 274.539 239.263 274.539C239.796 274.539 240.276 274.638 240.704 274.835C241.132 275.033 241.482 275.309 241.756 275.665C242.029 276.02 242.198 276.435 242.264 276.909H241.099C241.01 276.563 240.813 276.257 240.507 275.99C240.204 275.721 239.796 275.586 239.283 275.586C238.829 275.586 238.43 275.704 238.088 275.941C237.749 276.175 237.484 276.505 237.293 276.933C237.106 277.358 237.012 277.856 237.012 278.429C237.012 279.015 237.104 279.525 237.288 279.959C237.476 280.393 237.739 280.731 238.078 280.971C238.42 281.211 238.822 281.331 239.283 281.331C239.585 281.331 239.86 281.279 240.107 281.173C240.354 281.068 240.563 280.917 240.734 280.719C240.905 280.522 241.027 280.285 241.099 280.008H242.264C242.198 280.456 242.035 280.859 241.775 281.218C241.519 281.573 241.178 281.856 240.754 282.067C240.332 282.274 239.842 282.378 239.283 282.378ZM248.745 279.12V274.638H249.91V282.22H248.745V280.936H248.666C248.488 281.321 248.212 281.649 247.837 281.919C247.462 282.185 246.988 282.318 246.415 282.318C245.941 282.318 245.52 282.215 245.152 282.007C244.783 281.797 244.493 281.481 244.283 281.06C244.072 280.635 243.967 280.101 243.967 279.456V274.638H245.132V279.377C245.132 279.929 245.287 280.37 245.596 280.699C245.908 281.028 246.307 281.193 246.79 281.193C247.08 281.193 247.375 281.119 247.674 280.971C247.977 280.823 248.23 280.596 248.434 280.29C248.641 279.984 248.745 279.594 248.745 279.12ZM257.414 276.336L256.368 276.632C256.302 276.458 256.205 276.288 256.076 276.124C255.951 275.956 255.78 275.818 255.563 275.709C255.346 275.6 255.068 275.546 254.729 275.546C254.265 275.546 253.878 275.653 253.569 275.867C253.263 276.078 253.11 276.346 253.11 276.672C253.11 276.961 253.215 277.19 253.426 277.358C253.636 277.526 253.965 277.665 254.413 277.777L255.538 278.054C256.216 278.218 256.721 278.47 257.054 278.809C257.386 279.145 257.552 279.577 257.552 280.107C257.552 280.541 257.427 280.93 257.177 281.272C256.93 281.614 256.585 281.884 256.141 282.082C255.696 282.279 255.18 282.378 254.591 282.378C253.817 282.378 253.177 282.21 252.671 281.874C252.164 281.539 251.843 281.048 251.708 280.403L252.814 280.127C252.919 280.535 253.118 280.841 253.411 281.045C253.707 281.249 254.094 281.351 254.571 281.351C255.114 281.351 255.545 281.236 255.864 281.005C256.187 280.772 256.348 280.492 256.348 280.166C256.348 279.903 256.256 279.683 256.071 279.505C255.887 279.324 255.604 279.189 255.222 279.1L253.959 278.804C253.264 278.639 252.754 278.384 252.429 278.039C252.106 277.69 251.945 277.254 251.945 276.731C251.945 276.303 252.065 275.925 252.305 275.596C252.549 275.266 252.879 275.008 253.297 274.821C253.719 274.633 254.196 274.539 254.729 274.539C255.479 274.539 256.068 274.704 256.496 275.033C256.927 275.362 257.233 275.796 257.414 276.336ZM262.603 274.638V275.625H258.674V274.638H262.603ZM259.819 272.821H260.984V280.048C260.984 280.377 261.032 280.624 261.127 280.788C261.226 280.95 261.351 281.058 261.502 281.114C261.657 281.167 261.82 281.193 261.991 281.193C262.119 281.193 262.225 281.186 262.307 281.173C262.389 281.157 262.455 281.144 262.504 281.134L262.741 282.18C262.662 282.21 262.552 282.239 262.411 282.269C262.269 282.302 262.09 282.318 261.873 282.318C261.544 282.318 261.221 282.248 260.905 282.106C260.593 281.965 260.333 281.749 260.125 281.46C259.921 281.17 259.819 280.805 259.819 280.364V272.821ZM267.354 282.378C266.67 282.378 266.069 282.215 265.552 281.889C265.039 281.563 264.638 281.107 264.348 280.522C264.062 279.936 263.919 279.251 263.919 278.468C263.919 277.679 264.062 276.989 264.348 276.4C264.638 275.811 265.039 275.354 265.552 275.028C266.069 274.702 266.67 274.539 267.354 274.539C268.039 274.539 268.637 274.702 269.151 275.028C269.667 275.354 270.069 275.811 270.355 276.4C270.645 276.989 270.79 277.679 270.79 278.468C270.79 279.251 270.645 279.936 270.355 280.522C270.069 281.107 269.667 281.563 269.151 281.889C268.637 282.215 268.039 282.378 267.354 282.378ZM267.354 281.331C267.874 281.331 268.302 281.198 268.637 280.931C268.973 280.665 269.222 280.314 269.383 279.88C269.544 279.446 269.625 278.975 269.625 278.468C269.625 277.962 269.544 277.489 269.383 277.052C269.222 276.614 268.973 276.26 268.637 275.99C268.302 275.721 267.874 275.586 267.354 275.586C266.834 275.586 266.406 275.721 266.071 275.99C265.735 276.26 265.487 276.614 265.325 277.052C265.164 277.489 265.084 277.962 265.084 278.468C265.084 278.975 265.164 279.446 265.325 279.88C265.487 280.314 265.735 280.665 266.071 280.931C266.406 281.198 266.834 281.331 267.354 281.331ZM272.568 282.22V274.638H273.693V275.823H273.792C273.95 275.418 274.205 275.104 274.557 274.88C274.909 274.653 275.332 274.539 275.826 274.539C276.326 274.539 276.742 274.653 277.074 274.88C277.41 275.104 277.672 275.418 277.859 275.823H277.938C278.132 275.431 278.424 275.12 278.812 274.89C279.2 274.656 279.666 274.539 280.209 274.539C280.887 274.539 281.441 274.751 281.872 275.176C282.303 275.597 282.519 276.254 282.519 277.145V282.22H281.354V277.145C281.354 276.586 281.201 276.186 280.895 275.946C280.589 275.706 280.229 275.586 279.814 275.586C279.281 275.586 278.868 275.747 278.575 276.069C278.282 276.389 278.136 276.793 278.136 277.284V282.22H276.951V277.027C276.951 276.596 276.811 276.249 276.532 275.985C276.252 275.719 275.891 275.586 275.451 275.586C275.148 275.586 274.865 275.666 274.602 275.828C274.342 275.989 274.131 276.213 273.97 276.499C273.812 276.782 273.733 277.109 273.733 277.481V282.22H272.568ZM287.828 282.378C287.097 282.378 286.467 282.216 285.937 281.894C285.411 281.568 285.004 281.114 284.718 280.532C284.435 279.946 284.293 279.265 284.293 278.488C284.293 277.711 284.435 277.027 284.718 276.435C285.004 275.839 285.402 275.375 285.913 275.043C286.426 274.707 287.025 274.539 287.709 274.539C288.104 274.539 288.494 274.605 288.879 274.737C289.264 274.868 289.615 275.082 289.931 275.378C290.246 275.671 290.498 276.059 290.686 276.543C290.873 277.027 290.967 277.623 290.967 278.33V278.824H285.123V277.817H289.782C289.782 277.389 289.697 277.007 289.526 276.672C289.358 276.336 289.118 276.071 288.805 275.877C288.496 275.683 288.13 275.586 287.709 275.586C287.245 275.586 286.844 275.701 286.505 275.931C286.169 276.158 285.911 276.454 285.73 276.82C285.549 277.185 285.458 277.577 285.458 277.994V278.666C285.458 279.238 285.557 279.724 285.755 280.122C285.955 280.517 286.233 280.818 286.589 281.025C286.944 281.229 287.357 281.331 287.828 281.331C288.134 281.331 288.41 281.288 288.657 281.203C288.907 281.114 289.123 280.982 289.304 280.808C289.485 280.63 289.624 280.41 289.723 280.147L290.849 280.462C290.73 280.844 290.531 281.18 290.251 281.469C289.972 281.756 289.626 281.98 289.215 282.141C288.803 282.299 288.341 282.378 287.828 282.378ZM292.739 282.22V274.638H293.865V275.783H293.944C294.082 275.408 294.332 275.104 294.694 274.87C295.056 274.636 295.464 274.519 295.918 274.519C296.004 274.519 296.11 274.521 296.239 274.524C296.367 274.528 296.464 274.533 296.53 274.539V275.724C296.491 275.714 296.4 275.699 296.259 275.679C296.12 275.656 295.974 275.645 295.819 275.645C295.451 275.645 295.122 275.722 294.832 275.877C294.546 276.028 294.319 276.239 294.151 276.509C293.986 276.775 293.904 277.08 293.904 277.422V282.22H292.739ZM299.431 279.377V279.317C299.438 278.689 299.504 278.189 299.629 277.817C299.754 277.445 299.931 277.144 300.162 276.913C300.392 276.683 300.669 276.471 300.991 276.277C301.185 276.158 301.36 276.018 301.514 275.857C301.669 275.693 301.791 275.503 301.88 275.289C301.972 275.076 302.018 274.839 302.018 274.579C302.018 274.256 301.942 273.976 301.791 273.74C301.639 273.503 301.437 273.32 301.184 273.192C300.93 273.063 300.649 272.999 300.339 272.999C300.07 272.999 299.81 273.055 299.56 273.167C299.309 273.279 299.101 273.455 298.933 273.695C298.765 273.935 298.668 274.25 298.641 274.638H297.398C297.424 274.078 297.569 273.6 297.832 273.202C298.098 272.803 298.449 272.499 298.883 272.288C299.321 272.078 299.806 271.972 300.339 271.972C300.919 271.972 301.422 272.088 301.85 272.318C302.281 272.548 302.613 272.864 302.847 273.266C303.084 273.667 303.202 274.125 303.202 274.638C303.202 275 303.146 275.327 303.035 275.62C302.926 275.913 302.768 276.175 302.561 276.405C302.357 276.635 302.11 276.839 301.82 277.017C301.531 277.198 301.299 277.389 301.124 277.59C300.95 277.787 300.823 278.022 300.744 278.296C300.665 278.569 300.622 278.909 300.616 279.317V279.377H299.431ZM300.063 282.299C299.82 282.299 299.611 282.211 299.436 282.037C299.262 281.863 299.175 281.654 299.175 281.41C299.175 281.167 299.262 280.958 299.436 280.783C299.611 280.609 299.82 280.522 300.063 280.522C300.307 280.522 300.516 280.609 300.69 280.783C300.864 280.958 300.952 281.167 300.952 281.41C300.952 281.571 300.91 281.72 300.828 281.854C300.749 281.989 300.642 282.098 300.507 282.18C300.376 282.259 300.228 282.299 300.063 282.299Z" fill="#A1A1AA"/>
</g>
</g>
</g>
<path d="M192.641 126.22C192.641 119.592 198.013 114.22 204.641 114.22H388.361C394.988 114.22 400.361 119.592 400.361 126.22V158.22C400.361 164.847 394.988 170.22 388.361 170.22H204.641C198.013 170.22 192.641 164.847 192.641 158.22V126.22Z" fill="#22D3EE" fill-opacity="0.1"/>
<g filter="url(#filter3_ddi_1_117)">
<path d="M200.641 128.22C200.641 124.906 203.327 122.22 206.641 122.22H386.361C389.674 122.22 392.361 124.906 392.361 128.22V156.22C392.361 159.533 389.674 162.22 386.361 162.22H206.641C203.327 162.22 200.641 159.533 200.641 156.22V128.22Z" fill="#0891B2"/>
<path d="M213.751 146.72V136.611H215.276V141.004H220.316V136.611H221.846V146.72H220.316V142.312H215.276V146.72H213.751ZM227.217 146.873C226.47 146.873 225.827 146.713 225.287 146.394C224.75 146.071 224.336 145.619 224.043 145.037C223.753 144.451 223.609 143.765 223.609 142.978C223.609 142.202 223.753 141.517 224.043 140.925C224.336 140.332 224.744 139.87 225.267 139.538C225.794 139.205 226.409 139.039 227.113 139.039C227.541 139.039 227.956 139.11 228.357 139.251C228.759 139.393 229.119 139.615 229.438 139.918C229.757 140.221 230.009 140.614 230.193 141.098C230.378 141.578 230.47 142.162 230.47 142.85V143.373H224.443V142.267H229.023C229.023 141.879 228.944 141.535 228.787 141.236C228.629 140.933 228.406 140.694 228.12 140.52C227.837 140.346 227.505 140.258 227.123 140.258C226.708 140.258 226.346 140.36 226.037 140.564C225.731 140.765 225.494 141.028 225.326 141.354C225.162 141.677 225.08 142.027 225.08 142.406V143.269C225.08 143.776 225.168 144.207 225.346 144.563C225.527 144.918 225.779 145.19 226.101 145.377C226.424 145.561 226.801 145.654 227.232 145.654C227.511 145.654 227.766 145.614 227.997 145.535C228.227 145.453 228.426 145.331 228.594 145.17C228.762 145.009 228.89 144.809 228.979 144.573L230.376 144.824C230.264 145.236 230.063 145.596 229.774 145.905C229.487 146.211 229.127 146.45 228.693 146.621C228.262 146.789 227.77 146.873 227.217 146.873ZM232.823 149.563C232.603 149.563 232.402 149.545 232.221 149.509C232.04 149.476 231.905 149.44 231.816 149.4L232.171 148.191C232.441 148.263 232.682 148.294 232.892 148.284C233.103 148.275 233.289 148.196 233.45 148.048C233.614 147.899 233.759 147.658 233.884 147.322L234.067 146.818L231.293 139.138H232.872L234.793 145.022H234.871L236.792 139.138H238.376L235.252 147.732C235.107 148.127 234.922 148.461 234.699 148.734C234.475 149.01 234.208 149.217 233.899 149.356C233.59 149.494 233.231 149.563 232.823 149.563ZM241.624 136.611L241.496 143.812H240.128L240 136.611H241.624ZM240.815 146.814C240.541 146.814 240.308 146.718 240.114 146.527C239.919 146.333 239.824 146.099 239.827 145.826C239.824 145.556 239.919 145.326 240.114 145.135C240.308 144.941 240.541 144.844 240.815 144.844C241.081 144.844 241.311 144.941 241.506 145.135C241.7 145.326 241.798 145.556 241.802 145.826C241.798 146.007 241.751 146.173 241.659 146.325C241.57 146.473 241.451 146.591 241.303 146.68C241.155 146.769 240.992 146.814 240.815 146.814ZM247.646 146.72V136.611H249.171V141.004H254.211V136.611H255.741V146.72H254.211V142.312H249.171V146.72H247.646ZM261.038 146.873C260.327 146.873 259.707 146.71 259.177 146.384C258.647 146.058 258.236 145.603 257.943 145.017C257.65 144.431 257.503 143.747 257.503 142.963C257.503 142.177 257.65 141.489 257.943 140.9C258.236 140.311 258.647 139.854 259.177 139.528C259.707 139.202 260.327 139.039 261.038 139.039C261.748 139.039 262.369 139.202 262.899 139.528C263.428 139.854 263.84 140.311 264.133 140.9C264.425 141.489 264.572 142.177 264.572 142.963C264.572 143.747 264.425 144.431 264.133 145.017C263.84 145.603 263.428 146.058 262.899 146.384C262.369 146.71 261.748 146.873 261.038 146.873ZM261.043 145.634C261.503 145.634 261.885 145.512 262.188 145.269C262.491 145.025 262.714 144.701 262.859 144.296C263.007 143.891 263.081 143.445 263.081 142.958C263.081 142.475 263.007 142.03 262.859 141.626C262.714 141.218 262.491 140.89 262.188 140.643C261.885 140.397 261.503 140.273 261.043 140.273C260.579 140.273 260.194 140.397 259.888 140.643C259.585 140.89 259.359 141.218 259.211 141.626C259.067 142.03 258.994 142.475 258.994 142.958C258.994 143.445 259.067 143.891 259.211 144.296C259.359 144.701 259.585 145.025 259.888 145.269C260.194 145.512 260.579 145.634 261.043 145.634ZM267.632 146.72L265.401 139.138H266.926L268.412 144.706H268.486L269.977 139.138H271.502L272.983 144.681H273.057L274.533 139.138H276.058L273.832 146.72H272.326L270.786 141.246H270.673L269.133 146.72H267.632ZM284.331 146.873C283.597 146.873 282.965 146.707 282.436 146.374C281.909 146.039 281.504 145.576 281.221 144.987C280.938 144.398 280.797 143.724 280.797 142.963C280.797 142.193 280.942 141.514 281.231 140.925C281.521 140.332 281.929 139.87 282.455 139.538C282.982 139.205 283.602 139.039 284.316 139.039C284.892 139.039 285.405 139.146 285.856 139.36C286.307 139.571 286.671 139.867 286.947 140.249C287.227 140.63 287.393 141.076 287.446 141.586H286.009C285.93 141.231 285.749 140.925 285.466 140.668C285.187 140.411 284.811 140.283 284.341 140.283C283.93 140.283 283.569 140.392 283.26 140.609C282.954 140.823 282.715 141.129 282.544 141.527C282.373 141.922 282.287 142.389 282.287 142.929C282.287 143.482 282.371 143.959 282.539 144.36C282.707 144.762 282.944 145.073 283.25 145.293C283.559 145.514 283.923 145.624 284.341 145.624C284.621 145.624 284.874 145.573 285.101 145.471C285.331 145.366 285.524 145.216 285.679 145.022C285.837 144.828 285.947 144.594 286.009 144.321H287.446C287.393 144.811 287.233 145.249 286.967 145.634C286.7 146.019 286.343 146.322 285.896 146.542C285.452 146.763 284.93 146.873 284.331 146.873ZM291.23 146.888C290.75 146.888 290.316 146.799 289.927 146.621C289.539 146.44 289.231 146.178 289.004 145.836C288.78 145.494 288.669 145.074 288.669 144.577C288.669 144.15 288.751 143.798 288.915 143.521C289.08 143.245 289.302 143.026 289.582 142.865C289.861 142.703 290.174 142.582 290.52 142.499C290.865 142.417 291.217 142.355 291.576 142.312C292.03 142.259 292.399 142.216 292.682 142.183C292.965 142.147 293.17 142.09 293.299 142.011C293.427 141.932 293.491 141.803 293.491 141.626V141.591C293.491 141.16 293.369 140.826 293.126 140.589C292.886 140.352 292.527 140.234 292.05 140.234C291.553 140.234 291.161 140.344 290.875 140.564C290.592 140.782 290.396 141.023 290.288 141.29L288.901 140.974C289.065 140.513 289.305 140.142 289.621 139.859C289.94 139.572 290.307 139.365 290.722 139.237C291.137 139.105 291.573 139.039 292.03 139.039C292.333 139.039 292.654 139.075 292.993 139.148C293.335 139.217 293.654 139.345 293.95 139.533C294.25 139.72 294.495 139.989 294.686 140.337C294.877 140.683 294.972 141.132 294.972 141.685V146.72H293.531V145.683H293.471C293.376 145.874 293.233 146.062 293.042 146.246C292.851 146.43 292.606 146.583 292.306 146.705C292.007 146.827 291.648 146.888 291.23 146.888ZM291.551 145.703C291.959 145.703 292.308 145.622 292.598 145.461C292.891 145.3 293.113 145.089 293.264 144.829C293.419 144.566 293.496 144.285 293.496 143.985V143.008C293.443 143.06 293.341 143.11 293.19 143.156C293.042 143.199 292.872 143.236 292.682 143.269C292.491 143.299 292.305 143.327 292.124 143.353C291.943 143.376 291.791 143.396 291.67 143.413C291.383 143.449 291.122 143.51 290.885 143.595C290.651 143.681 290.464 143.804 290.322 143.965C290.184 144.123 290.115 144.334 290.115 144.597C290.115 144.962 290.25 145.239 290.52 145.426C290.789 145.611 291.133 145.703 291.551 145.703ZM298.414 142.218V146.72H296.938V139.138H298.354V140.372H298.448C298.623 139.97 298.896 139.648 299.268 139.404C299.643 139.161 300.115 139.039 300.684 139.039C301.201 139.039 301.653 139.148 302.042 139.365C302.43 139.579 302.731 139.898 302.945 140.323C303.159 140.747 303.266 141.272 303.266 141.897V146.72H301.79V142.075C301.79 141.525 301.647 141.096 301.36 140.787C301.074 140.474 300.681 140.318 300.181 140.318C299.839 140.318 299.534 140.392 299.268 140.54C299.004 140.688 298.795 140.905 298.641 141.191C298.489 141.474 298.414 141.817 298.414 142.218ZM310.568 136.611V146.72H309.042V136.611H310.568ZM317.825 142.218V146.72H316.349V136.611H317.805V140.372H317.899C318.077 139.964 318.348 139.64 318.713 139.4C319.079 139.159 319.556 139.039 320.145 139.039C320.665 139.039 321.119 139.146 321.507 139.36C321.899 139.574 322.201 139.893 322.415 140.318C322.633 140.739 322.741 141.265 322.741 141.897V146.72H321.265V142.075C321.265 141.519 321.122 141.088 320.836 140.782C320.549 140.472 320.151 140.318 319.641 140.318C319.292 140.318 318.98 140.392 318.703 140.54C318.43 140.688 318.215 140.905 318.057 141.191C317.902 141.474 317.825 141.817 317.825 142.218ZM327.978 146.873C327.231 146.873 326.588 146.713 326.048 146.394C325.512 146.071 325.097 145.619 324.804 145.037C324.515 144.451 324.37 143.765 324.37 142.978C324.37 142.202 324.515 141.517 324.804 140.925C325.097 140.332 325.505 139.87 326.029 139.538C326.555 139.205 327.17 139.039 327.875 139.039C328.302 139.039 328.717 139.11 329.119 139.251C329.52 139.393 329.88 139.615 330.2 139.918C330.519 140.221 330.77 140.614 330.955 141.098C331.139 141.578 331.231 142.162 331.231 142.85V143.373H325.204V142.267H329.785C329.785 141.879 329.706 141.535 329.548 141.236C329.39 140.933 329.168 140.694 328.882 140.52C328.599 140.346 328.266 140.258 327.885 140.258C327.47 140.258 327.108 140.36 326.799 140.564C326.493 140.765 326.256 141.028 326.088 141.354C325.923 141.677 325.841 142.027 325.841 142.406V143.269C325.841 143.776 325.93 144.207 326.108 144.563C326.289 144.918 326.54 145.19 326.863 145.377C327.185 145.561 327.562 145.654 327.993 145.654C328.273 145.654 328.528 145.614 328.758 145.535C328.989 145.453 329.188 145.331 329.355 145.17C329.523 145.009 329.652 144.809 329.74 144.573L331.137 144.824C331.025 145.236 330.825 145.596 330.535 145.905C330.249 146.211 329.889 146.45 329.454 146.621C329.023 146.789 328.531 146.873 327.978 146.873ZM334.345 136.611V146.72H332.869V136.611H334.345ZM336.33 149.563V139.138H337.771V140.367H337.895C337.98 140.209 338.104 140.026 338.265 139.819C338.426 139.612 338.65 139.431 338.936 139.276C339.223 139.118 339.601 139.039 340.072 139.039C340.684 139.039 341.23 139.194 341.71 139.503C342.191 139.813 342.568 140.258 342.841 140.841C343.117 141.423 343.255 142.124 343.255 142.944C343.255 143.763 343.119 144.466 342.846 145.051C342.573 145.634 342.197 146.083 341.72 146.399C341.243 146.711 340.699 146.868 340.086 146.868C339.626 146.868 339.249 146.79 338.956 146.636C338.667 146.481 338.439 146.3 338.275 146.093C338.11 145.886 337.984 145.701 337.895 145.54H337.806V149.563H336.33ZM337.776 142.929C337.776 143.462 337.854 143.929 338.008 144.331C338.163 144.732 338.387 145.046 338.68 145.273C338.973 145.497 339.331 145.609 339.756 145.609C340.197 145.609 340.565 145.492 340.861 145.259C341.158 145.022 341.381 144.701 341.533 144.296C341.687 143.891 341.765 143.436 341.765 142.929C341.765 142.429 341.689 141.979 341.538 141.581C341.39 141.183 341.166 140.869 340.866 140.638C340.57 140.408 340.2 140.293 339.756 140.293C339.328 140.293 338.966 140.403 338.67 140.624C338.377 140.844 338.155 141.152 338.003 141.547C337.852 141.942 337.776 142.402 337.776 142.929ZM349.521 149.563C349.3 149.563 349.099 149.545 348.918 149.509C348.737 149.476 348.602 149.44 348.514 149.4L348.869 148.191C349.139 148.263 349.379 148.294 349.59 148.284C349.8 148.275 349.986 148.196 350.147 148.048C350.312 147.899 350.457 147.658 350.582 147.322L350.764 146.818L347.99 139.138H349.57L351.49 145.022H351.569L353.489 139.138H355.074L351.949 147.732C351.804 148.127 351.62 148.461 351.396 148.734C351.173 149.01 350.906 149.217 350.597 149.356C350.287 149.494 349.929 149.563 349.521 149.563ZM359.396 146.873C358.686 146.873 358.065 146.71 357.536 146.384C357.006 146.058 356.594 145.603 356.302 145.017C356.009 144.431 355.862 143.747 355.862 142.963C355.862 142.177 356.009 141.489 356.302 140.9C356.594 140.311 357.006 139.854 357.536 139.528C358.065 139.202 358.686 139.039 359.396 139.039C360.107 139.039 360.728 139.202 361.257 139.528C361.787 139.854 362.198 140.311 362.491 140.9C362.784 141.489 362.931 142.177 362.931 142.963C362.931 143.747 362.784 144.431 362.491 145.017C362.198 145.603 361.787 146.058 361.257 146.384C360.728 146.71 360.107 146.873 359.396 146.873ZM359.401 145.634C359.862 145.634 360.244 145.512 360.547 145.269C360.849 145.025 361.073 144.701 361.218 144.296C361.366 143.891 361.44 143.445 361.44 142.958C361.44 142.475 361.366 142.03 361.218 141.626C361.073 141.218 360.849 140.89 360.547 140.643C360.244 140.397 359.862 140.273 359.401 140.273C358.937 140.273 358.552 140.397 358.246 140.643C357.944 140.89 357.718 141.218 357.57 141.626C357.425 142.03 357.353 142.475 357.353 142.958C357.353 143.445 357.425 143.891 357.57 144.296C357.718 144.701 357.944 145.025 358.246 145.269C358.552 145.512 358.937 145.634 359.401 145.634ZM369.381 143.575V139.138H370.862V146.72H369.411V145.407H369.332C369.157 145.811 368.877 146.149 368.492 146.419C368.111 146.685 367.635 146.818 367.066 146.818C366.579 146.818 366.148 146.711 365.773 146.498C365.401 146.28 365.108 145.96 364.894 145.535C364.683 145.111 364.578 144.586 364.578 143.96V139.138H366.054V143.783C366.054 144.299 366.197 144.711 366.483 145.017C366.77 145.323 367.142 145.476 367.599 145.476C367.875 145.476 368.15 145.407 368.423 145.269C368.7 145.13 368.928 144.921 369.109 144.642C369.294 144.362 369.384 144.007 369.381 143.575ZM374.459 143.812V143.719C374.465 143.107 374.526 142.619 374.642 142.258C374.76 141.896 374.928 141.603 375.145 141.379C375.362 141.155 375.624 140.951 375.93 140.767C376.127 140.642 376.305 140.502 376.463 140.347C376.621 140.193 376.746 140.015 376.838 139.814C376.93 139.613 376.976 139.391 376.976 139.148C376.976 138.855 376.907 138.602 376.769 138.388C376.631 138.174 376.446 138.009 376.216 137.894C375.989 137.776 375.736 137.716 375.456 137.716C375.203 137.716 374.961 137.769 374.73 137.874C374.5 137.98 374.309 138.144 374.158 138.368C374.006 138.588 373.919 138.873 373.896 139.222H372.396C372.419 138.629 372.568 138.129 372.845 137.721C373.121 137.31 373.486 136.999 373.941 136.788C374.398 136.578 374.903 136.472 375.456 136.472C376.061 136.472 376.591 136.586 377.045 136.813C377.5 137.037 377.852 137.351 378.102 137.756C378.355 138.157 378.482 138.626 378.482 139.163C378.482 139.531 378.424 139.864 378.309 140.16C378.194 140.453 378.029 140.714 377.815 140.945C377.605 141.175 377.351 141.379 377.055 141.557C376.776 141.731 376.548 141.912 376.374 142.1C376.203 142.287 376.078 142.509 375.999 142.766C375.92 143.023 375.877 143.34 375.871 143.719V143.812H374.459ZM375.204 146.814C374.934 146.814 374.702 146.718 374.508 146.527C374.314 146.333 374.217 146.099 374.217 145.826C374.217 145.556 374.314 145.326 374.508 145.135C374.702 144.941 374.934 144.844 375.204 144.844C375.471 144.844 375.701 144.941 375.895 145.135C376.093 145.326 376.191 145.556 376.191 145.826C376.191 146.007 376.145 146.173 376.053 146.325C375.964 146.473 375.846 146.591 375.698 146.68C375.55 146.769 375.385 146.814 375.204 146.814Z" fill="#E4E4E7"/>
</g>
</g>
<defs>
<filter id="filter0_dddd_1_117" x="27.5" y="249.22" width="538" height="62" filterUnits="userSpaceOnUse" color-interpolation-filters="sRGB">
<feFlood flood-opacity="0" result="BackgroundImageFix"/>
<feColorMatrix in="SourceAlpha" type="matrix" values="0 0 0 0 0 0 0 0 0 0 0 0 0 0 0 0 0 0 127 0" result="hardAlpha"/>
<feOffset/>
<feComposite in2="hardAlpha" operator="out"/>
<feColorMatrix type="matrix" values="0 0 0 0 1 0 0 0 0 1 0 0 0 0 1 0 0 0 1 0"/>
<feBlend mode="normal" in2="BackgroundImageFix" result="effect1_dropShadow_1_117"/>
<feColorMatrix in="SourceAlpha" type="matrix" values="0 0 0 0 0 0 0 0 0 0 0 0 0 0 0 0 0 0 127 0" result="hardAlpha"/>
<feMorphology radius="1" operator="dilate" in="SourceAlpha" result="effect2_dropShadow_1_117"/>
<feOffset/>
<feComposite in2="hardAlpha" operator="out"/>
<feColorMatrix type="matrix" values="0 0 0 0 0.894118 0 0 0 0 0.894118 0 0 0 0 0.905882 0 0 0 0.1 0"/>
<feBlend mode="normal" in2="effect1_dropShadow_1_117" result="effect2_dropShadow_1_117"/>
<feColorMatrix in="SourceAlpha" type="matrix" values="0 0 0 0 0 0 0 0 0 0 0 0 0 0 0 0 0 0 127 0" result="hardAlpha"/>
<feMorphology radius="1" operator="erode" in="SourceAlpha" result="effect3_dropShadow_1_117"/>
<feOffset dy="4"/>
<feGaussianBlur stdDeviation="3"/>
<feComposite in2="hardAlpha" operator="out"/>
<feColorMatrix type="matrix" values="0 0 0 0 0 0 0 0 0 0 0 0 0 0 0 0 0 0 0.1 0"/>
<feBlend mode="normal" in2="effect2_dropShadow_1_117" result="effect3_dropShadow_1_117"/>
<feColorMatrix in="SourceAlpha" type="matrix" values="0 0 0 0 0 0 0 0 0 0 0 0 0 0 0 0 0 0 127 0" result="hardAlpha"/>
<feMorphology radius="2" operator="erode" in="SourceAlpha" result="effect4_dropShadow_1_117"/>
<feOffset dy="2"/>
<feGaussianBlur stdDeviation="2"/>
<feComposite in2="hardAlpha" operator="out"/>
<feColorMatrix type="matrix" values="0 0 0 0 0 0 0 0 0 0 0 0 0 0 0 0 0 0 0.1 0"/>
<feBlend mode="normal" in2="effect3_dropShadow_1_117" result="effect4_dropShadow_1_117"/>
<feBlend mode="normal" in="SourceGraphic" in2="effect4_dropShadow_1_117" result="shape"/>
</filter>
<filter id="filter1_f_1_117" x="433.375" y="242.22" width="131.13" height="68" filterUnits="userSpaceOnUse" color-interpolation-filters="sRGB">
<feFlood flood-opacity="0" result="BackgroundImageFix"/>
<feBlend mode="normal" in="SourceGraphic" in2="BackgroundImageFix" result="shape"/>
<feGaussianBlur stdDeviation="8" result="effect1_foregroundBlur_1_117"/>
</filter>
<filter id="filter2_dd_1_117" x="448.375" y="257.22" width="101.13" height="38" filterUnits="userSpaceOnUse" color-interpolation-filters="sRGB">
<feFlood flood-opacity="0" result="BackgroundImageFix"/>
<feColorMatrix in="SourceAlpha" type="matrix" values="0 0 0 0 0 0 0 0 0 0 0 0 0 0 0 0 0 0 127 0" result="hardAlpha"/>
<feOffset/>
<feComposite in2="hardAlpha" operator="out"/>
<feColorMatrix type="matrix" values="0 0 0 0 1 0 0 0 0 1 0 0 0 0 1 0 0 0 1 0"/>
<feBlend mode="normal" in2="BackgroundImageFix" result="effect1_dropShadow_1_117"/>
<feColorMatrix in="SourceAlpha" type="matrix" values="0 0 0 0 0 0 0 0 0 0 0 0 0 0 0 0 0 0 127 0" result="hardAlpha"/>
<feMorphology radius="1" operator="dilate" in="SourceAlpha" result="effect2_dropShadow_1_117"/>
<feOffset/>
<feComposite in2="hardAlpha" operator="out"/>
<feColorMatrix type="matrix" values="0 0 0 0 0.631373 0 0 0 0 0.631373 0 0 0 0 0.666667 0 0 0 0.1 0"/>
<feBlend mode="normal" in2="effect1_dropShadow_1_117" result="effect2_dropShadow_1_117"/>
<feBlend mode="normal" in="SourceGraphic" in2="effect2_dropShadow_1_117" result="shape"/>
</filter>
<filter id="filter3_ddi_1_117" x="197.641" y="120.22" width="197.72" height="46" filterUnits="userSpaceOnUse" color-interpolation-filters="sRGB">
<feFlood flood-opacity="0" result="BackgroundImageFix"/>
<feColorMatrix in="SourceAlpha" type="matrix" values="0 0 0 0 0 0 0 0 0 0 0 0 0 0 0 0 0 0 127 0" result="hardAlpha"/>
<feOffset dy="1"/>
<feGaussianBlur stdDeviation="1.5"/>
<feComposite in2="hardAlpha" operator="out"/>
<feColorMatrix type="matrix" values="0 0 0 0 0.0235294 0 0 0 0 0.713726 0 0 0 0 0.831373 0 0 0 0.35 0"/>
<feBlend mode="normal" in2="BackgroundImageFix" result="effect1_dropShadow_1_117"/>
<feColorMatrix in="SourceAlpha" type="matrix" values="0 0 0 0 0 0 0 0 0 0 0 0 0 0 0 0 0 0 127 0" result="hardAlpha"/>
<feMorphology radius="1" operator="dilate" in="SourceAlpha" result="effect2_dropShadow_1_117"/>
<feOffset/>
<feComposite in2="hardAlpha" operator="out"/>
<feColorMatrix type="matrix" values="0 0 0 0 0.0235294 0 0 0 0 0.713726 0 0 0 0 0.831373 0 0 0 1 0"/>
<feBlend mode="normal" in2="effect1_dropShadow_1_117" result="effect2_dropShadow_1_117"/>
<feBlend mode="normal" in="SourceGraphic" in2="effect2_dropShadow_1_117" result="shape"/>
<feColorMatrix in="SourceAlpha" type="matrix" values="0 0 0 0 0 0 0 0 0 0 0 0 0 0 0 0 0 0 127 0" result="hardAlpha"/>
<feOffset dy="1"/>
<feGaussianBlur stdDeviation="0.5"/>
<feComposite in2="hardAlpha" operator="arithmetic" k2="-1" k3="1"/>
<feColorMatrix type="matrix" values="0 0 0 0 1 0 0 0 0 1 0 0 0 0 1 0 0 0 0.3 0"/>
<feBlend mode="normal" in2="shape" result="effect3_innerShadow_1_117"/>
</filter>
<linearGradient id="paint0_linear_1_117" x1="0" y1="18" x2="99.13" y2="18" gradientUnits="userSpaceOnUse">
<stop stop-color="#FFD600" stop-opacity="0.2"/>
<stop offset="0.1" stop-color="#FF2E00" stop-opacity="0.3"/>
<stop offset="0.25" stop-color="#DB00FF" stop-opacity="0.5"/>
<stop offset="0.45" stop-color="#6100FF"/>
<stop offset="0.65" stop-color="#00FF75"/>
<stop offset="0.8" stop-color="#00FFFF"/>
<stop offset="1" stop-color="#1400FF" stop-opacity="0.3"/>
</linearGradient>
<clipPath id="clip0_1_117">
<rect width="592" height="366" fill="white" transform="translate(0.5 0.219727)"/>
</clipPath>
<clipPath id="clip1_1_117">
<path d="M32.5 256.22C32.5 252.906 35.1863 250.22 38.5 250.22H554.5C557.814 250.22 560.5 252.906 560.5 256.22V296.22C560.5 299.533 557.814 302.22 554.5 302.22H38.5C35.1863 302.22 32.5 299.533 32.5 296.22V256.22Z" fill="white"/>
</clipPath>
<clipPath id="clip2_1_117">
<rect width="253.43" height="27" fill="white" transform="translate(44.5 262.72)"/>
</clipPath>
</defs>
</svg>
