<svg width="697" height="289" viewBox="0 0 697 289" fill="none" xmlns="http://www.w3.org/2000/svg">
<mask id="mask0_1_206" style="mask-type:alpha" maskUnits="userSpaceOnUse" x="0" y="0" width="697" height="289">
<rect width="696" height="288" transform="translate(0.5 0.860352)" fill="url(#paint0_radial_1_206)"/>
</mask>
<g mask="url(#mask0_1_206)">
<g filter="url(#filter0_dd_1_206)">
<path d="M32.5 32.8604C32.5 15.1872 46.8269 0.860352 64.5 0.860352C82.1731 0.860352 96.5 15.1872 96.5 32.8604C96.5 50.5335 82.1731 64.8604 64.5 64.8604C46.8269 64.8604 32.5 50.5335 32.5 32.8604Z" fill="#09090B"/>
<g clip-path="url(#clip0_1_206)">
<path d="M55.25 37.0704C55.25 37.735 55.0529 38.3846 54.6837 38.9372C54.3145 39.4897 53.7898 39.9204 53.1758 40.1747C52.5619 40.429 51.8863 40.4955 51.2345 40.3659C50.5827 40.2362 49.984 39.9162 49.5141 39.4463C49.0442 38.9764 48.7242 38.3777 48.5946 37.726C48.4649 37.0742 48.5315 36.3986 48.7858 35.7846C49.0401 35.1707 49.4707 34.6459 50.0233 34.2767C50.5758 33.9075 51.2255 33.7104 51.89 33.7104H55.25V37.0704ZM56.93 37.0704C56.93 36.1793 57.284 35.3247 57.9141 34.6946C58.5442 34.0644 59.3989 33.7104 60.29 33.7104C61.1811 33.7104 62.0358 34.0644 62.6659 34.6946C63.296 35.3247 63.65 36.1793 63.65 37.0704V45.4704C63.65 46.3616 63.296 47.2162 62.6659 47.8463C62.0358 48.4764 61.1811 48.8304 60.29 48.8304C59.3989 48.8304 58.5442 48.4764 57.9141 47.8463C57.284 47.2162 56.93 46.3616 56.93 45.4704V37.0704Z" fill="#E01E5A"/>
<path d="M60.29 23.5804C59.6255 23.5804 58.9758 23.3833 58.4233 23.0141C57.8707 22.6449 57.4401 22.1201 57.1858 21.5062C56.9315 20.8922 56.8649 20.2166 56.9946 19.5648C57.1242 18.9131 57.4442 18.3144 57.9141 17.8445C58.384 17.3746 58.9827 17.0546 59.6345 16.9249C60.2863 16.7953 60.9619 16.8618 61.5758 17.1161C62.1898 17.3704 62.7145 17.8011 63.0837 18.3536C63.4529 18.9062 63.65 19.5558 63.65 20.2204V23.5804H60.29ZM60.29 25.2804C61.1825 25.2804 62.0384 25.6349 62.6694 26.2659C63.3005 26.897 63.655 27.7529 63.655 28.6454C63.655 29.5378 63.3005 30.3937 62.6694 31.0248C62.0384 31.6558 61.1825 32.0104 60.29 32.0104H51.86C51.4188 32.0104 50.9818 31.9234 50.5742 31.7546C50.1665 31.5857 49.7961 31.3382 49.4841 31.0262C49.1721 30.7142 48.9246 30.3438 48.7558 29.9362C48.5869 29.5285 48.5 29.0916 48.5 28.6504C48.5 28.2091 48.5869 27.7722 48.7558 27.3645C48.9246 26.9569 49.1721 26.5865 49.4841 26.2745C49.7961 25.9625 50.1665 25.715 50.5742 25.5461C50.9818 25.3773 51.4188 25.2904 51.86 25.2904H60.29V25.2804Z" fill="#36C5F0"/>
<path d="M73.75 28.6504C73.75 27.9858 73.9471 27.3362 74.3163 26.7836C74.6855 26.2311 75.2102 25.8004 75.8242 25.5461C76.4381 25.2918 77.1137 25.2253 77.7655 25.3549C78.4173 25.4846 79.016 25.8046 79.4859 26.2745C79.9558 26.7444 80.2758 27.3431 80.4054 27.9948C80.5351 28.6466 80.4686 29.3222 80.2142 29.9362C79.9599 30.5501 79.5293 31.0749 78.9767 31.4441C78.4242 31.8133 77.7746 32.0104 77.11 32.0104H73.75V28.6504ZM72.07 28.6504C72.07 29.5415 71.716 30.3961 71.0859 31.0262C70.4558 31.6564 69.6011 32.0104 68.71 32.0104C67.8189 32.0104 66.9642 31.6564 66.3341 31.0262C65.704 30.3961 65.35 29.5415 65.35 28.6504V20.2204C65.35 19.3292 65.704 18.4746 66.3341 17.8445C66.9642 17.2144 67.8189 16.8604 68.71 16.8604C69.6011 16.8604 70.4558 17.2144 71.0859 17.8445C71.716 18.4746 72.07 19.3292 72.07 20.2204V28.6504Z" fill="#2EB67D"/>
<path d="M68.71 42.1104C69.3745 42.1104 70.0242 42.3075 70.5767 42.6767C71.1293 43.0459 71.5599 43.5707 71.8142 44.1846C72.0686 44.7986 72.1351 45.4742 72.0054 46.126C71.8758 46.7777 71.5558 47.3764 71.0859 47.8463C70.616 48.3162 70.0173 48.6362 69.3655 48.7659C68.7137 48.8955 68.0381 48.829 67.4242 48.5747C66.8102 48.3204 66.2855 47.8897 65.9163 47.3372C65.5471 46.7846 65.35 46.135 65.35 45.4704V42.1104H68.71ZM68.71 40.4304C67.8189 40.4304 66.9642 40.0764 66.3341 39.4463C65.704 38.8162 65.35 37.9616 65.35 37.0704C65.35 36.1793 65.704 35.3247 66.3341 34.6946C66.9642 34.0644 67.8189 33.7104 68.71 33.7104H77.14C78.0311 33.7104 78.8858 34.0644 79.5159 34.6946C80.146 35.3247 80.5 36.1793 80.5 37.0704C80.5 37.9616 80.146 38.8162 79.5159 39.4463C78.8858 40.0764 78.0311 40.4304 77.14 40.4304H68.71Z" fill="#ECB22E"/>
</g>
</g>
<g filter="url(#filter1_dd_1_206)">
<path d="M32.5 128.86C32.5 111.187 46.8269 96.8604 64.5 96.8604C82.1731 96.8604 96.5 111.187 96.5 128.86C96.5 146.533 82.1731 160.86 64.5 160.86C46.8269 160.86 32.5 146.533 32.5 128.86Z" fill="#09090B"/>
<path d="M50.308 115.314C47.972 115.314 46.188 117.682 46.188 120.711C46.188 124.039 47.964 125.319 49.94 126.108C51.804 126.898 52.692 127.772 52.692 129.49C52.692 131.239 51.716 132.466 50.436 132.466C49.156 132.466 48.052 131.239 48.052 129.351C48.052 128.306 48.42 128.039 48.42 127.452C48.42 126.78 48.076 126.29 47.508 126.29C46.86 126.29 46.188 127.602 46.188 129.468C46.188 132.476 48.116 134.695 50.436 134.695C52.772 134.695 54.556 132.327 54.556 129.298C54.556 126.002 52.78 124.69 50.788 123.9C48.948 123.143 48.06 122.236 48.06 120.519C48.06 118.802 49.012 117.575 50.292 117.575C51.612 117.575 52.676 118.823 52.7 120.551C52.724 121.34 53.132 121.799 53.612 121.799C54.108 121.799 54.564 121.33 54.54 120.487C54.484 117.479 52.604 115.314 50.308 115.314ZM59.708 134.663C60.748 134.663 61.548 134.194 61.548 133.266C61.548 132.562 61.116 132.103 60.7 132.103C60.396 132.103 60.18 132.274 59.684 132.274C58.34 132.274 57.276 130.727 57.276 128.914C57.276 126.962 58.356 125.415 59.724 125.415C61.26 125.415 62.236 126.994 62.236 129.266V133.436C62.236 134.172 62.668 134.663 63.188 134.663C63.684 134.663 64.116 134.162 64.116 133.436V129.18C64.116 125.682 62.316 123.111 59.756 123.111C57.372 123.111 55.396 125.596 55.396 128.914C55.42 132.124 57.372 134.663 59.708 134.663ZM69.244 142.482C71.58 142.482 73.364 140.114 73.364 137.084C73.364 133.756 71.588 132.476 69.596 131.687C67.756 130.898 66.868 130.023 66.868 128.306C66.868 126.588 67.844 125.33 69.1 125.33C70.38 125.33 71.508 126.556 71.508 128.444C71.508 129.5 71.14 129.756 71.14 130.343C71.14 131.015 71.484 131.506 72.028 131.506C72.7 131.506 73.372 130.194 73.372 128.327C73.372 125.319 71.42 123.1 69.1 123.1C66.764 123.1 65.004 125.468 65.004 128.498C65.004 131.794 66.756 133.106 68.756 133.895C70.62 134.652 71.508 135.559 71.508 137.276C71.508 139.026 70.532 140.22 69.276 140.22C67.932 140.22 66.892 138.994 66.868 137.244C66.844 136.455 66.412 136.018 65.956 136.018C65.46 136.018 65.004 136.455 65.028 137.298C65.036 140.359 66.924 142.482 69.244 142.482ZM78.652 134.663C79.86 134.663 80.82 134.194 81.492 133.639C82.14 133.084 82.396 132.615 82.396 132.092C82.396 131.538 82.092 131.047 81.532 131.047C80.86 131.047 80.324 132.391 78.668 132.391C77.22 132.391 76.068 130.844 76.068 128.892C76.068 126.962 77.172 125.394 78.556 125.394C80.052 125.394 80.852 126.706 80.852 127.548C80.852 127.783 80.724 127.9 80.548 127.9H78.732C78.236 127.9 77.868 128.338 77.868 128.924C77.868 129.564 78.236 130.034 78.732 130.034H81.22C82.172 130.034 82.756 129.362 82.756 128.22C82.756 125.362 80.94 123.122 78.524 123.122C76.14 123.122 74.212 125.692 74.212 128.892C74.212 132.092 76.22 134.663 78.652 134.663Z" fill="#52AF38"/>
</g>
<g filter="url(#filter2_dd_1_206)">
<path d="M32.5 224.86C32.5 207.187 46.8269 192.86 64.5 192.86C82.1731 192.86 96.5 207.187 96.5 224.86C96.5 242.533 82.1731 256.86 64.5 256.86C46.8269 256.86 32.5 242.533 32.5 224.86Z" fill="#09090B"/>
<g clip-path="url(#clip1_1_206)">
<path d="M59.94 208.86C59.6422 208.862 59.3574 208.982 59.1476 209.194C58.9377 209.405 58.82 209.691 58.82 209.988V217.908H79.732L70.212 208.86H59.94ZM80.5 220.3C80.5 220.153 80.4708 220.006 80.414 219.87C80.3572 219.733 80.274 219.61 80.1691 219.506C80.0643 219.401 79.9399 219.319 79.8031 219.263C79.6663 219.207 79.5198 219.179 79.372 219.18H71.452V240.092L80.5 230.564V220.3ZM69.06 240.86C69.3578 240.858 69.6426 240.738 69.8525 240.527C70.0623 240.316 70.18 240.03 70.18 239.732V231.812H49.268L58.788 240.852H69.06V240.86ZM48.5 229.412C48.5 229.712 48.6188 229.998 48.8304 230.21C49.0419 230.422 49.3288 230.54 49.628 230.54H57.548V209.62L48.5 219.14V229.42V229.412Z" fill="#0659A5"/>
</g>
</g>
<g filter="url(#filter3_dd_1_206)">
<path d="M174.5 64.8604C174.5 47.1872 188.827 32.8604 206.5 32.8604C224.173 32.8604 238.5 47.1872 238.5 64.8604C238.5 82.5335 224.173 96.8604 206.5 96.8604C188.827 96.8604 174.5 82.5335 174.5 64.8604Z" fill="#09090B"/>
<g clip-path="url(#clip2_1_206)">
<path d="M206.464 84.4169C211.763 84.41 216.841 82.3451 220.583 78.6761C224.325 75.0072 226.425 70.0346 226.42 64.8517C226.422 62.2858 225.908 59.7445 224.906 57.3731C223.905 55.0016 222.436 52.8463 220.583 51.0303C218.729 49.2143 216.529 47.7732 214.107 46.7891C211.684 45.8051 209.087 45.2974 206.464 45.2952C203.84 45.2963 201.242 45.8034 198.818 46.7875C196.394 47.7716 194.192 49.2133 192.337 51.0303C190.483 52.8474 189.013 55.004 188.012 57.3771C187.01 59.7501 186.496 62.293 186.5 64.8604C186.498 70.0433 188.599 75.0149 192.343 78.6823C196.087 82.3496 201.166 84.4123 206.464 84.4169Z" fill="#13B5EA"/>
<path d="M196.056 64.7994L199.46 61.4515C199.547 61.3355 199.588 61.1929 199.576 61.0497C199.565 60.9064 199.501 60.772 199.396 60.6709C199.292 60.5699 199.154 60.5088 199.007 60.4988C198.861 60.4889 198.715 60.5307 198.598 60.6168L195.193 63.9472L191.771 60.6081C191.654 60.5036 191.5 60.4474 191.342 60.4514C191.184 60.4553 191.033 60.519 190.922 60.6291C190.81 60.7392 190.747 60.8872 190.744 61.0421C190.742 61.1971 190.801 61.3469 190.909 61.4602L194.322 64.7994L190.918 68.1385C190.85 68.1906 190.794 68.2561 190.754 68.3307C190.714 68.4052 190.69 68.4873 190.685 68.5714C190.679 68.6555 190.692 68.7398 190.722 68.8188C190.752 68.8978 190.798 68.9698 190.859 69.03C190.919 69.0902 190.992 69.1373 191.072 69.1682C191.152 69.1992 191.238 69.2132 191.324 69.2095C191.41 69.2058 191.494 69.1844 191.571 69.1467C191.648 69.109 191.716 69.0558 191.771 68.9907L195.184 65.6515L198.589 68.9733C198.674 69.0569 198.782 69.1143 198.899 69.1384C199.017 69.1624 199.14 69.152 199.252 69.1084C199.363 69.0648 199.46 68.99 199.528 68.8933C199.597 68.7966 199.635 68.6823 199.638 68.5646C199.637 68.4079 199.573 68.2578 199.46 68.1472L196.056 64.7994ZM216.304 64.7994C216.304 65.4081 216.802 65.8863 217.416 65.8863C217.71 65.8863 217.993 65.7718 218.201 65.568C218.41 65.3641 218.527 65.0876 218.527 64.7994C218.527 64.5111 218.41 64.2346 218.201 64.0308C217.993 63.8269 217.71 63.7124 217.416 63.7124C216.802 63.7124 216.304 64.1994 216.304 64.7994ZM214.207 64.7994C214.207 64.1764 214.396 63.5675 214.75 63.0496C215.104 62.5318 215.607 62.1283 216.195 61.8903C216.784 61.6523 217.431 61.5905 218.055 61.7127C218.68 61.8348 219.253 62.1355 219.703 62.5766C220.153 63.0177 220.458 63.5794 220.581 64.1906C220.705 64.8018 220.64 65.435 220.395 66.01C220.15 66.5851 219.736 67.0761 219.206 67.4209C218.675 67.7658 218.052 67.9489 217.416 67.9472C216.564 67.9449 215.748 67.6122 215.146 67.0221C214.544 66.4321 214.207 65.6327 214.207 64.7994ZM212.936 64.7994C212.934 65.6686 213.196 66.5188 213.688 67.2423C214.181 67.9658 214.882 68.53 215.703 68.8634C216.523 69.1969 217.426 69.2846 218.298 69.1154C219.17 68.9462 219.97 68.5278 220.599 67.9132C221.227 67.2985 221.655 66.5153 221.828 65.6626C222 64.81 221.911 63.9263 221.57 63.1236C221.229 62.3208 220.652 61.6351 219.913 61.1532C219.173 60.6713 218.304 60.415 217.416 60.4168C216.227 60.4191 215.087 60.8827 214.247 61.706C213.407 62.5293 212.936 63.6449 212.936 64.8081M212.624 60.495H212.438C211.869 60.495 211.327 60.6689 210.873 61.0168C210.843 60.8817 210.767 60.7608 210.657 60.6739C210.547 60.587 210.41 60.5392 210.269 60.5385C210.19 60.5396 210.111 60.556 210.038 60.5868C209.965 60.6176 209.899 60.6621 209.844 60.7178C209.789 60.7735 209.745 60.8394 209.716 60.9115C209.687 60.9837 209.672 61.0608 209.673 61.1385V68.5298C209.692 68.6753 209.765 68.8089 209.878 68.9054C209.991 69.0019 210.136 69.0545 210.286 69.0535C210.436 69.0524 210.58 68.9976 210.692 68.8996C210.803 68.8015 210.874 68.6668 210.891 68.5211V63.982C210.891 62.4689 211.033 61.8515 212.358 61.695C212.482 61.6776 212.607 61.6776 212.616 61.6776C212.971 61.6689 213.238 61.4168 213.238 61.095C213.239 61.0148 213.224 60.9351 213.193 60.8607C213.162 60.7863 213.116 60.7188 213.058 60.662C213 60.6052 212.931 60.5604 212.855 60.5303C212.779 60.5001 212.698 60.4851 212.616 60.4863M200.9 64.095V64.0428C201.078 63.3562 201.485 62.7477 202.058 62.3146C202.631 61.8815 203.336 61.6489 204.06 61.6539C204.784 61.6589 205.485 61.9013 206.051 62.3422C206.618 62.7832 207.017 63.3973 207.184 64.0863H200.9V64.095ZM208.429 63.982C208.316 63.3968 208.081 62.8405 207.74 62.3471C207.4 61.8537 206.959 61.4335 206.447 61.1124C205.696 60.6522 204.823 60.4191 203.938 60.4423C203.052 60.4655 202.193 60.744 201.469 61.2428C200.733 61.759 200.173 62.4788 199.859 63.3095C199.545 64.1402 199.493 65.0437 199.709 65.9037C199.936 66.757 200.418 67.5244 201.095 68.1071C201.771 68.6898 202.61 69.0611 203.504 69.1733C204.047 69.2428 204.571 69.2081 205.113 69.0689C205.589 68.9576 206.043 68.7695 206.456 68.5124C206.891 68.2428 207.256 67.8776 207.611 67.4515L207.62 67.4255C207.869 67.1298 207.824 66.7037 207.558 66.5037C207.327 66.3298 206.953 66.2689 206.651 66.6428L206.438 66.9211C206.066 67.3304 205.591 67.6379 205.06 67.8133C204.53 67.9888 203.962 68.0262 203.412 67.9218C202.862 67.8174 202.35 67.5748 201.925 67.2179C201.5 66.861 201.178 66.4021 200.989 65.8863C200.931 65.722 200.886 65.5533 200.856 65.382L200.847 65.295H207.22C208.091 65.2689 208.553 64.6689 208.429 63.9733V63.982Z" fill="white"/>
</g>
</g>
<g filter="url(#filter4_dd_1_206)">
<path d="M174.5 160.86C174.5 143.187 188.827 128.86 206.5 128.86C224.173 128.86 238.5 143.187 238.5 160.86C238.5 178.533 224.173 192.86 206.5 192.86C188.827 192.86 174.5 178.533 174.5 160.86Z" fill="#09090B"/>
<g clip-path="url(#clip3_1_206)">
<path d="M206.442 179.408C212.75 169.779 221.625 160.431 226.5 157.068C225.75 156.208 224.575 154.979 223.25 153.646C216.967 157.334 209.625 165.497 203.075 174.757C204.183 176.253 205.358 177.808 206.442 179.408Z" fill="#E31837"/>
<path d="M203.55 153.26C202.617 152.46 201.6 151.72 200.817 151.068C197.538 154.017 194.4 157.436 191.433 161.29C192.267 162.09 193.183 163.053 194.142 164.016C197.142 160.06 200.183 156.312 203.558 153.26H203.55Z" fill="#4974D5"/>
<path d="M209.175 148.668C206.653 146.598 204.024 144.966 201.325 143.794C200.517 144.342 199.375 145.127 198.592 145.72C199.583 146.209 203.283 147.971 206.442 150.801C207.25 150.105 208.392 149.26 209.175 148.668Z" fill="#E31837"/>
<path d="M195.733 147.971C192.55 150.668 189.466 153.721 186.5 157.112C187.225 157.705 187.942 158.179 188.933 159.038C191.895 155.379 195.016 152.144 198.267 149.364C197.267 148.727 196.333 148.297 195.733 147.971Z" fill="#4974D5"/>
<path d="M211.825 147.008C212.633 146.534 213.575 146.105 214.383 145.675C211.806 143.727 209.152 142.118 206.442 140.86C206.025 141.068 204.758 141.66 203.883 142.149C204.783 142.623 207.767 143.853 211.825 147.008ZM196.992 167.112C197.958 168.134 198.983 169.512 199.975 170.697C206.558 161.601 213.058 154.608 220.183 150.638C219.192 149.749 218.317 148.934 217.208 147.971C212.933 149.897 205.625 155.083 197 167.112H196.992Z" fill="#E31837"/>
</g>
</g>
<g filter="url(#filter5_dd_1_206)">
<path d="M174.5 256.86C174.5 239.187 188.827 224.86 206.5 224.86C224.173 224.86 238.5 239.187 238.5 256.86C238.5 274.533 224.173 288.86 206.5 288.86C188.827 288.86 174.5 274.533 174.5 256.86Z" fill="#09090B"/>
<g clip-path="url(#clip4_1_206)">
<path d="M220.507 270.667V270.52L220.493 270.427V269.78L220.473 269.66V269.327L220.453 269.174L220.42 268.974V268.86L220.407 268.74V268.7L220.387 268.567V268.48L220.367 268.28L220.347 268.187L220.313 267.987L220.3 267.887L220.267 267.694V267.64L220.253 267.507V267.46L220.233 267.374V267.207L220.22 267.1L220.18 266.814L220.147 266.58L220.133 266.46L220.067 266.027L219.933 265.094L219.827 264.374L219.587 262.76L219.533 262.407L219.507 262.22L219.46 261.887L219.433 261.7L219.26 260.507L219.247 260.374L219.14 259.68L219.113 259.547L219.033 258.98L218.953 258.42L218.827 257.574L218.747 257.014L218.667 256.46L218.653 256.327L218.627 256.194L218.587 255.92L218.547 255.647L218.507 255.374L218.473 255.167L218.447 254.96V254.707L218.42 254.56L218.387 254.36V254.32L218.367 254.167L218.347 254.06L218.333 253.967L218.3 253.767L218.267 253.574L218.247 253.38L218.227 253.3L218.213 253.2L218.18 253L218.153 252.814L218.133 252.64V252.567L217.933 251.187L217.9 250.974L217.873 250.8V250.78L217.753 249.947L217.713 249.694L217.693 249.52L217.527 248.367L217.507 248.287L217.46 247.934V247.64L217.447 247.527V247.367L217.427 247.287V247.127C217.417 247.058 217.383 246.994 217.333 246.945C217.282 246.897 217.216 246.867 217.147 246.86L214.573 246.68C214.573 246.68 212.86 244.987 212.693 244.8C212.659 244.765 212.617 244.736 212.571 244.717C212.526 244.697 212.476 244.687 212.427 244.687L210.66 272.8L220.507 270.68V270.66V270.667ZM198.373 257.694C198.373 261.227 201.907 261.314 201.907 263.487C201.908 263.654 201.875 263.819 201.81 263.972C201.746 264.126 201.651 264.265 201.532 264.38C201.412 264.496 201.27 264.587 201.115 264.646C200.959 264.706 200.793 264.733 200.627 264.727C199.233 264.727 197.607 263.314 197.607 263.314L196.767 266.074C196.767 266.074 198.367 268.007 201.487 268.007C204.08 268.007 206.013 266.06 206.013 263.007C206.013 259.14 201.707 258.507 201.707 256.874C201.707 256.567 201.807 255.367 203.72 255.367C204.541 255.382 205.348 255.576 206.087 255.934L207.307 252.327C207.307 252.327 206.507 251.854 204.813 251.827C200.507 251.827 198.367 254.727 198.367 257.694H198.373ZM203.727 255.36C204.548 255.378 205.355 255.573 206.093 255.934L207.313 252.327C207.313 252.327 206.513 251.854 204.82 251.827C200.513 251.827 198.373 254.727 198.373 257.694C198.373 261.227 201.907 261.314 201.907 263.487C201.908 263.654 201.875 263.819 201.81 263.972C201.746 264.126 201.651 264.265 201.532 264.38C201.412 264.496 201.27 264.587 201.115 264.646C200.959 264.706 200.793 264.733 200.627 264.727C199.233 264.727 197.607 263.314 197.607 263.314L196.767 266.074C196.767 266.074 198.367 268.007 201.487 268.007C204.08 268.007 206.013 266.06 206.013 263.007C206.013 259.14 201.707 258.507 201.707 256.874C201.707 256.567 201.807 255.367 203.72 255.367L203.727 255.36Z" fill="#93BE47"/>
<path d="M220.513 270.687L210.66 272.807L212.033 244.694C212.133 244.694 212.233 244.734 212.3 244.807C212.467 244.994 214.18 246.687 214.18 246.687L216.753 246.867C216.823 246.874 216.889 246.904 216.939 246.952C216.99 247 217.023 247.064 217.033 247.134V247.287L217.053 247.367V247.527L217.067 247.634V247.807L217.113 248.154L217.133 248.234L217.3 249.387L217.327 249.567L217.367 249.82L217.487 250.654V250.667L217.507 250.847L217.54 251.06L217.74 252.434L217.78 252.674L217.847 253.154L217.867 253.247L217.953 253.827L217.973 253.927L217.987 254.027L218.013 254.18V254.227L218.06 254.58V254.86L218.093 255.067L218.127 255.274L218.167 255.547L218.207 255.82L218.273 256.227L218.293 256.36L218.373 256.914L218.453 257.474L218.58 258.327L218.66 258.887L218.74 259.447L218.767 259.587L218.867 260.287L218.893 260.42L219.067 261.614L219.093 261.794L219.14 262.127L219.167 262.314L219.22 262.667L219.46 264.287L219.567 265.007L219.7 265.94L219.767 266.374L219.78 266.494L219.813 266.727L219.853 267.014L219.867 267.114V267.287L219.887 267.374V267.387L219.907 267.547V267.607L219.94 267.807L219.953 267.914L219.987 268.114L220.007 268.214L220.027 268.407L220.047 268.494L220.067 268.627V268.667L220.093 268.847V268.9L220.127 269.1L220.147 269.254V269.32L220.173 269.467V269.6L220.187 269.727L220.207 269.827V270.347L220.22 270.447V270.607L220.513 270.687Z" fill="#5F8D3E"/>
<path d="M201.713 256.867C201.713 258.514 206.02 259.14 206.02 263.014C206.02 266.06 204.087 268.014 201.487 268.014C198.373 268.014 196.773 266.08 196.773 266.08L197.607 263.307C197.607 263.307 199.233 264.714 200.627 264.714C200.793 264.72 200.959 264.692 201.115 264.633C201.27 264.573 201.412 264.483 201.532 264.367C201.651 264.251 201.746 264.112 201.811 263.959C201.875 263.805 201.908 263.64 201.907 263.474C201.907 261.314 198.373 261.22 198.373 257.687C198.373 254.714 200.513 251.82 204.82 251.82C206.507 251.847 207.327 252.314 207.327 252.314L206.1 255.927C205.362 255.567 204.554 255.371 203.733 255.354C201.813 255.367 201.713 256.567 201.713 256.867Z" fill="white"/>
<path d="M211.613 244.707L210.653 245.014C210.567 244.767 210.473 244.527 210.367 244.294C209.767 242.96 208.813 241.867 207.307 241.867H207.153C206.66 241.214 206.033 240.914 205.513 240.914C201.407 240.934 199.447 246.06 198.82 248.687C197.22 249.174 196.1 249.534 195.953 249.567C195.067 249.847 195.033 249.867 194.913 250.707C194.82 251.367 192.487 269.407 192.487 269.407L210.26 272.734L210.66 272.8L212.033 244.7C212.133 244.7 212.233 244.74 212.3 244.814C212.133 244.627 211.753 244.68 211.613 244.714V244.707ZM207.033 245.94V246.107L203.86 247.094C204.487 244.774 205.627 243.62 206.627 243.187C206.927 244.074 207.067 245.007 207.033 245.94ZM205.393 242.034C205.587 242.034 205.767 242.1 205.927 242.207C204.593 242.82 203.193 244.38 202.593 247.5L200.087 248.267C200.793 245.907 202.453 242.034 205.393 242.034ZM206.1 255.927C205.362 255.567 204.554 255.371 203.733 255.354C201.813 255.354 201.72 256.554 201.72 256.86C201.72 258.507 206.027 259.127 206.027 263.007C206.027 266.054 204.093 268.007 201.493 268.007C198.38 268.007 196.78 266.074 196.78 266.074L197.613 263.3C197.613 263.3 199.24 264.707 200.633 264.707C200.8 264.713 200.966 264.686 201.121 264.626C201.277 264.567 201.419 264.476 201.538 264.36C201.658 264.244 201.753 264.106 201.817 263.952C201.882 263.798 201.914 263.633 201.913 263.467C201.913 261.307 198.38 261.214 198.38 257.674C198.38 254.707 200.52 251.807 204.827 251.807C206.513 251.834 207.333 252.307 207.333 252.307L206.1 255.927ZM208.1 245.794V245.46C208.12 244.614 207.987 243.774 207.727 242.974C208.647 243.114 209.267 244.147 209.64 245.334L208.107 245.8L208.1 245.794Z" fill="#93BE47"/>
</g>
</g>
<g filter="url(#filter6_dd_1_206)">
<path d="M316.5 32.8604C316.5 15.1872 330.827 0.860352 348.5 0.860352C366.173 0.860352 380.5 15.1872 380.5 32.8604C380.5 50.5335 366.173 64.8604 348.5 64.8604C330.827 64.8604 316.5 50.5335 316.5 32.8604Z" fill="#09090B"/>
<g clip-path="url(#clip5_1_206)">
<path d="M361.953 43.9241C346.862 50.8605 337.497 45.0569 331.501 41.5326C331.13 41.3111 330.5 41.5852 331.046 42.1918C333.044 44.5307 339.589 50.1681 348.133 50.1681C356.684 50.1681 361.771 45.662 362.406 44.8768C363.037 44.0972 362.592 43.6679 361.953 43.9241ZM366.192 41.6642C365.786 41.1546 363.727 41.0604 362.432 41.2141C361.134 41.3623 359.185 42.1281 359.354 42.5892C359.442 42.7609 359.62 42.6834 360.51 42.6058C361.405 42.52 363.909 42.2153 364.431 42.8731C364.956 43.5378 363.632 46.6964 363.391 47.2074C363.157 47.7156 363.48 47.8472 363.919 47.5079C364.35 47.1687 365.133 46.2893 365.66 45.0472C366.182 43.7967 366.499 42.0519 366.19 41.6642H366.192Z" fill="#FF9900"/>
<path fill-rule="evenodd" clip-rule="evenodd" d="M351.805 29.773C351.805 31.5926 351.854 33.1103 350.902 34.7263C350.132 36.0405 348.914 36.8478 347.554 36.8478C345.696 36.8478 344.614 35.4824 344.614 33.4648C344.614 29.4836 348.309 28.7607 351.805 28.7607V29.773ZM356.684 41.1586C356.528 41.2871 356.335 41.3665 356.13 41.3863C355.926 41.4061 355.721 41.3653 355.541 41.2694C353.935 39.9816 353.65 39.3847 352.765 38.1564C350.112 40.7709 348.233 41.5519 344.792 41.5519C340.723 41.5519 337.553 39.1285 337.553 34.2735C337.553 30.482 339.682 27.9008 342.709 26.6392C345.337 25.5231 349.003 25.3251 351.805 25.0163V24.4125C351.805 23.3019 351.894 21.9892 351.22 21.0295C350.63 20.1682 349.5 19.8137 348.506 19.8137C346.663 19.8137 345.017 20.7276 344.615 22.6192C344.533 23.0388 344.214 23.4529 343.778 23.4723L339.084 22.9876C338.69 22.9017 338.254 22.5929 338.363 22.0072C339.444 16.5165 344.581 14.8604 349.18 14.8604C351.534 14.8604 354.609 15.4641 356.466 17.1868C358.821 19.3082 358.596 22.1387 358.596 25.2199V32.4996C358.596 34.6876 359.535 35.6458 360.418 36.8284C360.732 37.2494 360.8 37.7562 360.404 38.0706C359.155 39.0902 357.92 40.1242 356.697 41.1725L356.683 41.1586" fill="#A3A7B1"/>
<path d="M361.953 43.9241C346.862 50.8605 337.497 45.0569 331.501 41.5326C331.13 41.3111 330.5 41.5852 331.046 42.1918C333.044 44.5307 339.589 50.1681 348.133 50.1681C356.684 50.1681 361.771 45.662 362.406 44.8768C363.037 44.0972 362.592 43.6679 361.953 43.9241ZM366.192 41.6642C365.786 41.1546 363.727 41.0604 362.432 41.2141C361.134 41.3623 359.185 42.1281 359.354 42.5892C359.442 42.7609 359.62 42.6834 360.51 42.6058C361.405 42.52 363.909 42.2153 364.431 42.8731C364.956 43.5378 363.632 46.6964 363.391 47.2074C363.157 47.7156 363.48 47.8472 363.919 47.5079C364.35 47.1687 365.133 46.2893 365.66 45.0472C366.182 43.7967 366.499 42.0519 366.19 41.6642H366.192Z" fill="#FF9900"/>
<path fill-rule="evenodd" clip-rule="evenodd" d="M351.805 29.773C351.805 31.5926 351.854 33.1103 350.902 34.7263C350.132 36.0405 348.914 36.8478 347.554 36.8478C345.696 36.8478 344.614 35.4824 344.614 33.4648C344.614 29.4836 348.309 28.7607 351.805 28.7607V29.773ZM356.684 41.1586C356.528 41.2871 356.335 41.3665 356.13 41.3863C355.926 41.4061 355.721 41.3653 355.541 41.2694C353.935 39.9816 353.65 39.3847 352.765 38.1564C350.112 40.7709 348.233 41.5519 344.792 41.5519C340.723 41.5519 337.553 39.1285 337.553 34.2735C337.553 30.482 339.682 27.9008 342.709 26.6392C345.337 25.5231 349.003 25.3251 351.805 25.0163V24.4125C351.805 23.3019 351.894 21.9892 351.22 21.0295C350.63 20.1682 349.5 19.8137 348.506 19.8137C346.663 19.8137 345.017 20.7276 344.615 22.6192C344.533 23.0388 344.214 23.4529 343.778 23.4723L339.084 22.9876C338.69 22.9017 338.254 22.5929 338.363 22.0072C339.444 16.5165 344.581 14.8604 349.18 14.8604C351.534 14.8604 354.609 15.4641 356.466 17.1868C358.821 19.3082 358.596 22.1387 358.596 25.2199V32.4996C358.596 34.6876 359.535 35.6458 360.418 36.8284C360.732 37.2494 360.8 37.7562 360.404 38.0706C359.155 39.0902 357.92 40.1242 356.697 41.1725L356.683 41.1586" fill="#A3A7B1"/>
</g>
</g>
<g filter="url(#filter7_dd_1_206)">
<path d="M316.5 128.86C316.5 111.187 330.827 96.8604 348.5 96.8604C366.173 96.8604 380.5 111.187 380.5 128.86C380.5 146.533 366.173 160.86 348.5 160.86C330.827 160.86 316.5 146.533 316.5 128.86Z" fill="#09090B"/>
<g clip-path="url(#clip6_1_206)">
<path d="M348.5 148.86C353.804 148.86 358.891 146.753 362.642 143.002C366.393 139.252 368.5 134.165 368.5 128.86C368.5 123.556 366.393 118.469 362.642 114.718C358.891 110.967 353.804 108.86 348.5 108.86C343.196 108.86 338.109 110.967 334.358 114.718C330.607 118.469 328.5 123.556 328.5 128.86C328.5 134.165 330.607 139.252 334.358 143.002C338.109 146.753 343.196 148.86 348.5 148.86Z" fill="#2CA01C"/>
<path d="M334.056 128.86C334.056 130.923 334.876 132.902 336.334 134.36C337.793 135.819 339.771 136.639 341.834 136.639H342.944V133.748H341.834C340.538 133.748 339.294 133.233 338.377 132.316C337.46 131.399 336.945 130.155 336.945 128.859C336.945 127.562 337.46 126.319 338.377 125.402C339.294 124.485 340.538 123.97 341.834 123.97H344.5V139.082C344.5 139.848 344.804 140.583 345.346 141.125C345.887 141.667 346.621 141.972 347.388 141.973V121.079H341.834C340.812 121.079 339.8 121.28 338.856 121.671C337.912 122.062 337.054 122.635 336.331 123.357C335.609 124.08 335.036 124.938 334.645 125.882C334.254 126.826 334.053 127.838 334.053 128.86H334.056ZM355.166 121.082H354.056V123.973H355.166C356.462 123.973 357.705 124.488 358.622 125.404C359.538 126.321 360.053 127.564 360.053 128.86C360.053 130.157 359.538 131.4 358.622 132.316C357.705 133.233 356.462 133.748 355.166 133.748H352.5V118.642C352.5 117.876 352.196 117.141 351.654 116.6C351.113 116.058 350.378 115.754 349.613 115.754V136.642H355.166C357.229 136.642 359.207 135.822 360.666 134.363C362.124 132.905 362.944 130.926 362.944 128.864C362.944 126.801 362.124 124.822 360.666 123.364C359.207 121.905 357.229 121.085 355.166 121.085V121.082Z" fill="white"/>
</g>
</g>
<g filter="url(#filter8_dd_1_206)">
<path d="M316.5 224.86C316.5 207.187 330.827 192.86 348.5 192.86C366.173 192.86 380.5 207.187 380.5 224.86C380.5 242.533 366.173 256.86 348.5 256.86C330.827 256.86 316.5 242.533 316.5 224.86Z" fill="#09090B"/>
<g clip-path="url(#clip7_1_206)">
<path d="M363.583 224.302C363.667 222.994 364.017 222.385 364.692 222.385C365.358 222.385 365.692 223.01 365.742 224.302H363.575H363.583ZM368.492 225.077C368.492 223.619 368.167 222.46 367.55 221.652C367.214 221.237 366.784 220.907 366.296 220.69C365.808 220.472 365.275 220.374 364.742 220.402C362.25 220.402 360.7 222.235 360.7 225.194C360.7 226.844 361.117 228.077 361.933 228.869C362.75 229.66 363.708 229.927 365.067 229.927C366.167 229.984 367.261 229.715 368.208 229.152L367.892 227.144C367.117 227.544 366.258 227.752 365.392 227.744C364.817 227.744 364.433 227.619 364.15 227.369C363.867 227.119 363.667 226.694 363.608 226.077H368.458L368.492 225.077ZM356.783 227.06C356.533 227.51 356.183 227.744 355.75 227.744C355.475 227.745 355.204 227.683 354.958 227.56V223.202C355.458 222.677 355.9 222.619 356.067 222.619C356.817 222.619 357.183 223.419 357.183 224.994C357.183 225.894 357.05 226.594 356.783 227.06ZM359.208 221.394C358.955 221.066 358.627 220.804 358.251 220.63C357.875 220.456 357.464 220.375 357.05 220.394C356.133 220.394 355.467 220.752 354.758 221.502L354.608 220.585H352.042V233.152L354.967 232.669V229.719C355.4 229.852 355.842 229.927 356.292 229.927C356.779 229.939 357.264 229.848 357.714 229.662C358.165 229.475 358.572 229.197 358.908 228.844C359.742 227.944 360.1 226.652 360.1 224.894C360.1 223.327 359.8 222.144 359.208 221.394ZM347.95 220.569H350.892V229.752H347.95V220.569ZM349.417 219.66C349.828 219.66 350.222 219.497 350.513 219.206C350.803 218.916 350.967 218.521 350.967 218.11C350.967 217.699 350.803 217.305 350.513 217.014C350.222 216.724 349.828 216.56 349.417 216.56C349.006 216.56 348.611 216.724 348.321 217.014C348.03 217.305 347.867 217.699 347.867 218.11C347.867 218.521 348.03 218.916 348.321 219.206C348.611 219.497 349.006 219.66 349.417 219.66ZM346.683 220.444C345.85 220.444 345.183 220.869 344.933 221.652L344.75 220.56H342.2V229.744H345.133V223.794C345.5 223.344 346.008 223.177 346.717 223.177C346.892 223.177 347.067 223.194 347.242 223.219V220.527C347.062 220.478 346.878 220.45 346.692 220.444H346.683ZM341.067 222.744L341.417 220.577H339.558V217.944L337.05 218.352L336.692 220.569L335.8 220.71L335.467 222.744H336.683V226.994C336.683 228.11 336.958 228.877 337.542 229.352C338.125 229.819 338.717 229.935 339.7 229.935C340.217 229.935 340.733 229.86 341.233 229.719V227.419C340.95 227.494 340.667 227.535 340.383 227.552C339.8 227.552 339.55 227.26 339.55 226.577V222.744H341.067ZM332.692 224.027C331.833 223.71 331.358 223.46 331.358 223.069C331.358 222.677 331.633 222.552 332.117 222.552C333 222.552 333.908 222.885 334.533 223.202L334.892 221.019C333.978 220.597 332.981 220.384 331.975 220.394C331.112 220.353 330.261 220.612 329.567 221.127C328.983 221.61 328.633 222.377 328.633 223.26C328.633 224.86 329.608 225.552 331.2 226.127C332.233 226.502 332.567 226.76 332.567 227.16C332.567 227.56 332.233 227.769 331.642 227.769C331.042 227.769 329.667 227.402 328.867 226.935L328.508 229.144C329.525 229.662 330.65 229.931 331.792 229.927C332.842 229.927 333.708 229.677 334.3 229.21C334.883 228.744 335.3 227.919 335.3 226.927C335.308 225.294 334.308 224.61 332.692 224.027Z" fill="#5C65EA"/>
</g>
</g>
<g filter="url(#filter9_dd_1_206)">
<path d="M458.5 64.8604C458.5 47.1872 472.827 32.8604 490.5 32.8604C508.173 32.8604 522.5 47.1872 522.5 64.8604C522.5 82.5335 508.173 96.8604 490.5 96.8604C472.827 96.8604 458.5 82.5335 458.5 64.8604Z" fill="#09090B"/>
<g clip-path="url(#clip8_1_206)">
<path d="M510.5 53.3801V80.8152L509.188 84.5214V57.6739L510.5 53.3801Z" fill="#E79225"/>
<path d="M501.898 53.4027L500.539 57.6739L500.609 57.9451L509.133 57.8547L509.211 57.6739L510.5 53.3801L501.898 53.4027Z" fill="#FFF16D"/>
<path d="M500.539 57.6738H509.211V84.5439H500.539V57.6738Z" fill="url(#paint1_linear_1_206)"/>
<path d="M507.891 67.3463C507.719 66.1033 507.461 64.9734 507.125 64.0016C506.805 63.0525 506.445 62.3293 506.039 61.8548C505.641 61.3802 505.211 61.1316 504.742 61.1316C504.273 61.1316 503.836 61.3802 503.438 61.8548C503.031 62.3293 502.672 63.0525 502.352 64.0016C502.016 64.9734 501.766 66.1033 501.594 67.3463C501.422 68.5892 501.344 69.9452 501.344 71.4367C501.344 72.883 501.43 74.2389 501.602 75.5045C501.772 76.771 502.03 77.9241 502.359 78.8943C502.672 79.8209 503.031 80.5214 503.43 80.996C503.828 81.4706 504.273 81.7192 504.75 81.7192C505.191 81.7288 505.628 81.4839 506.036 80.9988C506.444 80.5138 506.814 79.7983 507.125 78.8943C507.461 77.9 507.719 76.77 507.891 75.5271C508.065 74.2309 508.153 72.8503 508.148 71.4593C508.148 69.9452 508.063 68.5892 507.891 67.3463ZM506.102 76.205C505.766 77.3576 505.32 77.9452 504.742 77.9452C504.164 77.9452 503.711 77.3576 503.375 76.205C503.039 75.0525 502.875 73.448 502.875 71.4141C502.875 69.335 503.047 67.7305 503.375 66.5553C503.711 65.3802 504.156 64.8152 504.742 64.8152C505.32 64.8152 505.766 65.4028 506.102 66.5553C506.43 67.7305 506.602 69.335 506.602 71.4141C506.602 73.448 506.438 75.0525 506.102 76.205Z" fill="white"/>
<path d="M499.688 51.1428V51.2784L500.797 75.9338L500.148 81.1315L500.063 80.9507L498.922 57.3123L498.945 56.9959L499.656 51.2784L499.688 51.1428Z" fill="#009ADA"/>
<path d="M491.148 54.5779L499.688 51.1428L498.969 57.0637L498.867 57.3801L490.883 60.7699L490.922 56.544L491.148 54.5779Z" fill="#91C9ED"/>
<path d="M498.969 57.0637L500.148 81.1315L491.734 84.5439L490.602 61.2897L491.094 60.1824L498.969 57.0637Z" fill="url(#paint2_linear_1_206)"/>
<path d="M497.539 61.6739C497.5 60.9281 497.414 60.3632 497.273 59.979C497.157 59.6821 497.007 59.521 496.852 59.527C496.812 59.527 496.766 59.527 496.719 59.5496C496.5 59.64 496.336 59.9338 496.234 60.4084C496.156 60.7474 496.125 61.1767 496.125 61.6739C496.125 61.8547 496.133 62.0581 496.141 62.2615L496.445 68.5214L494.023 69.5609L493.719 63.301C493.68 62.5779 493.594 62.0129 493.453 61.6287C493.342 61.3205 493.193 61.1502 493.039 61.1541C493 61.1541 492.961 61.1541 492.922 61.1767C492.695 61.2671 492.523 61.5609 492.414 62.0355C492.336 62.3745 492.305 62.8039 492.305 63.301C492.305 63.4818 492.312 63.6852 492.32 63.9112L493.148 80.205C493.187 80.9507 493.273 81.5157 493.43 81.8999C493.547 82.1937 493.687 82.3293 493.859 82.3293C493.906 82.3293 493.953 82.3293 494 82.3067C494.096 82.2759 494.187 82.1826 494.269 82.0338C494.35 81.885 494.418 81.6847 494.469 81.4479C494.539 81.1089 494.57 80.7022 494.57 80.2276C494.57 80.0468 494.562 79.8434 494.555 79.64L494.219 73.1993L496.641 72.1598L496.977 78.6005C497.016 79.3462 497.102 79.9112 497.25 80.2728C497.366 80.5697 497.517 80.7308 497.672 80.7248C497.711 80.7248 497.758 80.7248 497.805 80.7022C498.023 80.6118 498.188 80.318 498.289 79.8434C498.359 79.5044 498.398 79.0976 498.398 78.6005C498.398 78.4197 498.391 78.2163 498.383 78.0129L497.539 61.6739Z" fill="white"/>
<path d="M483.156 44.8604L480.117 65.7417L480.531 74.9168L480.555 74.8942L483.969 52.6796L483.953 52.205L483.219 45.1541L483.156 44.8604Z" fill="#66BF6B"/>
<path d="M483.156 44.8604L483.945 52.5214L483.961 52.6796L491.477 62.4197L491.5 62.3745L490.859 55.0524L483.156 44.8604Z" fill="#98D0A0"/>
<path d="M483.945 52.5215L491.5 62.3746L488.086 84.7701L480.531 74.917L483.945 52.5215Z" fill="url(#paint3_linear_1_206)"/>
<path d="M489.211 64.1824C489.047 62.9169 488.82 61.8321 488.523 60.9282C488.227 60.0242 487.867 59.3011 487.445 58.7813C487.023 58.2615 486.602 58.0129 486.172 58.0129H486.148C485.711 58.0129 485.281 58.3067 484.859 58.8491C484.414 59.4141 484.031 60.1824 483.703 61.1994C483.363 62.2537 483.093 63.4792 482.906 64.8152C482.703 66.1937 482.594 67.5949 482.57 68.9734V69.448C482.57 70.6683 482.641 71.866 482.789 73.0412C482.945 74.2841 483.172 75.3463 483.469 76.2502C483.766 77.1542 484.133 77.8773 484.57 78.3971C484.984 78.9169 485.406 79.1655 485.836 79.1655H485.844C486.273 79.1655 486.703 78.8943 487.125 78.3745C487.57 77.8096 487.961 77.0186 488.289 76.0016C488.617 75.0073 488.891 73.8095 489.094 72.4084C489.297 71.0073 489.406 69.6288 489.43 68.2502V67.8434C489.438 66.6005 489.367 65.3802 489.211 64.1824ZM487.703 70.6909C487.422 72.6344 487.039 73.9677 486.578 74.6909C486.328 75.0751 486.07 75.2785 485.812 75.2785C485.586 75.2785 485.344 75.1203 485.102 74.8265C484.57 74.1711 484.242 73.1316 484.102 71.6401C484.055 71.1429 484.031 70.6231 484.031 70.0807C484.031 68.996 484.125 67.7983 484.313 66.5101C484.602 64.5214 484.984 63.1655 485.445 62.4197C485.695 62.0129 485.953 61.8321 486.211 61.8321C486.445 61.8321 486.68 61.9903 486.93 62.2841C487.453 62.9395 487.781 63.979 487.922 65.4706C487.969 65.9451 487.992 66.4649 487.992 67.0073C487.992 68.1372 487.898 69.3576 487.703 70.6909Z" fill="white"/>
<path d="M479.516 48.4084L480.75 72.3181L480.188 80.7248L480.109 80.431L478.906 57.335V56.883L479.438 48.8152L479.516 48.4084Z" fill="#760D16"/>
<path d="M470.5 60.77L471.086 52.3181L479.516 48.4084L478.945 57.0186V57.5836L470.602 60.996L470.5 60.77Z" fill="#EF463E"/>
<path d="M478.945 57.0186L480.188 80.7248L471.844 84.4988L470.5 60.77L478.945 57.0186Z" fill="url(#paint4_linear_1_206)"/>
<path d="M478.047 76.9506C477.984 76.7247 477.891 76.5665 477.781 76.4535C477.672 76.3405 477.539 76.2953 477.375 76.2953C477.227 76.2953 477.055 76.3405 476.867 76.4309L474.664 77.5156C474.688 77.0184 474.773 76.3857 474.922 75.5947C475.086 74.7134 475.336 73.6512 475.656 72.4309C475.766 72.0015 475.852 71.6851 475.914 71.4591C475.953 71.3009 476.016 71.0975 476.094 70.8038C476.602 68.8829 476.906 67.3235 477.031 66.1032C477.102 65.4026 477.141 64.7021 477.156 64.0015C477.164 63.7981 477.164 63.6173 477.164 63.4365C477.164 62.9393 477.148 62.4422 477.117 61.945C477.094 61.493 477.055 61.1314 477 60.8377C476.945 60.5439 476.883 60.3179 476.805 60.1823C476.719 60.0241 476.586 59.9563 476.422 59.9563C476.289 59.9563 476.125 60.0015 475.93 60.0919L473.383 61.3574C473.078 61.5156 472.844 61.7642 472.703 62.171C472.647 62.3206 472.603 62.5026 472.574 62.7052C472.544 62.9078 472.53 63.1262 472.531 63.3461C472.531 63.4591 472.531 63.5947 472.539 63.7303C472.578 64.3631 472.688 64.8151 472.867 65.041C472.977 65.1766 473.102 65.2444 473.258 65.2444C473.359 65.2444 473.477 65.2218 473.602 65.154L475.727 64.0693C475.727 64.1823 475.734 64.2953 475.734 64.3857C475.734 64.7699 475.711 65.154 475.664 65.5156C475.602 66.0354 475.445 66.7586 475.188 67.6851C475.117 67.9337 475.008 68.3405 474.859 68.8603C474.281 70.8716 473.875 72.5891 473.625 74.0128C473.445 75.0071 473.328 75.9563 473.258 76.928C473.219 77.493 473.195 78.0128 473.195 78.5326C473.195 78.8942 473.203 79.2557 473.227 79.5947C473.258 80.0919 473.297 80.4987 473.352 80.8151C473.406 81.1314 473.484 81.38 473.57 81.5156C473.656 81.6512 473.773 81.6964 473.945 81.6964C474.156 81.6964 474.445 81.606 474.813 81.4252L477.125 80.2727C477.531 80.0693 477.82 79.7755 477.984 79.3913C478.117 79.0749 478.188 78.6456 478.188 78.1484C478.188 78.0128 478.18 77.8772 478.172 77.7416C478.156 77.4478 478.117 77.1766 478.047 76.9506Z" fill="white"/>
</g>
</g>
<g filter="url(#filter10_dd_1_206)">
<path d="M458.5 160.86C458.5 143.187 472.827 128.86 490.5 128.86C508.173 128.86 522.5 143.187 522.5 160.86C522.5 178.533 508.173 192.86 490.5 192.86C472.827 192.86 458.5 178.533 458.5 160.86Z" fill="#09090B"/>
<g clip-path="url(#clip9_1_206)">
<path fill-rule="evenodd" clip-rule="evenodd" d="M481.181 146.86H499.819C501.06 146.86 502.251 147.354 503.129 148.231C504.007 149.109 504.5 150.3 504.5 151.542V170.179C504.5 172.76 502.4 174.86 499.819 174.86H481.181C479.94 174.86 478.749 174.367 477.871 173.489C476.993 172.611 476.5 171.421 476.5 170.179V151.542C476.5 148.952 478.6 146.86 481.181 146.86ZM497.938 169.768C498.751 169.768 499.416 169.112 499.416 168.289V153.432C499.416 152.609 498.751 151.944 497.929 151.944H483.071C482.876 151.944 482.683 151.983 482.503 152.057C482.323 152.132 482.16 152.242 482.023 152.38C481.885 152.519 481.776 152.683 481.703 152.863C481.629 153.043 481.591 153.237 481.593 153.432V168.289C481.593 169.112 482.258 169.777 483.071 169.777H497.938V169.768Z" fill="#A3A7B1"/>
<path d="M487.525 164.658C487.301 164.655 487.088 164.565 486.93 164.406C486.773 164.247 486.685 164.033 486.685 163.809V157.877C486.684 157.764 486.705 157.653 486.747 157.549C486.789 157.445 486.852 157.35 486.93 157.271C487.009 157.191 487.103 157.128 487.207 157.084C487.31 157.041 487.422 157.019 487.534 157.019H493.484C493.595 157.02 493.705 157.043 493.808 157.087C493.91 157.131 494.003 157.194 494.081 157.274C494.159 157.353 494.221 157.448 494.262 157.551C494.304 157.654 494.325 157.765 494.324 157.877V163.809C494.324 164.034 494.234 164.25 494.075 164.409C493.916 164.568 493.7 164.658 493.475 164.658H487.525Z" fill="#A3A7B1"/>
</g>
</g>
<g filter="url(#filter11_dd_1_206)">
<path d="M458.5 256.86C458.5 239.187 472.827 224.86 490.5 224.86C508.173 224.86 522.5 239.187 522.5 256.86C522.5 274.533 508.173 288.86 490.5 288.86C472.827 288.86 458.5 274.533 458.5 256.86Z" fill="#09090B"/>
<g clip-path="url(#clip10_1_206)">
<path d="M506.171 243.435H474.9V269.616H506.171V243.443V243.435Z" fill="white"/>
<path d="M474.5 269.98H506.5V243.079H474.5V269.98ZM495.504 264.159H488.056V251.54H491.789V261.938H495.398C497.887 261.938 498.927 260.302 498.927 256.143C498.927 251.94 497.736 250.722 495.22 250.722H487.007V264.159H483.3V250.722H477.86V248.5H496.367C500.838 248.5 502.962 250.66 502.962 256.116C502.962 263.288 499.789 264.168 495.504 264.168V264.159Z" fill="#54B848"/>
</g>
</g>
<g filter="url(#filter12_dd_1_206)">
<path d="M600.5 32.8604C600.5 15.1872 614.827 0.860352 632.5 0.860352C650.173 0.860352 664.5 15.1872 664.5 32.8604C664.5 50.5335 650.173 64.8604 632.5 64.8604C614.827 64.8604 600.5 50.5335 600.5 32.8604Z" fill="#09090B"/>
<g clip-path="url(#clip11_1_206)">
<path d="M624.8 40.7191L624.725 40.7941C624.242 41.3322 623.654 41.7668 622.998 42.0718C622.342 42.3769 621.631 42.5459 620.908 42.5688C618.075 42.5688 616.017 40.4358 616.017 37.5028C616.017 34.5699 618.075 32.4451 620.908 32.4451C622.267 32.4451 623.592 33.0617 624.725 34.2199L624.8 34.2949L626.625 32.0868L626.575 32.0285C625.914 31.1847 625.067 30.5051 624.1 30.0426C623.133 29.5801 622.072 29.3472 621 29.3622C618.75 29.3622 616.7 30.1204 615.225 31.4786C613.617 32.9617 612.767 35.0365 612.767 37.5028C612.767 39.9692 613.617 42.0522 615.225 43.527C616.814 44.9373 618.876 45.6961 621 45.6518C622.073 45.668 623.136 45.4358 624.104 44.9733C625.073 44.5107 625.921 43.8304 626.583 42.9854L626.625 42.9271L624.8 40.7191ZM628.467 45.3518H631.692V29.6205H628.467V45.3518ZM644.317 41.9356C643.609 42.4093 642.784 42.6801 641.933 42.7188C640.892 42.7188 640.417 42.1689 640.417 40.944V32.5951H643.708V29.6372H640.417V24.7378L637.267 26.4376V29.6455H634.542V32.6034H637.267V41.4856C637.267 43.902 638.7 45.5518 640.833 45.6018C642.292 45.6268 643.167 45.1935 643.692 44.8769L643.725 44.8519L644.5 41.8189L644.317 41.9356ZM646.983 45.3518H650.208V29.6205H646.983V45.3518Z" fill="#3471A8"/>
<path d="M652.083 26.8542C650.627 24.8119 648.707 23.1449 646.48 21.9903C644.253 20.8357 641.783 20.2267 639.275 20.2134C636.767 20.2299 634.298 20.8421 632.073 21.9996C629.847 23.1571 627.929 24.8267 626.475 26.8709L626.325 27.0875H630.033L630.075 27.0375C631.26 25.7873 632.687 24.7899 634.268 24.1054C635.849 23.4209 637.552 23.0635 639.275 23.0547C642.667 23.0547 645.958 24.4378 648.483 27.0375L648.525 27.0875H652.233L652.083 26.8709V26.8542Z" fill="#EE1C25"/>
</g>
</g>
<g filter="url(#filter13_dd_1_206)">
<path d="M600.5 128.86C600.5 111.187 614.827 96.8604 632.5 96.8604C650.173 96.8604 664.5 111.187 664.5 128.86C664.5 146.533 650.173 160.86 632.5 160.86C614.827 160.86 600.5 146.533 600.5 128.86Z" fill="#09090B"/>
<g clip-path="url(#clip12_1_206)">
<path d="M645.376 135.55C644.995 135.276 645.772 135.824 645.376 135.55C645.494 135.628 645.591 135.733 645.659 135.856C645.727 135.98 645.764 136.118 645.768 136.259C645.771 136.4 645.74 136.539 645.678 136.666C645.616 136.792 645.524 136.902 645.411 136.986C645.297 137.069 645.165 137.124 645.026 137.146C644.887 137.167 644.744 137.155 644.611 137.11C644.477 137.065 644.356 136.988 644.259 136.886C644.161 136.784 644.09 136.66 644.05 136.525C643.936 136.175 644.066 135.771 644.37 135.565C644.675 135.359 645.071 135.337 645.376 135.55ZM634.214 143.687C634.405 143.687 634.618 143.687 634.809 143.672C635.205 143.657 635.609 143.618 635.99 143.573C635.334 143.649 636.31 143.542 635.99 143.573C636.393 143.527 636.713 143.893 636.63 144.297C636.604 144.382 636.562 144.462 636.504 144.53C636.446 144.598 636.375 144.654 636.294 144.693C636.18 144.738 636.066 144.738 635.959 144.754C634.773 144.87 633.578 144.865 632.393 144.738C629.557 144.43 626.861 143.341 624.607 141.592C622.031 139.615 620.105 136.914 619.075 133.836C618.031 130.629 618.02 127.175 619.045 123.961C619.886 121.35 621.383 119 623.394 117.134C625.405 115.268 627.861 113.951 630.527 113.308C633.194 112.664 635.981 112.717 638.621 113.46C641.261 114.204 643.666 115.613 645.605 117.554C645.928 117.825 646.194 118.158 646.386 118.533C646.579 118.909 646.694 119.319 646.725 119.74C646.751 120.141 646.697 120.542 646.566 120.922C646.436 121.301 646.23 121.651 645.963 121.95C645.495 122.468 644.865 122.813 644.176 122.928C643.487 123.042 642.78 122.921 642.169 122.582C641.964 122.472 641.777 122.334 641.612 122.171C641.414 121.996 641.239 121.79 641.049 121.615C639.84 120.489 638.369 119.683 636.769 119.272C635.169 118.861 633.492 118.857 631.89 119.26C630.839 119.535 629.833 119.984 628.904 120.571C627.095 121.769 625.722 123.52 624.988 125.561C624.234 127.669 624.229 129.972 624.972 132.083C625.684 134.127 627.05 135.878 628.858 137.066C630.722 138.305 632.953 138.87 635.182 138.666C636.271 138.567 637.338 138.3 638.351 137.851C638.458 137.805 638.557 137.737 638.671 137.721C638.765 137.703 638.862 137.709 638.953 137.737C639.151 137.805 639.289 137.95 639.334 138.14C639.388 138.316 639.357 138.521 639.228 138.674C639.154 138.747 639.066 138.804 638.969 138.841C638.847 138.887 638.732 138.956 638.603 139.001C636.536 139.862 634.258 140.079 632.066 139.626C632.21 139.778 632.34 139.961 632.47 140.137L632.835 140.677L632.896 140.777H632.942L633.125 140.792L633.46 140.822C635.027 140.94 636.603 140.746 638.095 140.252C639.587 139.758 640.966 138.973 642.153 137.942L642.633 137.516C642.778 137.386 642.885 137.226 643.068 137.15C643.217 137.074 643.384 137.043 643.55 137.061C643.716 137.078 643.874 137.143 644.004 137.247C644.134 137.352 644.232 137.491 644.285 137.65C644.337 137.808 644.343 137.979 644.302 138.14C644.249 138.316 644.165 138.46 644.035 138.567L643.578 139.024C642.285 140.193 640.783 141.108 639.151 141.721C637.428 142.342 635.603 142.632 633.772 142.575C633.849 142.78 633.91 142.994 633.978 143.199L634.054 143.489C634.054 143.519 634.092 143.596 634.092 143.596L634.214 143.672V143.687ZM643.136 140.746C641.49 141.965 643.395 140.556 643.136 140.746C643.212 140.677 643.327 140.632 643.456 140.594C643.565 140.591 643.672 140.616 643.767 140.669C643.862 140.721 643.942 140.798 643.997 140.891C644.111 141.081 644.111 141.333 643.982 141.516C643.906 141.622 643.791 141.691 643.692 141.767L643.342 142.011C643.113 142.163 642.885 142.331 642.641 142.468C641.207 143.361 639.637 144.014 637.993 144.403C637.75 144.457 637.513 144.418 637.353 144.213C637.28 144.128 637.235 144.022 637.222 143.911C637.21 143.799 637.232 143.687 637.285 143.588C637.326 143.491 637.398 143.411 637.49 143.359C637.605 143.298 637.734 143.283 637.849 143.253C638.115 143.192 638.382 143.108 638.664 143.024C640.276 142.527 641.789 141.753 643.136 140.738V140.746ZM645.056 139.017C644.843 139.245 645.285 138.78 645.056 139.017C645.118 138.952 645.193 138.903 645.276 138.872C645.36 138.842 645.449 138.831 645.538 138.84C645.626 138.85 645.711 138.88 645.786 138.927C645.861 138.975 645.924 139.04 645.97 139.116C646.047 139.245 646.062 139.42 646.031 139.565C645.968 139.739 645.857 139.893 645.711 140.007C645.559 140.167 645.407 140.327 645.247 140.472C645.177 140.54 645.093 140.591 645.001 140.622C644.908 140.652 644.81 140.661 644.713 140.647C644.634 140.632 644.558 140.601 644.491 140.555C644.424 140.509 644.367 140.45 644.325 140.381C644.282 140.313 644.253 140.236 644.242 140.156C644.23 140.075 644.235 139.994 644.256 139.916C644.317 139.74 644.462 139.626 644.591 139.497C644.744 139.344 644.911 139.177 645.049 139.017H645.056ZM641.43 135.664C640.866 136.251 641.65 135.436 641.43 135.664C641.524 135.57 641.646 135.509 641.779 135.491C641.911 135.473 642.045 135.499 642.161 135.565C642.397 135.71 642.496 136.015 642.397 136.266C642.336 136.396 642.245 136.495 642.146 136.586C642.031 136.7 641.94 136.815 641.826 136.906C641.635 137.081 641.445 137.257 641.247 137.417L640.591 137.897C640.355 138.072 640.066 138.095 639.845 137.897C639.752 137.818 639.687 137.713 639.658 137.595C639.629 137.477 639.638 137.353 639.685 137.241C639.734 137.132 639.813 137.04 639.913 136.975L640.256 136.716C640.675 136.396 641.056 136.045 641.43 135.664ZM634.283 125.074C634.473 125.074 634.664 125.097 634.87 125.097C635.789 125.301 636.601 125.84 637.146 126.608C637.692 127.376 637.934 128.319 637.825 129.255C637.716 130.191 637.264 131.054 636.557 131.676C635.849 132.298 634.936 132.636 633.993 132.624C633.231 132.578 632.47 132.274 631.883 131.778C631.431 131.413 631.069 130.947 630.828 130.418C630.586 129.888 630.471 129.31 630.491 128.729C630.511 128.148 630.666 127.579 630.943 127.068C631.22 126.556 631.612 126.116 632.089 125.782C632.729 125.325 633.498 125.081 634.283 125.081V125.074Z" fill="#FF6C36"/>
</g>
</g>
<g filter="url(#filter14_dd_1_206)">
<path d="M600.5 224.86C600.5 207.187 614.827 192.86 632.5 192.86C650.173 192.86 664.5 207.187 664.5 224.86C664.5 242.533 650.173 256.86 632.5 256.86C614.827 256.86 600.5 242.533 600.5 224.86Z" fill="#09090B"/>
<g clip-path="url(#clip13_1_206)">
<path d="M634.755 234.762V210.313L632.66 210.619C627.278 211.535 621.904 212.073 616.5 212.952V236.078C621.816 236.965 627.205 237.845 632.558 238.768H634.74V234.762H634.762H634.755ZM626.842 229.688C626.17 228.341 625.58 226.955 625.075 225.537C624.587 226.882 623.918 228.14 623.373 229.463C622.602 229.463 621.831 229.419 621.06 229.39C621.962 227.725 622.835 226.046 623.765 224.403C622.973 222.694 622.107 221.029 621.293 219.343L623.62 219.219C624.136 220.506 624.711 221.786 625.147 223.109C625.635 221.706 626.296 220.361 626.893 219.023L629.278 218.885C628.347 220.695 627.402 222.505 626.456 224.323L629.373 229.863C628.529 229.79 627.685 229.746 626.842 229.688ZM635.649 213.483V215.235H639.365V217.823H635.649V219.241H639.365V221.829H635.649V223.254H639.365V225.835H635.649V227.253H639.365V229.819H635.649V231.324H639.365V233.825H635.649V235.577H648.5V213.483H635.649ZM645.664 233.839H640.253V231.338H645.664V233.846V233.839ZM645.664 229.841H640.253V227.253H645.664V229.841ZM645.664 225.828H640.253V223.254H645.664V225.835V225.828ZM645.664 221.822H640.253V219.241H645.664V221.822ZM645.664 217.816H640.253V215.235H645.664V217.816Z" fill="#00AC47"/>
</g>
</g>
</g>
<defs>
<filter id="filter0_dd_1_206" x="31.5" y="-0.139648" width="66" height="66" filterUnits="userSpaceOnUse" color-interpolation-filters="sRGB">
<feFlood flood-opacity="0" result="BackgroundImageFix"/>
<feColorMatrix in="SourceAlpha" type="matrix" values="0 0 0 0 0 0 0 0 0 0 0 0 0 0 0 0 0 0 127 0" result="hardAlpha"/>
<feOffset/>
<feComposite in2="hardAlpha" operator="out"/>
<feColorMatrix type="matrix" values="0 0 0 0 1 0 0 0 0 1 0 0 0 0 1 0 0 0 1 0"/>
<feBlend mode="normal" in2="BackgroundImageFix" result="effect1_dropShadow_1_206"/>
<feColorMatrix in="SourceAlpha" type="matrix" values="0 0 0 0 0 0 0 0 0 0 0 0 0 0 0 0 0 0 127 0" result="hardAlpha"/>
<feMorphology radius="1" operator="dilate" in="SourceAlpha" result="effect2_dropShadow_1_206"/>
<feOffset/>
<feComposite in2="hardAlpha" operator="out"/>
<feColorMatrix type="matrix" values="0 0 0 0 0.956863 0 0 0 0 0.956863 0 0 0 0 0.960784 0 0 0 0.1 0"/>
<feBlend mode="normal" in2="effect1_dropShadow_1_206" result="effect2_dropShadow_1_206"/>
<feBlend mode="normal" in="SourceGraphic" in2="effect2_dropShadow_1_206" result="shape"/>
</filter>
<filter id="filter1_dd_1_206" x="31.5" y="95.8604" width="66" height="66" filterUnits="userSpaceOnUse" color-interpolation-filters="sRGB">
<feFlood flood-opacity="0" result="BackgroundImageFix"/>
<feColorMatrix in="SourceAlpha" type="matrix" values="0 0 0 0 0 0 0 0 0 0 0 0 0 0 0 0 0 0 127 0" result="hardAlpha"/>
<feOffset/>
<feComposite in2="hardAlpha" operator="out"/>
<feColorMatrix type="matrix" values="0 0 0 0 1 0 0 0 0 1 0 0 0 0 1 0 0 0 1 0"/>
<feBlend mode="normal" in2="BackgroundImageFix" result="effect1_dropShadow_1_206"/>
<feColorMatrix in="SourceAlpha" type="matrix" values="0 0 0 0 0 0 0 0 0 0 0 0 0 0 0 0 0 0 127 0" result="hardAlpha"/>
<feMorphology radius="1" operator="dilate" in="SourceAlpha" result="effect2_dropShadow_1_206"/>
<feOffset/>
<feComposite in2="hardAlpha" operator="out"/>
<feColorMatrix type="matrix" values="0 0 0 0 0.956863 0 0 0 0 0.956863 0 0 0 0 0.960784 0 0 0 0.1 0"/>
<feBlend mode="normal" in2="effect1_dropShadow_1_206" result="effect2_dropShadow_1_206"/>
<feBlend mode="normal" in="SourceGraphic" in2="effect2_dropShadow_1_206" result="shape"/>
</filter>
<filter id="filter2_dd_1_206" x="31.5" y="191.86" width="66" height="66" filterUnits="userSpaceOnUse" color-interpolation-filters="sRGB">
<feFlood flood-opacity="0" result="BackgroundImageFix"/>
<feColorMatrix in="SourceAlpha" type="matrix" values="0 0 0 0 0 0 0 0 0 0 0 0 0 0 0 0 0 0 127 0" result="hardAlpha"/>
<feOffset/>
<feComposite in2="hardAlpha" operator="out"/>
<feColorMatrix type="matrix" values="0 0 0 0 1 0 0 0 0 1 0 0 0 0 1 0 0 0 1 0"/>
<feBlend mode="normal" in2="BackgroundImageFix" result="effect1_dropShadow_1_206"/>
<feColorMatrix in="SourceAlpha" type="matrix" values="0 0 0 0 0 0 0 0 0 0 0 0 0 0 0 0 0 0 127 0" result="hardAlpha"/>
<feMorphology radius="1" operator="dilate" in="SourceAlpha" result="effect2_dropShadow_1_206"/>
<feOffset/>
<feComposite in2="hardAlpha" operator="out"/>
<feColorMatrix type="matrix" values="0 0 0 0 0.956863 0 0 0 0 0.956863 0 0 0 0 0.960784 0 0 0 0.1 0"/>
<feBlend mode="normal" in2="effect1_dropShadow_1_206" result="effect2_dropShadow_1_206"/>
<feBlend mode="normal" in="SourceGraphic" in2="effect2_dropShadow_1_206" result="shape"/>
</filter>
<filter id="filter3_dd_1_206" x="173.5" y="31.8604" width="66" height="66" filterUnits="userSpaceOnUse" color-interpolation-filters="sRGB">
<feFlood flood-opacity="0" result="BackgroundImageFix"/>
<feColorMatrix in="SourceAlpha" type="matrix" values="0 0 0 0 0 0 0 0 0 0 0 0 0 0 0 0 0 0 127 0" result="hardAlpha"/>
<feOffset/>
<feComposite in2="hardAlpha" operator="out"/>
<feColorMatrix type="matrix" values="0 0 0 0 1 0 0 0 0 1 0 0 0 0 1 0 0 0 1 0"/>
<feBlend mode="normal" in2="BackgroundImageFix" result="effect1_dropShadow_1_206"/>
<feColorMatrix in="SourceAlpha" type="matrix" values="0 0 0 0 0 0 0 0 0 0 0 0 0 0 0 0 0 0 127 0" result="hardAlpha"/>
<feMorphology radius="1" operator="dilate" in="SourceAlpha" result="effect2_dropShadow_1_206"/>
<feOffset/>
<feComposite in2="hardAlpha" operator="out"/>
<feColorMatrix type="matrix" values="0 0 0 0 0.956863 0 0 0 0 0.956863 0 0 0 0 0.960784 0 0 0 0.1 0"/>
<feBlend mode="normal" in2="effect1_dropShadow_1_206" result="effect2_dropShadow_1_206"/>
<feBlend mode="normal" in="SourceGraphic" in2="effect2_dropShadow_1_206" result="shape"/>
</filter>
<filter id="filter4_dd_1_206" x="173.5" y="127.86" width="66" height="66" filterUnits="userSpaceOnUse" color-interpolation-filters="sRGB">
<feFlood flood-opacity="0" result="BackgroundImageFix"/>
<feColorMatrix in="SourceAlpha" type="matrix" values="0 0 0 0 0 0 0 0 0 0 0 0 0 0 0 0 0 0 127 0" result="hardAlpha"/>
<feOffset/>
<feComposite in2="hardAlpha" operator="out"/>
<feColorMatrix type="matrix" values="0 0 0 0 1 0 0 0 0 1 0 0 0 0 1 0 0 0 1 0"/>
<feBlend mode="normal" in2="BackgroundImageFix" result="effect1_dropShadow_1_206"/>
<feColorMatrix in="SourceAlpha" type="matrix" values="0 0 0 0 0 0 0 0 0 0 0 0 0 0 0 0 0 0 127 0" result="hardAlpha"/>
<feMorphology radius="1" operator="dilate" in="SourceAlpha" result="effect2_dropShadow_1_206"/>
<feOffset/>
<feComposite in2="hardAlpha" operator="out"/>
<feColorMatrix type="matrix" values="0 0 0 0 0.956863 0 0 0 0 0.956863 0 0 0 0 0.960784 0 0 0 0.1 0"/>
<feBlend mode="normal" in2="effect1_dropShadow_1_206" result="effect2_dropShadow_1_206"/>
<feBlend mode="normal" in="SourceGraphic" in2="effect2_dropShadow_1_206" result="shape"/>
</filter>
<filter id="filter5_dd_1_206" x="173.5" y="223.86" width="66" height="66" filterUnits="userSpaceOnUse" color-interpolation-filters="sRGB">
<feFlood flood-opacity="0" result="BackgroundImageFix"/>
<feColorMatrix in="SourceAlpha" type="matrix" values="0 0 0 0 0 0 0 0 0 0 0 0 0 0 0 0 0 0 127 0" result="hardAlpha"/>
<feOffset/>
<feComposite in2="hardAlpha" operator="out"/>
<feColorMatrix type="matrix" values="0 0 0 0 1 0 0 0 0 1 0 0 0 0 1 0 0 0 1 0"/>
<feBlend mode="normal" in2="BackgroundImageFix" result="effect1_dropShadow_1_206"/>
<feColorMatrix in="SourceAlpha" type="matrix" values="0 0 0 0 0 0 0 0 0 0 0 0 0 0 0 0 0 0 127 0" result="hardAlpha"/>
<feMorphology radius="1" operator="dilate" in="SourceAlpha" result="effect2_dropShadow_1_206"/>
<feOffset/>
<feComposite in2="hardAlpha" operator="out"/>
<feColorMatrix type="matrix" values="0 0 0 0 0.956863 0 0 0 0 0.956863 0 0 0 0 0.960784 0 0 0 0.1 0"/>
<feBlend mode="normal" in2="effect1_dropShadow_1_206" result="effect2_dropShadow_1_206"/>
<feBlend mode="normal" in="SourceGraphic" in2="effect2_dropShadow_1_206" result="shape"/>
</filter>
<filter id="filter6_dd_1_206" x="315.5" y="-0.139648" width="66" height="66" filterUnits="userSpaceOnUse" color-interpolation-filters="sRGB">
<feFlood flood-opacity="0" result="BackgroundImageFix"/>
<feColorMatrix in="SourceAlpha" type="matrix" values="0 0 0 0 0 0 0 0 0 0 0 0 0 0 0 0 0 0 127 0" result="hardAlpha"/>
<feOffset/>
<feComposite in2="hardAlpha" operator="out"/>
<feColorMatrix type="matrix" values="0 0 0 0 1 0 0 0 0 1 0 0 0 0 1 0 0 0 1 0"/>
<feBlend mode="normal" in2="BackgroundImageFix" result="effect1_dropShadow_1_206"/>
<feColorMatrix in="SourceAlpha" type="matrix" values="0 0 0 0 0 0 0 0 0 0 0 0 0 0 0 0 0 0 127 0" result="hardAlpha"/>
<feMorphology radius="1" operator="dilate" in="SourceAlpha" result="effect2_dropShadow_1_206"/>
<feOffset/>
<feComposite in2="hardAlpha" operator="out"/>
<feColorMatrix type="matrix" values="0 0 0 0 0.956863 0 0 0 0 0.956863 0 0 0 0 0.960784 0 0 0 0.1 0"/>
<feBlend mode="normal" in2="effect1_dropShadow_1_206" result="effect2_dropShadow_1_206"/>
<feBlend mode="normal" in="SourceGraphic" in2="effect2_dropShadow_1_206" result="shape"/>
</filter>
<filter id="filter7_dd_1_206" x="315.5" y="95.8604" width="66" height="66" filterUnits="userSpaceOnUse" color-interpolation-filters="sRGB">
<feFlood flood-opacity="0" result="BackgroundImageFix"/>
<feColorMatrix in="SourceAlpha" type="matrix" values="0 0 0 0 0 0 0 0 0 0 0 0 0 0 0 0 0 0 127 0" result="hardAlpha"/>
<feOffset/>
<feComposite in2="hardAlpha" operator="out"/>
<feColorMatrix type="matrix" values="0 0 0 0 1 0 0 0 0 1 0 0 0 0 1 0 0 0 1 0"/>
<feBlend mode="normal" in2="BackgroundImageFix" result="effect1_dropShadow_1_206"/>
<feColorMatrix in="SourceAlpha" type="matrix" values="0 0 0 0 0 0 0 0 0 0 0 0 0 0 0 0 0 0 127 0" result="hardAlpha"/>
<feMorphology radius="1" operator="dilate" in="SourceAlpha" result="effect2_dropShadow_1_206"/>
<feOffset/>
<feComposite in2="hardAlpha" operator="out"/>
<feColorMatrix type="matrix" values="0 0 0 0 0.956863 0 0 0 0 0.956863 0 0 0 0 0.960784 0 0 0 0.1 0"/>
<feBlend mode="normal" in2="effect1_dropShadow_1_206" result="effect2_dropShadow_1_206"/>
<feBlend mode="normal" in="SourceGraphic" in2="effect2_dropShadow_1_206" result="shape"/>
</filter>
<filter id="filter8_dd_1_206" x="315.5" y="191.86" width="66" height="66" filterUnits="userSpaceOnUse" color-interpolation-filters="sRGB">
<feFlood flood-opacity="0" result="BackgroundImageFix"/>
<feColorMatrix in="SourceAlpha" type="matrix" values="0 0 0 0 0 0 0 0 0 0 0 0 0 0 0 0 0 0 127 0" result="hardAlpha"/>
<feOffset/>
<feComposite in2="hardAlpha" operator="out"/>
<feColorMatrix type="matrix" values="0 0 0 0 1 0 0 0 0 1 0 0 0 0 1 0 0 0 1 0"/>
<feBlend mode="normal" in2="BackgroundImageFix" result="effect1_dropShadow_1_206"/>
<feColorMatrix in="SourceAlpha" type="matrix" values="0 0 0 0 0 0 0 0 0 0 0 0 0 0 0 0 0 0 127 0" result="hardAlpha"/>
<feMorphology radius="1" operator="dilate" in="SourceAlpha" result="effect2_dropShadow_1_206"/>
<feOffset/>
<feComposite in2="hardAlpha" operator="out"/>
<feColorMatrix type="matrix" values="0 0 0 0 0.956863 0 0 0 0 0.956863 0 0 0 0 0.960784 0 0 0 0.1 0"/>
<feBlend mode="normal" in2="effect1_dropShadow_1_206" result="effect2_dropShadow_1_206"/>
<feBlend mode="normal" in="SourceGraphic" in2="effect2_dropShadow_1_206" result="shape"/>
</filter>
<filter id="filter9_dd_1_206" x="457.5" y="31.8604" width="66" height="66" filterUnits="userSpaceOnUse" color-interpolation-filters="sRGB">
<feFlood flood-opacity="0" result="BackgroundImageFix"/>
<feColorMatrix in="SourceAlpha" type="matrix" values="0 0 0 0 0 0 0 0 0 0 0 0 0 0 0 0 0 0 127 0" result="hardAlpha"/>
<feOffset/>
<feComposite in2="hardAlpha" operator="out"/>
<feColorMatrix type="matrix" values="0 0 0 0 1 0 0 0 0 1 0 0 0 0 1 0 0 0 1 0"/>
<feBlend mode="normal" in2="BackgroundImageFix" result="effect1_dropShadow_1_206"/>
<feColorMatrix in="SourceAlpha" type="matrix" values="0 0 0 0 0 0 0 0 0 0 0 0 0 0 0 0 0 0 127 0" result="hardAlpha"/>
<feMorphology radius="1" operator="dilate" in="SourceAlpha" result="effect2_dropShadow_1_206"/>
<feOffset/>
<feComposite in2="hardAlpha" operator="out"/>
<feColorMatrix type="matrix" values="0 0 0 0 0.956863 0 0 0 0 0.956863 0 0 0 0 0.960784 0 0 0 0.1 0"/>
<feBlend mode="normal" in2="effect1_dropShadow_1_206" result="effect2_dropShadow_1_206"/>
<feBlend mode="normal" in="SourceGraphic" in2="effect2_dropShadow_1_206" result="shape"/>
</filter>
<filter id="filter10_dd_1_206" x="457.5" y="127.86" width="66" height="66" filterUnits="userSpaceOnUse" color-interpolation-filters="sRGB">
<feFlood flood-opacity="0" result="BackgroundImageFix"/>
<feColorMatrix in="SourceAlpha" type="matrix" values="0 0 0 0 0 0 0 0 0 0 0 0 0 0 0 0 0 0 127 0" result="hardAlpha"/>
<feOffset/>
<feComposite in2="hardAlpha" operator="out"/>
<feColorMatrix type="matrix" values="0 0 0 0 1 0 0 0 0 1 0 0 0 0 1 0 0 0 1 0"/>
<feBlend mode="normal" in2="BackgroundImageFix" result="effect1_dropShadow_1_206"/>
<feColorMatrix in="SourceAlpha" type="matrix" values="0 0 0 0 0 0 0 0 0 0 0 0 0 0 0 0 0 0 127 0" result="hardAlpha"/>
<feMorphology radius="1" operator="dilate" in="SourceAlpha" result="effect2_dropShadow_1_206"/>
<feOffset/>
<feComposite in2="hardAlpha" operator="out"/>
<feColorMatrix type="matrix" values="0 0 0 0 0.956863 0 0 0 0 0.956863 0 0 0 0 0.960784 0 0 0 0.1 0"/>
<feBlend mode="normal" in2="effect1_dropShadow_1_206" result="effect2_dropShadow_1_206"/>
<feBlend mode="normal" in="SourceGraphic" in2="effect2_dropShadow_1_206" result="shape"/>
</filter>
<filter id="filter11_dd_1_206" x="457.5" y="223.86" width="66" height="66" filterUnits="userSpaceOnUse" color-interpolation-filters="sRGB">
<feFlood flood-opacity="0" result="BackgroundImageFix"/>
<feColorMatrix in="SourceAlpha" type="matrix" values="0 0 0 0 0 0 0 0 0 0 0 0 0 0 0 0 0 0 127 0" result="hardAlpha"/>
<feOffset/>
<feComposite in2="hardAlpha" operator="out"/>
<feColorMatrix type="matrix" values="0 0 0 0 1 0 0 0 0 1 0 0 0 0 1 0 0 0 1 0"/>
<feBlend mode="normal" in2="BackgroundImageFix" result="effect1_dropShadow_1_206"/>
<feColorMatrix in="SourceAlpha" type="matrix" values="0 0 0 0 0 0 0 0 0 0 0 0 0 0 0 0 0 0 127 0" result="hardAlpha"/>
<feMorphology radius="1" operator="dilate" in="SourceAlpha" result="effect2_dropShadow_1_206"/>
<feOffset/>
<feComposite in2="hardAlpha" operator="out"/>
<feColorMatrix type="matrix" values="0 0 0 0 0.956863 0 0 0 0 0.956863 0 0 0 0 0.960784 0 0 0 0.1 0"/>
<feBlend mode="normal" in2="effect1_dropShadow_1_206" result="effect2_dropShadow_1_206"/>
<feBlend mode="normal" in="SourceGraphic" in2="effect2_dropShadow_1_206" result="shape"/>
</filter>
<filter id="filter12_dd_1_206" x="599.5" y="-0.139648" width="66" height="66" filterUnits="userSpaceOnUse" color-interpolation-filters="sRGB">
<feFlood flood-opacity="0" result="BackgroundImageFix"/>
<feColorMatrix in="SourceAlpha" type="matrix" values="0 0 0 0 0 0 0 0 0 0 0 0 0 0 0 0 0 0 127 0" result="hardAlpha"/>
<feOffset/>
<feComposite in2="hardAlpha" operator="out"/>
<feColorMatrix type="matrix" values="0 0 0 0 1 0 0 0 0 1 0 0 0 0 1 0 0 0 1 0"/>
<feBlend mode="normal" in2="BackgroundImageFix" result="effect1_dropShadow_1_206"/>
<feColorMatrix in="SourceAlpha" type="matrix" values="0 0 0 0 0 0 0 0 0 0 0 0 0 0 0 0 0 0 127 0" result="hardAlpha"/>
<feMorphology radius="1" operator="dilate" in="SourceAlpha" result="effect2_dropShadow_1_206"/>
<feOffset/>
<feComposite in2="hardAlpha" operator="out"/>
<feColorMatrix type="matrix" values="0 0 0 0 0.956863 0 0 0 0 0.956863 0 0 0 0 0.960784 0 0 0 0.1 0"/>
<feBlend mode="normal" in2="effect1_dropShadow_1_206" result="effect2_dropShadow_1_206"/>
<feBlend mode="normal" in="SourceGraphic" in2="effect2_dropShadow_1_206" result="shape"/>
</filter>
<filter id="filter13_dd_1_206" x="599.5" y="95.8604" width="66" height="66" filterUnits="userSpaceOnUse" color-interpolation-filters="sRGB">
<feFlood flood-opacity="0" result="BackgroundImageFix"/>
<feColorMatrix in="SourceAlpha" type="matrix" values="0 0 0 0 0 0 0 0 0 0 0 0 0 0 0 0 0 0 127 0" result="hardAlpha"/>
<feOffset/>
<feComposite in2="hardAlpha" operator="out"/>
<feColorMatrix type="matrix" values="0 0 0 0 1 0 0 0 0 1 0 0 0 0 1 0 0 0 1 0"/>
<feBlend mode="normal" in2="BackgroundImageFix" result="effect1_dropShadow_1_206"/>
<feColorMatrix in="SourceAlpha" type="matrix" values="0 0 0 0 0 0 0 0 0 0 0 0 0 0 0 0 0 0 127 0" result="hardAlpha"/>
<feMorphology radius="1" operator="dilate" in="SourceAlpha" result="effect2_dropShadow_1_206"/>
<feOffset/>
<feComposite in2="hardAlpha" operator="out"/>
<feColorMatrix type="matrix" values="0 0 0 0 0.956863 0 0 0 0 0.956863 0 0 0 0 0.960784 0 0 0 0.1 0"/>
<feBlend mode="normal" in2="effect1_dropShadow_1_206" result="effect2_dropShadow_1_206"/>
<feBlend mode="normal" in="SourceGraphic" in2="effect2_dropShadow_1_206" result="shape"/>
</filter>
<filter id="filter14_dd_1_206" x="599.5" y="191.86" width="66" height="66" filterUnits="userSpaceOnUse" color-interpolation-filters="sRGB">
<feFlood flood-opacity="0" result="BackgroundImageFix"/>
<feColorMatrix in="SourceAlpha" type="matrix" values="0 0 0 0 0 0 0 0 0 0 0 0 0 0 0 0 0 0 127 0" result="hardAlpha"/>
<feOffset/>
<feComposite in2="hardAlpha" operator="out"/>
<feColorMatrix type="matrix" values="0 0 0 0 1 0 0 0 0 1 0 0 0 0 1 0 0 0 1 0"/>
<feBlend mode="normal" in2="BackgroundImageFix" result="effect1_dropShadow_1_206"/>
<feColorMatrix in="SourceAlpha" type="matrix" values="0 0 0 0 0 0 0 0 0 0 0 0 0 0 0 0 0 0 127 0" result="hardAlpha"/>
<feMorphology radius="1" operator="dilate" in="SourceAlpha" result="effect2_dropShadow_1_206"/>
<feOffset/>
<feComposite in2="hardAlpha" operator="out"/>
<feColorMatrix type="matrix" values="0 0 0 0 0.956863 0 0 0 0 0.956863 0 0 0 0 0.960784 0 0 0 0.1 0"/>
<feBlend mode="normal" in2="effect1_dropShadow_1_206" result="effect2_dropShadow_1_206"/>
<feBlend mode="normal" in="SourceGraphic" in2="effect2_dropShadow_1_206" result="shape"/>
</filter>
<radialGradient id="paint0_radial_1_206" cx="0" cy="0" r="1" gradientUnits="userSpaceOnUse" gradientTransform="translate(348 144) rotate(22.4794) scale(376.617 266.117)">
<stop offset="0.35" stop-opacity="0.9"/>
<stop offset="1" stop-opacity="0"/>
</radialGradient>
<linearGradient id="paint1_linear_1_206" x1="934.133" y1="96.098" x2="934.133" y2="2663.53" gradientUnits="userSpaceOnUse">
<stop offset="0.0056" stop-color="#FFE513"/>
<stop offset="1" stop-color="#FDB924"/>
</linearGradient>
<linearGradient id="paint2_linear_1_206" x1="533.658" y1="427.772" x2="1866.05" y2="801.34" gradientUnits="userSpaceOnUse">
<stop offset="0.0056" stop-color="#008CD2"/>
<stop offset="1" stop-color="#00649D"/>
</linearGradient>
<linearGradient id="paint3_linear_1_206" x1="1028.97" y1="948.387" x2="1028.97" y2="3197.73" gradientUnits="userSpaceOnUse">
<stop stop-color="#26A146"/>
<stop offset="1" stop-color="#008A52"/>
</linearGradient>
<linearGradient id="paint4_linear_1_206" x1="894.134" y1="282.631" x2="1805.46" y2="2259.78" gradientUnits="userSpaceOnUse">
<stop stop-color="#D92231"/>
<stop offset="1" stop-color="#BA2234"/>
</linearGradient>
<clipPath id="clip0_1_206">
<rect width="32" height="32" fill="white" transform="translate(48.5 16.8604)"/>
</clipPath>
<clipPath id="clip1_1_206">
<rect width="32" height="32" fill="white" transform="translate(48.5 208.86)"/>
</clipPath>
<clipPath id="clip2_1_206">
<rect width="40" height="40" fill="white" transform="translate(186.5 44.8604)"/>
</clipPath>
<clipPath id="clip3_1_206">
<rect width="40" height="40" fill="white" transform="translate(186.5 140.86)"/>
</clipPath>
<clipPath id="clip4_1_206">
<rect width="32" height="32" fill="white" transform="translate(190.5 240.86)"/>
</clipPath>
<clipPath id="clip5_1_206">
<rect width="36" height="36" fill="white" transform="translate(330.5 14.8604)"/>
</clipPath>
<clipPath id="clip6_1_206">
<rect width="40" height="40" fill="white" transform="translate(328.5 108.86)"/>
</clipPath>
<clipPath id="clip7_1_206">
<rect width="40" height="40" fill="white" transform="translate(328.5 204.86)"/>
</clipPath>
<clipPath id="clip8_1_206">
<rect width="40" height="40" fill="white" transform="translate(470.5 44.8604)"/>
</clipPath>
<clipPath id="clip9_1_206">
<rect width="28" height="28" fill="white" transform="translate(476.5 146.86)"/>
</clipPath>
<clipPath id="clip10_1_206">
<rect width="32" height="27.55" fill="white" transform="translate(474.5 243.079)"/>
</clipPath>
<clipPath id="clip11_1_206">
<rect width="40" height="25.83" fill="white" transform="translate(612.5 19.9385)"/>
</clipPath>
<clipPath id="clip12_1_206">
<rect width="32" height="32" fill="white" transform="translate(616.5 112.86)"/>
</clipPath>
<clipPath id="clip13_1_206">
<rect width="32" height="29.08" fill="white" transform="translate(616.5 210.313)"/>
</clipPath>
</defs>
</svg>
